SplineFontDB: 3.2
FontName: GotoMono-Bold
FullName: Goto Mono Bold
FamilyName: Goto Mono
Weight: Bold
Copyright: Copyright 2015 Google LLC. All Rights Reserved.
Version: 2.6
ItalicAngle: 0
UnderlinePosition: -125
UnderlineWidth: 50
Ascent: 800
Descent: 200
InvalidEm: 0
sfntRevision: 0x00020189
LayerCount: 2
Layer: 0 0 "Back" 1
Layer: 1 0 "Fore" 0
XUID: [1021 328 1927437058 7213121]
StyleMap: 0x0020
FSType: 0
OS2Version: 3
OS2_WeightWidthSlopeOnly: 0
OS2_UseTypoMetrics: 0
CreationTime: 1604030168
ModificationTime: 1609931760
PfmFamily: 49
TTFWeight: 700
TTFWidth: 5
LineGap: 0
VLineGap: 0
Panose: 2 11 8 9 4 5 4 2 2 4
OS2TypoAscent: 1069
OS2TypoAOffset: 0
OS2TypoDescent: -293
OS2TypoDOffset: 0
OS2TypoLinegap: 0
OS2WinAscent: 1069
OS2WinAOffset: 0
OS2WinDescent: 293
OS2WinDOffset: 0
HheadAscent: 1069
HheadAOffset: 0
HheadDescent: -293
HheadDOffset: 0
OS2SubXSize: 650
OS2SubYSize: 600
OS2SubXOff: 0
OS2SubYOff: 75
OS2SupXSize: 650
OS2SupYSize: 600
OS2SupXOff: 0
OS2SupYOff: 350
OS2StrikeYSize: 50
OS2StrikeYPos: 328
OS2CapHeight: 714
OS2XHeight: 546
OS2Vendor: 'GOOG'
OS2CodePages: 0000019f.dfd70000
OS2UnicodeRanges: e00002ff.0200fcff.08000039.00100000
Lookup: 1 0 0 "'aalt' Access All Alternates lookup 0" { "'aalt' Access All Alternates lookup 0 subtable"  } ['aalt' ('DFLT' <'dflt' > 'cyrl' <'MKD ' 'SRB ' 'dflt' > 'grek' <'dflt' > 'latn' <'APPH' 'CAT ' 'IPPH' 'MAH ' 'MOL ' 'NAV ' 'ROM ' 'dflt' > ) ]
Lookup: 3 0 0 "'aalt' Access All Alternates lookup 1" { "'aalt' Access All Alternates lookup 1 subtable"  } ['aalt' ('DFLT' <'dflt' > 'cyrl' <'MKD ' 'SRB ' 'dflt' > 'grek' <'dflt' > 'latn' <'APPH' 'CAT ' 'IPPH' 'MAH ' 'MOL ' 'NAV ' 'ROM ' 'dflt' > ) ]
Lookup: 4 0 0 "'ccmp' Glyph Composition/Decomposition lookup 2" { "'ccmp' Glyph Composition/Decomposition lookup 2 subtable"  } ['ccmp' ('DFLT' <'dflt' > 'cyrl' <'MKD ' 'SRB ' 'dflt' > 'grek' <'dflt' > 'latn' <'APPH' 'CAT ' 'IPPH' 'MAH ' 'MOL ' 'NAV ' 'ROM ' 'dflt' > ) ]

StartChar: .notdef
Encoding: 1114112 -1 0
Width: 563
Flags: HW
LayerCount: 2
Fore
SplineSet
76 0 m 1
 76 714 l 1
 487 714 l 1
 487 0 l 1
 76 0 l 1
127 51 m 1
 436 51 l 1
 436 663 l 1
 127 663 l 1
 127 51 l 1
EndSplineSet
Validated: 1
EndChar

StartChar: exclam
Encoding: 33 33 4
Width: 563
Flags: HW
LayerCount: 2
Fore
SplineSet
223 233 m 1
 202 714 l 1
 362 714 l 1
 341 233 l 1
 223 233 l 1
282 -10 m 0
 228 -10 197 20 197 74 c 0
 197 130 227 159 282 159 c 0
 335 159 365 129 365 74 c 0
 365 21 334 -10 282 -10 c 0
EndSplineSet
Validated: 1
Substitution2: "'smcp' Lowercase to Small Capitals lookup 35 subtable" exclam.sc
Substitution2: "'c2sc' Capitals to Small Capitals lookup 34 subtable" exclam.sc
Substitution2: "'aalt' Access All Alternates lookup 0 subtable" exclam.sc
EndChar

StartChar: quotedbl
Encoding: 34 34 5
Width: 563
Flags: HW
LayerCount: 2
Fore
SplineSet
332 456 m 1
 313 714 l 1
 451 714 l 1
 432 456 l 1
 332 456 l 1
131 456 m 1
 112 714 l 1
 250 714 l 1
 231 456 l 1
 131 456 l 1
EndSplineSet
Validated: 1
EndChar

StartChar: numbersign
Encoding: 35 35 6
Width: 563
Flags: HW
LayerCount: 2
Fore
SplineSet
89 0 m 1
 119 201 l 1
 15 201 l 1
 15 297 l 1
 133 297 l 1
 152 421 l 1
 42 421 l 1
 42 518 l 1
 166 518 l 1
 197 714 l 1
 294 714 l 1
 263 518 l 1
 348 518 l 1
 378 714 l 1
 474 714 l 1
 444 518 l 1
 548 518 l 1
 548 421 l 1
 429 421 l 1
 410 297 l 1
 521 297 l 1
 521 201 l 1
 397 201 l 1
 366 0 l 1
 268 0 l 1
 299 201 l 1
 215 201 l 1
 185 0 l 1
 89 0 l 1
230 297 m 1
 314 297 l 1
 333 421 l 1
 249 421 l 1
 230 297 l 1
EndSplineSet
Validated: 1
EndChar

StartChar: dollar
Encoding: 36 36 7
Width: 563
Flags: HW
LayerCount: 2
Fore
SplineSet
254 38 m 1
 187 40 125 54 77 77 c 1
 77 196 l 1
 123 168 194 143 254 140 c 1
 254 316 l 1
 126 365 72 416 72 508 c 0
 72 615 147 676 254 688 c 1
 254 759 l 1
 317 759 l 1
 317 689 l 1
 375 686 432 672 482 647 c 1
 448 545 l 1
 407 565 360 577 317 581 c 1
 317 413 l 1
 428 371 496 327 496 227 c 0
 496 130 434 58 317 40 c 1
 317 -58 l 1
 254 -58 l 1
 254 38 l 1
254 580 m 1
 211 574 189 550 189 511 c 0
 189 477 209 458 254 439 c 1
 254 580 l 1
317 147 m 1
 360 156 381 180 381 218 c 0
 381 253 360 272 317 291 c 1
 317 147 l 1
EndSplineSet
Validated: 1
EndChar

StartChar: percent
Encoding: 37 37 8
Width: 563
Flags: HW
LayerCount: 2
Fore
SplineSet
140 383 m 0
 54 383 0 444 0 550 c 0
 0 660 54 722 140 722 c 0
 231 722 282 661 282 550 c 0
 282 444 231 383 140 383 c 0
43 62 m 1
 410 652 l 1
 513 652 l 1
 147 62 l 1
 43 62 l 1
142 464 m 0
 172 464 188 494 188 550 c 0
 188 611 172 641 142 641 c 0
 108 641 94 613 94 550 c 0
 94 492 108 464 142 464 c 0
421 -9 m 0
 335 -9 281 52 281 158 c 0
 281 268 335 330 421 330 c 0
 512 330 563 269 563 158 c 0
 563 52 512 -9 421 -9 c 0
423 72 m 0
 453 72 469 102 469 158 c 0
 469 219 453 249 423 249 c 0
 389 249 375 221 375 158 c 0
 375 100 389 72 423 72 c 0
EndSplineSet
Validated: 1
EndChar

StartChar: ampersand
Encoding: 38 38 9
Width: 563
Flags: HW
LayerCount: 2
Fore
SplineSet
207 -10 m 0
 85 -10 27 68 27 175 c 0
 27 264 70 327 142 390 c 1
 115 431 84 485 84 557 c 0
 84 660 143 723 241 723 c 0
 345 723 399 661 399 567 c 0
 399 493 355 433 290 372 c 1
 375 248 l 1
 393 292 404 338 410 375 c 1
 527 375 l 1
 517 294 491 209 449 140 c 1
 545 0 l 1
 398 0 l 1
 368 45 l 1
 324 11 271 -10 207 -10 c 0
199 565 m 0
 199 524 215 488 230 461 c 1
 262 490 288 524 288 569 c 0
 288 608 271 628 245 628 c 0
 217 628 199 607 199 565 c 0
151 186 m 0
 151 141 176 104 223 104 c 0
 255 104 283 118 306 140 c 1
 204 296 l 1
 171 264 151 232 151 186 c 0
EndSplineSet
Validated: 1
Substitution2: "'smcp' Lowercase to Small Capitals lookup 35 subtable" ampersand.sc
Substitution2: "'c2sc' Capitals to Small Capitals lookup 34 subtable" ampersand.sc
Substitution2: "'aalt' Access All Alternates lookup 0 subtable" ampersand.sc
EndChar

StartChar: quotesingle
Encoding: 39 39 10
Width: 563
Flags: HW
LayerCount: 2
Fore
SplineSet
231 456 m 1
 212 714 l 1
 350 714 l 1
 331 456 l 1
 231 456 l 1
EndSplineSet
Validated: 1
EndChar

StartChar: parenleft
Encoding: 40 40 11
Width: 563
Flags: HW
LayerCount: 2
Fore
SplineSet
321 -167 m 1
 231 -52 181 97 181 270 c 0
 181 444 233 598 321 714 c 1
 437 714 l 1
 349 586 304 435 304 271 c 0
 304 110 351 -38 436 -167 c 1
 321 -167 l 1
EndSplineSet
Validated: 1
Substitution2: "'smcp' Lowercase to Small Capitals lookup 35 subtable" parenleft.sc
Substitution2: "'c2sc' Capitals to Small Capitals lookup 34 subtable" parenleft.sc
Substitution2: "'sups' Superscript lookup 23 subtable" uni207D
Substitution2: "'subs' Subscript lookup 22 subtable" uni208D
AlternateSubs2: "'aalt' Access All Alternates lookup 1 subtable" uni208D uni207D parenleft.sc
EndChar

StartChar: parenright
Encoding: 41 41 12
Width: 563
Flags: HW
LayerCount: 2
Fore
SplineSet
246 714 m 1
 336 598 386 450 386 277 c 0
 386 102 334 -51 246 -167 c 1
 130 -167 l 1
 218 -39 263 112 263 276 c 0
 263 436 216 585 131 714 c 1
 246 714 l 1
EndSplineSet
Validated: 1
Substitution2: "'smcp' Lowercase to Small Capitals lookup 35 subtable" parenright.sc
Substitution2: "'c2sc' Capitals to Small Capitals lookup 34 subtable" parenright.sc
Substitution2: "'sups' Superscript lookup 23 subtable" uni207E
Substitution2: "'subs' Subscript lookup 22 subtable" uni208E
AlternateSubs2: "'aalt' Access All Alternates lookup 1 subtable" uni208E uni207E parenright.sc
EndChar

StartChar: asterisk
Encoding: 42 42 13
Width: 563
Flags: HW
LayerCount: 2
Fore
SplineSet
354 339 m 1
 281 477 l 1
 209 339 l 1
 114 399 l 1
 210 521 l 1
 68 538 l 1
 92 645 l 1
 238 602 l 1
 224 758 l 1
 341 758 l 1
 325 602 l 1
 472 646 l 1
 496 537 l 1
 353 521 l 1
 450 400 l 1
 354 339 l 1
EndSplineSet
Validated: 1
EndChar

StartChar: plus
Encoding: 43 43 14
Width: 563
Flags: HW
LayerCount: 2
Fore
SplineSet
230 116 m 1
 230 301 l 1
 63 301 l 1
 63 405 l 1
 230 405 l 1
 230 592 l 1
 335 592 l 1
 335 405 l 1
 501 405 l 1
 501 301 l 1
 335 301 l 1
 335 116 l 1
 230 116 l 1
EndSplineSet
Validated: 1
Substitution2: "'sups' Superscript lookup 23 subtable" uni207A
Substitution2: "'subs' Subscript lookup 22 subtable" uni208A
AlternateSubs2: "'aalt' Access All Alternates lookup 1 subtable" uni208A uni207A
EndChar

StartChar: comma
Encoding: 44 44 15
Width: 563
Flags: HW
LayerCount: 2
Fore
SplineSet
183 -148 m 1
 203 -65 223 59 233 134 c 1
 364 134 l 1
 371 123 l 1
 354 45 325 -65 287 -148 c 1
 183 -148 l 1
EndSplineSet
Validated: 1
EndChar

StartChar: hyphen
Encoding: 45 45 16
Width: 563
Flags: HW
LayerCount: 2
Fore
SplineSet
141 205 m 1
 141 330 l 1
 423 330 l 1
 423 205 l 1
 141 205 l 1
EndSplineSet
Validated: 1
EndChar

StartChar: period
Encoding: 46 46 17
Width: 563
Flags: HW
LayerCount: 2
Fore
SplineSet
282 -10 m 0
 228 -10 197 20 197 74 c 0
 197 130 227 159 282 159 c 0
 335 159 365 129 365 74 c 0
 365 21 334 -10 282 -10 c 0
EndSplineSet
Validated: 1
EndChar

StartChar: slash
Encoding: 47 47 18
Width: 563
Flags: HW
LayerCount: 2
Fore
SplineSet
85 -5 m 1
 359 719 l 1
 478 719 l 1
 205 -5 l 1
 85 -5 l 1
EndSplineSet
Validated: 1
Substitution2: "'frac' Diagonal Fractions lookup 26 subtable" fraction
Substitution2: "'aalt' Access All Alternates lookup 0 subtable" fraction
EndChar

StartChar: zero
Encoding: 48 48 19
Width: 563
Flags: HW
LayerCount: 2
Fore
SplineSet
287 -10 m 0
 131 -10 57 111 57 360 c 0
 57 602 129 724 284 724 c 0
 441 724 515 596 515 354 c 0
 515 139 458 -10 287 -10 c 0
191 354 m 0
 191 333 192 314 193 296 c 1
 349 563 l 1
 335 591 314 606 285 606 c 0
 215 606 191 520 191 354 c 0
285 105 m 0
 356 105 378 186 378 353 c 0
 378 378 377 402 376 425 c 1
 216 155 l 1
 231 122 253 105 285 105 c 0
EndSplineSet
Validated: 1
Substitution2: "'zero' Slashed Zero lookup 37 subtable" zero.slash
Substitution2: "'onum' Oldstyle Figures lookup 33 subtable" zero.osf
Substitution2: "'frac' Diagonal Fractions lookup 27 subtable" zero.numr
Substitution2: "'dnom' Denominators lookup 25 subtable" zero.dnom
Substitution2: "'numr' Numerators lookup 24 subtable" zero.numr
Substitution2: "'sups' Superscript lookup 23 subtable" uni2070
Substitution2: "'subs' Subscript lookup 22 subtable" uni2080
AlternateSubs2: "'aalt' Access All Alternates lookup 1 subtable" uni2070 zero.osf zero.dnom zero.numr uni2080
EndChar

StartChar: one
Encoding: 49 49 20
Width: 563
Flags: HW
LayerCount: 2
Fore
SplineSet
99 0 m 1
 99 100 l 1
 235 113 l 1
 235 416 l 2
 235 476 236 520 240 567 c 1
 219 551 198 540 179 530 c 2
 108 491 l 1
 47 602 l 1
 253 714 l 1
 374 714 l 1
 374 114 l 1
 506 100 l 1
 506 0 l 1
 99 0 l 1
EndSplineSet
Validated: 1
Substitution2: "'onum' Oldstyle Figures lookup 33 subtable" one.osf
Substitution2: "'frac' Diagonal Fractions lookup 27 subtable" one.numr
Substitution2: "'dnom' Denominators lookup 25 subtable" one.dnom
Substitution2: "'numr' Numerators lookup 24 subtable" one.numr
Substitution2: "'sups' Superscript lookup 23 subtable" uni00B9
Substitution2: "'subs' Subscript lookup 22 subtable" uni2081
AlternateSubs2: "'aalt' Access All Alternates lookup 1 subtable" uni00B9 one.osf one.dnom one.numr uni2081
EndChar

StartChar: two
Encoding: 50 50 21
Width: 563
Flags: HW
LayerCount: 2
Fore
SplineSet
59 0 m 1
 59 100 l 1
 220 281 l 2
 304 379 356 439 356 511 c 0
 356 570 325 604 271 604 c 0
 224 604 183 582 132 534 c 1
 58 626 l 1
 128 693 187 724 283 724 c 0
 417 724 499 645 499 526 c 0
 499 412 427 328 327 227 c 2
 232 127 l 1
 232 119 l 1
 515 119 l 1
 515 0 l 1
 59 0 l 1
EndSplineSet
Validated: 1
Substitution2: "'onum' Oldstyle Figures lookup 33 subtable" two.osf
Substitution2: "'frac' Diagonal Fractions lookup 27 subtable" two.numr
Substitution2: "'dnom' Denominators lookup 25 subtable" two.dnom
Substitution2: "'numr' Numerators lookup 24 subtable" two.numr
Substitution2: "'sups' Superscript lookup 23 subtable" uni00B2
Substitution2: "'subs' Subscript lookup 22 subtable" uni2082
AlternateSubs2: "'aalt' Access All Alternates lookup 1 subtable" uni00B2 two.osf two.dnom two.numr uni2082
EndChar

StartChar: three
Encoding: 51 51 22
Width: 563
Flags: HW
LayerCount: 2
Fore
SplineSet
253 -10 m 0
 190 -10 125 3 68 27 c 1
 68 152 l 1
 123 124 189 107 242 107 c 0
 323 107 361 145 361 211 c 0
 361 282 318 311 211 311 c 2
 164 311 l 1
 164 423 l 1
 212 423 l 2
 307 423 352 460 352 524 c 0
 352 572 327 606 266 606 c 0
 225 606 182 590 127 556 c 1
 67 655 l 1
 128 699 200 724 278 724 c 0
 394 724 485 669 485 552 c 0
 485 465 436 400 353 376 c 1
 353 373 l 1
 456 356 503 298 503 204 c 0
 503 61 400 -10 253 -10 c 0
EndSplineSet
Validated: 1
Substitution2: "'onum' Oldstyle Figures lookup 33 subtable" three.osf
Substitution2: "'frac' Diagonal Fractions lookup 27 subtable" three.numr
Substitution2: "'dnom' Denominators lookup 25 subtable" three.dnom
Substitution2: "'numr' Numerators lookup 24 subtable" three.numr
Substitution2: "'sups' Superscript lookup 23 subtable" uni00B3
Substitution2: "'subs' Subscript lookup 22 subtable" uni2083
AlternateSubs2: "'aalt' Access All Alternates lookup 1 subtable" uni00B3 three.osf three.dnom three.numr uni2083
EndChar

StartChar: four
Encoding: 52 52 23
Width: 563
Flags: HW
LayerCount: 2
Fore
SplineSet
309 0 m 1
 309 148 l 1
 36 148 l 1
 36 251 l 1
 310 715 l 1
 442 715 l 1
 442 260 l 1
 527 260 l 1
 527 148 l 1
 442 148 l 1
 442 0 l 1
 309 0 l 1
158 260 m 1
 309 260 l 1
 309 404 l 2
 309 437 313 518 315 540 c 1
 311 540 l 1
 299 513 286 488 271 462 c 2
 158 260 l 1
EndSplineSet
Validated: 1
Substitution2: "'onum' Oldstyle Figures lookup 33 subtable" four.osf
Substitution2: "'frac' Diagonal Fractions lookup 27 subtable" four.numr
Substitution2: "'dnom' Denominators lookup 25 subtable" four.dnom
Substitution2: "'numr' Numerators lookup 24 subtable" four.numr
Substitution2: "'sups' Superscript lookup 23 subtable" uni2074
Substitution2: "'subs' Subscript lookup 22 subtable" uni2084
AlternateSubs2: "'aalt' Access All Alternates lookup 1 subtable" uni2074 four.osf four.dnom four.numr uni2084
EndChar

StartChar: five
Encoding: 53 53 24
Width: 563
Flags: HW
LayerCount: 2
Fore
SplineSet
238 -10 m 0
 179 -10 119 2 73 27 c 1
 73 152 l 1
 125 125 185 110 237 110 c 0
 312 110 350 151 350 225 c 0
 350 307 301 341 236 341 c 0
 202 341 165 335 138 324 c 1
 84 355 l 1
 109 714 l 1
 455 714 l 1
 455 594 l 1
 231 594 l 1
 220 446 l 1
 250 452 275 454 294 454 c 0
 410 454 493 371 493 233 c 0
 493 75 391 -10 238 -10 c 0
EndSplineSet
Validated: 1
Substitution2: "'onum' Oldstyle Figures lookup 33 subtable" five.osf
Substitution2: "'frac' Diagonal Fractions lookup 27 subtable" five.numr
Substitution2: "'dnom' Denominators lookup 25 subtable" five.dnom
Substitution2: "'numr' Numerators lookup 24 subtable" five.numr
Substitution2: "'sups' Superscript lookup 23 subtable" uni2075
Substitution2: "'subs' Subscript lookup 22 subtable" uni2085
AlternateSubs2: "'aalt' Access All Alternates lookup 1 subtable" uni2075 five.osf five.dnom five.numr uni2085
EndChar

StartChar: six
Encoding: 54 54 25
Width: 563
Flags: HW
LayerCount: 2
Fore
SplineSet
291 -11 m 0
 147 -11 56 105 56 318 c 0
 56 570 151 723 379 723 c 0
 408 723 440 720 465 715 c 1
 465 598 l 1
 437 605 409 609 379 609 c 0
 256 609 197 534 188 382 c 1
 193 382 l 1
 221 436 266 464 330 464 c 0
 447 464 509 374 509 237 c 0
 509 87 430 -11 291 -11 c 0
288 110 m 0
 340 110 371 151 371 235 c 0
 371 309 344 351 290 351 c 0
 238 351 198 306 198 238 c 0
 198 168 230 110 288 110 c 0
EndSplineSet
Validated: 1
Substitution2: "'onum' Oldstyle Figures lookup 33 subtable" six.osf
Substitution2: "'frac' Diagonal Fractions lookup 27 subtable" six.numr
Substitution2: "'dnom' Denominators lookup 25 subtable" six.dnom
Substitution2: "'numr' Numerators lookup 24 subtable" six.numr
Substitution2: "'sups' Superscript lookup 23 subtable" uni2076
Substitution2: "'subs' Subscript lookup 22 subtable" uni2086
AlternateSubs2: "'aalt' Access All Alternates lookup 1 subtable" uni2076 six.osf six.dnom six.numr uni2086
EndChar

StartChar: seven
Encoding: 55 55 26
Width: 563
Flags: HW
LayerCount: 2
Fore
SplineSet
121 0 m 1
 367 594 l 1
 55 594 l 1
 55 713 l 1
 516 713 l 1
 516 621 l 1
 269 0 l 1
 121 0 l 1
EndSplineSet
Validated: 1
Substitution2: "'onum' Oldstyle Figures lookup 33 subtable" seven.osf
Substitution2: "'frac' Diagonal Fractions lookup 27 subtable" seven.numr
Substitution2: "'dnom' Denominators lookup 25 subtable" seven.dnom
Substitution2: "'numr' Numerators lookup 24 subtable" seven.numr
Substitution2: "'sups' Superscript lookup 23 subtable" uni2077
Substitution2: "'subs' Subscript lookup 22 subtable" uni2087
AlternateSubs2: "'aalt' Access All Alternates lookup 1 subtable" uni2077 seven.osf seven.dnom seven.numr uni2087
EndChar

StartChar: eight
Encoding: 56 56 27
Width: 563
Flags: HW
LayerCount: 2
Fore
SplineSet
285 -10 m 0
 150 -10 59 54 59 181 c 0
 59 263 96 325 181 373 c 1
 109 424 79 482 79 553 c 0
 79 663 169 723 285 723 c 0
 403 723 490 664 490 552 c 0
 490 477 456 421 377 376 c 1
 470 320 510 261 510 185 c 0
 510 61 413 -10 285 -10 c 0
285 439 m 1
 338 470 357 500 357 541 c 0
 357 584 327 611 284 611 c 0
 242 611 213 584 213 541 c 0
 213 495 240 466 285 439 c 1
283 102 m 0
 346 102 378 136 378 187 c 0
 378 234 347 268 278 311 c 1
 219 277 192 238 192 188 c 0
 192 135 226 102 283 102 c 0
EndSplineSet
Validated: 1
Substitution2: "'onum' Oldstyle Figures lookup 33 subtable" eight.osf
Substitution2: "'frac' Diagonal Fractions lookup 27 subtable" eight.numr
Substitution2: "'dnom' Denominators lookup 25 subtable" eight.dnom
Substitution2: "'numr' Numerators lookup 24 subtable" eight.numr
Substitution2: "'sups' Superscript lookup 23 subtable" uni2078
Substitution2: "'subs' Subscript lookup 22 subtable" uni2088
AlternateSubs2: "'aalt' Access All Alternates lookup 1 subtable" uni2078 eight.osf eight.dnom eight.numr uni2088
EndChar

StartChar: nine
Encoding: 57 57 28
Width: 563
Flags: HW
LayerCount: 2
Fore
SplineSet
187 -10 m 0
 158 -10 125 -7 101 -2 c 1
 101 115 l 1
 128 107 156 104 187 104 c 0
 320 104 371 191 379 331 c 1
 374 331 l 1
 346 278 301 250 237 250 c 0
 120 250 58 339 58 476 c 0
 58 627 138 725 278 725 c 0
 421 725 511 609 511 402 c 0
 511 141 414 -10 187 -10 c 0
277 363 m 0
 332 363 369 411 369 474 c 0
 369 537 341 604 280 604 c 0
 227 604 197 562 197 478 c 0
 197 404 223 363 277 363 c 0
EndSplineSet
Validated: 1
Substitution2: "'onum' Oldstyle Figures lookup 33 subtable" nine.osf
Substitution2: "'frac' Diagonal Fractions lookup 27 subtable" nine.numr
Substitution2: "'dnom' Denominators lookup 25 subtable" nine.dnom
Substitution2: "'numr' Numerators lookup 24 subtable" nine.numr
Substitution2: "'sups' Superscript lookup 23 subtable" uni2079
Substitution2: "'subs' Subscript lookup 22 subtable" uni2089
AlternateSubs2: "'aalt' Access All Alternates lookup 1 subtable" uni2079 nine.osf nine.dnom nine.numr uni2089
EndChar

StartChar: colon
Encoding: 58 58 29
Width: 563
Flags: HW
LayerCount: 2
Fore
SplineSet
282 384 m 0
 228 384 197 415 197 469 c 0
 197 525 227 554 282 554 c 0
 335 554 365 523 365 469 c 0
 365 416 334 384 282 384 c 0
282 -10 m 0
 228 -10 197 20 197 74 c 0
 197 130 227 159 282 159 c 0
 335 159 365 129 365 74 c 0
 365 21 334 -10 282 -10 c 0
EndSplineSet
Validated: 1
EndChar

StartChar: semicolon
Encoding: 59 59 30
Width: 563
Flags: HW
LayerCount: 2
Fore
SplineSet
299 384 m 0
 246 384 215 415 215 469 c 0
 215 525 244 554 299 554 c 0
 353 554 383 523 383 469 c 0
 383 416 351 384 299 384 c 0
183 -148 m 1
 203 -64 222 58 233 134 c 1
 364 134 l 1
 371 123 l 1
 354 45 324 -65 287 -148 c 1
 183 -148 l 1
EndSplineSet
Validated: 1
EndChar

StartChar: less
Encoding: 60 60 31
Width: 563
Flags: HW
LayerCount: 2
Fore
SplineSet
489 114 m 1
 68 321 l 1
 68 390 l 1
 489 605 l 1
 489 489 l 1
 216 357 l 1
 489 229 l 1
 489 114 l 1
EndSplineSet
Validated: 1
EndChar

StartChar: equal
Encoding: 61 61 32
Width: 563
Flags: HW
LayerCount: 2
Fore
SplineSet
63 389 m 1
 63 509 l 1
 501 509 l 1
 501 389 l 1
 63 389 l 1
63 176 m 1
 63 296 l 1
 501 296 l 1
 501 176 l 1
 63 176 l 1
EndSplineSet
Validated: 1
Substitution2: "'sups' Superscript lookup 23 subtable" uni207C
Substitution2: "'subs' Subscript lookup 22 subtable" uni208C
AlternateSubs2: "'aalt' Access All Alternates lookup 1 subtable" uni208C uni207C
EndChar

StartChar: greater
Encoding: 62 62 33
Width: 563
Flags: HW
LayerCount: 2
Fore
SplineSet
71 114 m 1
 71 229 l 1
 344 357 l 1
 71 489 l 1
 71 605 l 1
 492 390 l 1
 492 321 l 1
 71 114 l 1
EndSplineSet
Validated: 1
EndChar

StartChar: question
Encoding: 63 63 34
Width: 563
Flags: HW
LayerCount: 2
Fore
SplineSet
196 269 m 2
 196 338 220 377 278 424 c 0
 326 464 350 493 350 540 c 0
 350 585 321 608 272 608 c 0
 229 608 186 592 129 562 c 1
 80 664 l 1
 148 704 212 724 283 724 c 0
 401 724 483 662 483 549 c 0
 483 463 450 423 380 364 c 0
 332 323 315 305 315 260 c 2
 315 233 l 1
 196 233 l 1
 196 269 l 2
257 -10 m 0
 204 -10 172 20 172 74 c 0
 172 130 202 159 257 159 c 0
 310 159 341 129 341 74 c 0
 341 21 309 -10 257 -10 c 0
EndSplineSet
Validated: 1
Substitution2: "'smcp' Lowercase to Small Capitals lookup 35 subtable" question.sc
Substitution2: "'c2sc' Capitals to Small Capitals lookup 34 subtable" question.sc
Substitution2: "'aalt' Access All Alternates lookup 0 subtable" question.sc
EndChar

StartChar: at
Encoding: 64 64 35
Width: 563
Flags: HW
LayerCount: 2
Fore
SplineSet
295 -89 m 0
 108 -89 0 52 0 282 c 0
 0 529 113 714 307 714 c 0
 463 714 563 575 563 365 c 0
 563 222 515 108 429 108 c 0
 386 108 363 133 350 165 c 1
 348 165 l 1
 330 135 303 108 260 108 c 0
 185 108 144 183 144 299 c 0
 144 429 205 520 305 520 c 0
 347 520 388 506 422 493 c 1
 411 296 l 2
 410 286 410 277 410 265 c 0
 410 211 418 193 433 193 c 0
 456 193 470 266 470 363 c 0
 470 540 407 636 307 636 c 0
 175 636 94 493 94 289 c 0
 94 99 163 -10 293 -10 c 0
 348 -10 405 6 457 31 c 1
 457 -49 l 1
 410 -75 358 -89 295 -89 c 0
273 193 m 0
 304 193 315 242 320 326 c 2
 325 429 l 1
 319 432 310 435 302 435 c 0
 256 435 236 372 236 297 c 0
 236 226 248 193 273 193 c 0
EndSplineSet
Validated: 1
EndChar

StartChar: A
Encoding: 65 65 36
Width: 563
GlyphClass: 2
Flags: HW
AnchorPoint: "Anchor-2" 543 714 basechar 0
AnchorPoint: "Anchor-1" 282 714 basechar 0
AnchorPoint: "Anchor-0" 282 0 basechar 0
LayerCount: 2
Fore
SplineSet
10 0 m 1
 189 717 l 1
 373 717 l 1
 553 0 l 1
 414 0 l 1
 375 176 l 1
 187 176 l 1
 148 0 l 1
 10 0 l 1
254 473 m 2
 214 295 l 1
 349 295 l 1
 310 472 l 2
 300 515 290 563 282 606 c 1
 274 563 263 513 254 473 c 2
EndSplineSet
Validated: 1048577
Substitution2: "'c2sc' Capitals to Small Capitals lookup 34 subtable" a.sc
Substitution2: "Single Substitution lookup 32 subtable" ordfeminine
AlternateSubs2: "'aalt' Access All Alternates lookup 1 subtable" ordfeminine a.sc
EndChar

StartChar: B
Encoding: 66 66 37
Width: 563
GlyphClass: 2
Flags: HW
AnchorPoint: "Anchor-2" 543 714 basechar 0
AnchorPoint: "Anchor-1" 282 714 basechar 0
AnchorPoint: "Anchor-0" 282 0 basechar 0
LayerCount: 2
Fore
SplineSet
71 0 m 1
 71 714 l 1
 279 714 l 2
 431 714 512 660 512 538 c 0
 512 452 473 394 409 379 c 1
 409 374 l 1
 483 357 526 305 526 208 c 0
 526 77 443 0 305 0 c 2
 71 0 l 1
278 431 m 2
 343 431 371 459 371 515 c 0
 371 571 341 598 274 598 c 2
 202 598 l 1
 202 431 l 1
 278 431 l 2
289 119 m 2
 355 119 382 155 382 216 c 0
 382 278 354 309 284 309 c 2
 202 309 l 1
 202 119 l 1
 289 119 l 2
EndSplineSet
Validated: 1048577
Substitution2: "'c2sc' Capitals to Small Capitals lookup 34 subtable" b.sc
Substitution2: "'aalt' Access All Alternates lookup 0 subtable" b.sc
EndChar

StartChar: C
Encoding: 67 67 38
Width: 563
GlyphClass: 2
Flags: HW
AnchorPoint: "Anchor-2" 543 714 basechar 0
AnchorPoint: "Anchor-1" 337 714 basechar 0
AnchorPoint: "Anchor-0" 322 0 basechar 0
LayerCount: 2
Fore
SplineSet
337 -12 m 0
 142 -12 45 126 45 347 c 0
 45 575 157 725 361 725 c 0
 426 725 478 710 531 682 c 1
 486 567 l 1
 441 590 402 600 362 600 c 0
 236 600 186 498 186 351 c 0
 186 190 243 113 359 113 c 0
 406 113 447 124 503 151 c 1
 503 24 l 1
 452 0 395 -12 337 -12 c 0
EndSplineSet
Validated: 1048577
Substitution2: "'c2sc' Capitals to Small Capitals lookup 34 subtable" c.sc
Substitution2: "'aalt' Access All Alternates lookup 0 subtable" c.sc
EndChar

StartChar: D
Encoding: 68 68 39
Width: 563
GlyphClass: 2
Flags: HW
AnchorPoint: "Anchor-3" 286 357 basechar 0
AnchorPoint: "Anchor-2" 563 714 basechar 0
AnchorPoint: "Anchor-1" 271 714 basechar 0
AnchorPoint: "Anchor-0" 238 0 basechar 0
LayerCount: 2
Fore
SplineSet
41 0 m 1
 41 714 l 1
 249 714 l 2
 428 714 537 594 537 366 c 0
 537 130 425 0 238 0 c 2
 41 0 l 1
230 122 m 2
 343 122 395 200 395 363 c 0
 395 523 343 592 240 592 c 2
 179 592 l 1
 179 122 l 1
 230 122 l 2
EndSplineSet
Validated: 1
Substitution2: "'c2sc' Capitals to Small Capitals lookup 34 subtable" d.sc
Substitution2: "'aalt' Access All Alternates lookup 0 subtable" d.sc
EndChar

StartChar: E
Encoding: 69 69 40
Width: 563
GlyphClass: 2
Flags: HW
AnchorPoint: "Anchor-2" 543 714 basechar 0
AnchorPoint: "Anchor-1" 287 714 basechar 0
AnchorPoint: "Anchor-0" 286 0 basechar 0
LayerCount: 2
Fore
SplineSet
71 0 m 1
 71 714 l 1
 501 714 l 1
 501 591 l 1
 206 591 l 1
 206 429 l 1
 485 429 l 1
 485 306 l 1
 206 306 l 1
 206 123 l 1
 501 123 l 1
 501 0 l 1
 71 0 l 1
EndSplineSet
Validated: 1048577
Substitution2: "'c2sc' Capitals to Small Capitals lookup 34 subtable" e.sc
Substitution2: "'aalt' Access All Alternates lookup 0 subtable" e.sc
EndChar

StartChar: F
Encoding: 70 70 41
Width: 563
GlyphClass: 2
Flags: HW
AnchorPoint: "Anchor-2" 543 714 basechar 0
AnchorPoint: "Anchor-1" 292 714 basechar 0
AnchorPoint: "Anchor-0" 292 0 basechar 0
LayerCount: 2
Fore
SplineSet
71 0 m 1
 71 714 l 1
 501 714 l 1
 501 591 l 1
 206 591 l 1
 206 400 l 1
 485 400 l 1
 485 277 l 1
 206 277 l 1
 206 0 l 1
 71 0 l 1
EndSplineSet
Validated: 1048577
Substitution2: "'c2sc' Capitals to Small Capitals lookup 34 subtable" f.sc
Substitution2: "'aalt' Access All Alternates lookup 0 subtable" f.sc
EndChar

StartChar: G
Encoding: 71 71 42
Width: 563
GlyphClass: 2
Flags: HW
AnchorPoint: "Anchor-2" 543 714 basechar 0
AnchorPoint: "Anchor-1" 310 714 basechar 0
AnchorPoint: "Anchor-0" 315 0 basechar 0
LayerCount: 2
Fore
SplineSet
326 -10 m 0
 118 -10 26 130 26 348 c 0
 26 586 135 724 332 724 c 0
 399 724 463 708 518 680 c 1
 474 565 l 1
 433 591 388 601 347 601 c 0
 224 601 166 511 166 353 c 0
 166 210 215 112 322 112 c 0
 349 112 374 117 397 122 c 1
 397 283 l 1
 303 283 l 1
 303 402 l 1
 522 402 l 1
 522 30 l 1
 455 1 398 -10 326 -10 c 0
EndSplineSet
Validated: 1048577
Substitution2: "'c2sc' Capitals to Small Capitals lookup 34 subtable" g.sc
Substitution2: "'aalt' Access All Alternates lookup 0 subtable" g.sc
EndChar

StartChar: H
Encoding: 72 72 43
Width: 563
GlyphClass: 2
Flags: HW
AnchorPoint: "Anchor-3" 282 372 basechar 0
AnchorPoint: "Anchor-2" 563 714 basechar 0
AnchorPoint: "Anchor-1" 282 714 basechar 0
AnchorPoint: "Anchor-0" 282 0 basechar 0
LayerCount: 2
Fore
SplineSet
41 0 m 1
 41 714 l 1
 180 714 l 1
 180 434 l 1
 383 434 l 1
 383 714 l 1
 522 714 l 1
 522 0 l 1
 383 0 l 1
 383 309 l 1
 180 309 l 1
 180 0 l 1
 41 0 l 1
EndSplineSet
Validated: 1
Substitution2: "'c2sc' Capitals to Small Capitals lookup 34 subtable" h.sc
Substitution2: "'aalt' Access All Alternates lookup 0 subtable" h.sc
EndChar

StartChar: I
Encoding: 73 73 44
Width: 563
GlyphClass: 2
Flags: HW
AnchorPoint: "Anchor-2" 543 714 basechar 0
AnchorPoint: "Anchor-1" 282 714 basechar 0
AnchorPoint: "Anchor-0" 282 0 basechar 0
LayerCount: 2
Fore
SplineSet
79 0 m 1
 79 100 l 1
 214 115 l 1
 214 600 l 1
 79 614 l 1
 79 714 l 1
 484 714 l 1
 484 614 l 1
 347 600 l 1
 347 115 l 1
 484 100 l 1
 484 0 l 1
 79 0 l 1
EndSplineSet
Validated: 1048577
Substitution2: "'c2sc' Capitals to Small Capitals lookup 34 subtable" i.sc
Substitution2: "'aalt' Access All Alternates lookup 0 subtable" i.sc
EndChar

StartChar: J
Encoding: 74 74 45
Width: 563
GlyphClass: 2
Flags: HW
AnchorPoint: "Anchor-2" 543 714 basechar 0
AnchorPoint: "Anchor-1" 391 714 basechar 0
AnchorPoint: "Anchor-0" 282 0 basechar 0
LayerCount: 2
Fore
SplineSet
216 -10 m 0
 171 -10 118 -4 70 11 c 1
 70 133 l 1
 125 117 172 112 205 112 c 0
 292 112 324 153 324 248 c 2
 324 714 l 1
 461 714 l 1
 461 240 l 2
 461 78 388 -10 216 -10 c 0
EndSplineSet
Validated: 1048577
Substitution2: "'c2sc' Capitals to Small Capitals lookup 34 subtable" j.sc
Substitution2: "'aalt' Access All Alternates lookup 0 subtable" j.sc
EndChar

StartChar: K
Encoding: 75 75 46
Width: 563
GlyphClass: 2
Flags: HW
AnchorPoint: "Anchor-2" 543 714 basechar 0
AnchorPoint: "Anchor-1" 282 714 basechar 0
AnchorPoint: "Anchor-0" 289 0 basechar 0
LayerCount: 2
Fore
SplineSet
41 0 m 1
 41 714 l 1
 178 714 l 1
 178 374 l 1
 196 412 213 441 236 477 c 2
 385 714 l 1
 539 714 l 1
 332 394 l 1
 536 0 l 1
 380 0 l 1
 233 291 l 1
 178 238 l 1
 178 0 l 1
 41 0 l 1
EndSplineSet
Validated: 1048577
Substitution2: "'c2sc' Capitals to Small Capitals lookup 34 subtable" k.sc
Substitution2: "'aalt' Access All Alternates lookup 0 subtable" k.sc
EndChar

StartChar: L
Encoding: 76 76 47
Width: 563
GlyphClass: 2
Flags: HW
AnchorPoint: "Anchor-3" 282 357 basechar 0
AnchorPoint: "Anchor-2" 423 714 basechar 0
AnchorPoint: "Anchor-1" 149 714 basechar 0
AnchorPoint: "Anchor-0" 308 0 basechar 0
LayerCount: 2
Fore
SplineSet
81 0 m 1
 81 714 l 1
 220 714 l 1
 220 124 l 1
 501 124 l 1
 501 0 l 1
 81 0 l 1
EndSplineSet
Validated: 1
Substitution2: "'c2sc' Capitals to Small Capitals lookup 34 subtable" l.sc
Substitution2: "'aalt' Access All Alternates lookup 0 subtable" l.sc
EndChar

StartChar: M
Encoding: 77 77 48
Width: 563
GlyphClass: 2
Flags: HW
AnchorPoint: "Anchor-2" 563 714 basechar 0
AnchorPoint: "Anchor-1" 283 714 basechar 0
AnchorPoint: "Anchor-0" 282 0 basechar 0
LayerCount: 2
Fore
SplineSet
33 0 m 1
 33 714 l 1
 228 714 l 1
 278 310 l 1
 283 310 l 1
 340 714 l 1
 530 714 l 1
 530 0 l 1
 404 0 l 1
 404 173 l 2
 404 304 424 552 426 590 c 1
 419 590 l 1
 350 172 l 1
 213 172 l 1
 140 590 l 1
 134 590 l 1
 137 547 158 306 158 165 c 2
 158 0 l 1
 33 0 l 1
EndSplineSet
Validated: 1048577
Substitution2: "'c2sc' Capitals to Small Capitals lookup 34 subtable" m.sc
Substitution2: "'aalt' Access All Alternates lookup 0 subtable" m.sc
EndChar

StartChar: N
Encoding: 78 78 49
Width: 563
GlyphClass: 2
Flags: HW
AnchorPoint: "Anchor-2" 563 714 basechar 0
AnchorPoint: "Anchor-1" 287 714 basechar 0
AnchorPoint: "Anchor-0" 282 0 basechar 0
LayerCount: 2
Fore
SplineSet
41 0 m 1
 41 714 l 1
 238 714 l 1
 401 137 l 1
 406 137 l 1
 400 221 394 332 394 382 c 2
 394 714 l 1
 522 714 l 1
 522 0 l 1
 327 0 l 1
 163 581 l 1
 158 581 l 1
 164 494 169 399 169 355 c 2
 169 0 l 1
 41 0 l 1
EndSplineSet
Validated: 1048577
Substitution2: "'c2sc' Capitals to Small Capitals lookup 34 subtable" n.sc
Substitution2: "'aalt' Access All Alternates lookup 0 subtable" n.sc
EndChar

StartChar: O
Encoding: 79 79 50
Width: 563
GlyphClass: 2
Flags: HW
AnchorPoint: "Anchor-3" 282 357 basechar 0
AnchorPoint: "Anchor-2" 563 714 basechar 0
AnchorPoint: "Anchor-1" 282 714 basechar 0
AnchorPoint: "Anchor-0" 282 0 basechar 0
LayerCount: 2
Fore
SplineSet
282 -9 m 0
 106 -9 26 131 26 358 c 0
 26 593 109 726 282 726 c 0
 457 726 537 587 537 358 c 0
 537 130 457 -9 282 -9 c 0
282 113 m 0
 361 113 395 196 395 359 c 0
 395 521 362 604 282 604 c 0
 202 604 168 518 168 358 c 0
 168 198 201 113 282 113 c 0
EndSplineSet
Validated: 1
Substitution2: "'c2sc' Capitals to Small Capitals lookup 34 subtable" o.sc
Substitution2: "Single Substitution lookup 32 subtable" ordmasculine
AlternateSubs2: "'aalt' Access All Alternates lookup 1 subtable" ordmasculine o.sc
EndChar

StartChar: P
Encoding: 80 80 51
Width: 563
GlyphClass: 2
Flags: HW
AnchorPoint: "Anchor-2" 563 714 basechar 0
AnchorPoint: "Anchor-1" 282 714 basechar 0
AnchorPoint: "Anchor-0" 282 0 basechar 0
LayerCount: 2
Fore
SplineSet
71 0 m 1
 71 714 l 1
 293 714 l 2
 450 714 526 635 526 492 c 0
 526 349 453 254 285 254 c 2
 206 254 l 1
 206 0 l 1
 71 0 l 1
270 376 m 2
 346 376 387 412 387 488 c 0
 387 560 353 593 285 593 c 2
 206 593 l 1
 206 376 l 1
 270 376 l 2
EndSplineSet
Validated: 1048577
Substitution2: "'c2sc' Capitals to Small Capitals lookup 34 subtable" p.sc
Substitution2: "'aalt' Access All Alternates lookup 0 subtable" p.sc
EndChar

StartChar: Q
Encoding: 81 81 52
Width: 563
GlyphClass: 2
Flags: HW
AnchorPoint: "Anchor-3" 282 357 basechar 0
AnchorPoint: "Anchor-2" 563 714 basechar 0
AnchorPoint: "Anchor-1" 282 714 basechar 0
AnchorPoint: "Anchor-0" 282 -220 basechar 0
LayerCount: 2
Fore
SplineSet
282 -9 m 0
 106 -9 26 131 26 358 c 0
 26 593 109 726 282 726 c 0
 457 726 537 587 537 358 c 0
 537 203 500 90 422 32 c 1
 525 -180 l 1
 375 -180 l 1
 301 -9 l 1
 294 -9 288 -9 282 -9 c 0
282 113 m 0
 361 113 395 196 395 359 c 0
 395 521 362 604 282 604 c 0
 202 604 168 518 168 358 c 0
 168 198 201 113 282 113 c 0
EndSplineSet
Validated: 1
Substitution2: "'c2sc' Capitals to Small Capitals lookup 34 subtable" q.sc
Substitution2: "'aalt' Access All Alternates lookup 0 subtable" q.sc
EndChar

StartChar: R
Encoding: 82 82 53
Width: 563
GlyphClass: 2
Flags: HW
AnchorPoint: "Anchor-2" 543 714 basechar 0
AnchorPoint: "Anchor-1" 282 714 basechar 0
AnchorPoint: "Anchor-0" 303 0 basechar 0
LayerCount: 2
Fore
SplineSet
71 0 m 1
 71 714 l 1
 258 714 l 2
 422 714 508 638 508 503 c 0
 508 408 466 342 391 304 c 1
 550 0 l 1
 401 0 l 1
 269 271 l 1
 210 271 l 1
 210 0 l 1
 71 0 l 1
255 392 m 2
 329 392 367 426 367 495 c 0
 367 565 328 594 254 594 c 2
 210 594 l 1
 210 392 l 1
 255 392 l 2
EndSplineSet
Validated: 1048577
Substitution2: "'c2sc' Capitals to Small Capitals lookup 34 subtable" r.sc
Substitution2: "'aalt' Access All Alternates lookup 0 subtable" r.sc
EndChar

StartChar: S
Encoding: 83 83 54
Width: 563
GlyphClass: 2
Flags: HW
AnchorPoint: "Anchor-2" 543 714 basechar 0
AnchorPoint: "Anchor-1" 294 714 basechar 0
AnchorPoint: "Anchor-0" 282 0 basechar 0
LayerCount: 2
Fore
SplineSet
255 -10 m 0
 188 -10 121 4 62 32 c 1
 62 165 l 1
 131 130 193 110 257 110 c 0
 327 110 369 134 369 192 c 0
 369 253 320 270 232 317 c 0
 146 363 70 414 70 530 c 0
 70 655 159 724 302 724 c 0
 359 724 431 713 500 679 c 1
 455 565 l 1
 395 593 347 604 307 604 c 0
 243 604 212 577 212 528 c 0
 212 469 254 453 340 409 c 0
 450 353 512 310 512 201 c 0
 512 66 413 -10 255 -10 c 0
EndSplineSet
Validated: 1048577
Substitution2: "'c2sc' Capitals to Small Capitals lookup 34 subtable" s.sc
Substitution2: "'aalt' Access All Alternates lookup 0 subtable" s.sc
EndChar

StartChar: T
Encoding: 84 84 55
Width: 563
GlyphClass: 2
Flags: HW
AnchorPoint: "Anchor-3" 282 357 basechar 0
AnchorPoint: "Anchor-2" 543 714 basechar 0
AnchorPoint: "Anchor-1" 282 714 basechar 0
AnchorPoint: "Anchor-0" 282 0 basechar 0
LayerCount: 2
Fore
SplineSet
212 0 m 1
 212 591 l 1
 28 591 l 1
 28 714 l 1
 535 714 l 1
 535 591 l 1
 351 591 l 1
 351 0 l 1
 212 0 l 1
EndSplineSet
Validated: 1
Substitution2: "'c2sc' Capitals to Small Capitals lookup 34 subtable" t.sc
Substitution2: "'aalt' Access All Alternates lookup 0 subtable" t.sc
EndChar

StartChar: U
Encoding: 85 85 56
Width: 563
GlyphClass: 2
Flags: HW
AnchorPoint: "Anchor-2" 543 714 basechar 0
AnchorPoint: "Anchor-1" 282 714 basechar 0
AnchorPoint: "Anchor-0" 282 0 basechar 0
LayerCount: 2
Fore
SplineSet
279 -10 m 0
 124 -10 41 77 41 231 c 2
 41 714 l 1
 180 714 l 1
 180 255 l 2
 180 152 213 112 281 112 c 0
 353 112 383 153 383 256 c 2
 383 714 l 1
 522 714 l 1
 522 229 l 2
 522 82 441 -10 279 -10 c 0
EndSplineSet
Validated: 1048577
Substitution2: "'c2sc' Capitals to Small Capitals lookup 34 subtable" u.sc
Substitution2: "'aalt' Access All Alternates lookup 0 subtable" u.sc
EndChar

StartChar: V
Encoding: 86 86 57
Width: 563
GlyphClass: 2
Flags: HW
AnchorPoint: "Anchor-2" 543 714 basechar 0
AnchorPoint: "Anchor-1" 282 714 basechar 0
AnchorPoint: "Anchor-0" 282 0 basechar 0
LayerCount: 2
Fore
SplineSet
204 0 m 1
 10 714 l 1
 153 714 l 1
 251 291 l 2
 260 254 276 173 281 130 c 1
 287 130 l 1
 293 174 307 252 315 291 c 2
 410 714 l 1
 553 714 l 1
 359 0 l 1
 204 0 l 1
EndSplineSet
Validated: 1048577
Substitution2: "'c2sc' Capitals to Small Capitals lookup 34 subtable" v.sc
Substitution2: "'aalt' Access All Alternates lookup 0 subtable" v.sc
EndChar

StartChar: W
Encoding: 87 87 58
Width: 563
GlyphClass: 2
Flags: HW
AnchorPoint: "Anchor-2" 543 714 basechar 0
AnchorPoint: "Anchor-1" 282 714 basechar 0
AnchorPoint: "Anchor-0" 282 0 basechar 0
LayerCount: 2
Fore
SplineSet
54 0 m 1
 10 714 l 1
 132 714 l 1
 152 472 154 359 154 294 c 0
 154 231 154 171 152 121 c 1
 159 121 l 1
 167 189 179 283 184 320 c 2
 218 546 l 1
 347 546 l 1
 379 319 l 2
 387 262 399 184 407 120 c 1
 414 120 l 1
 412 186 410 271 410 316 c 0
 410 396 415 487 429 714 c 1
 553 714 l 1
 511 0 l 1
 333 0 l 1
 301 245 l 2
 295 287 290 347 285 400 c 1
 279 400 l 1
 275 348 268 286 262 245 c 2
 230 0 l 1
 54 0 l 1
EndSplineSet
Validated: 1048577
Substitution2: "'c2sc' Capitals to Small Capitals lookup 34 subtable" w.sc
Substitution2: "'aalt' Access All Alternates lookup 0 subtable" w.sc
EndChar

StartChar: X
Encoding: 88 88 59
Width: 563
GlyphClass: 2
Flags: HW
AnchorPoint: "Anchor-2" 543 714 basechar 0
AnchorPoint: "Anchor-1" 282 714 basechar 0
AnchorPoint: "Anchor-0" 282 0 basechar 0
LayerCount: 2
Fore
SplineSet
16 0 m 1
 208 367 l 1
 29 714 l 1
 175 714 l 1
 282 479 l 1
 385 714 l 1
 533 714 l 1
 353 367 l 1
 547 0 l 1
 398 0 l 1
 280 255 l 1
 162 0 l 1
 16 0 l 1
EndSplineSet
Validated: 1048577
Substitution2: "'c2sc' Capitals to Small Capitals lookup 34 subtable" x.sc
Substitution2: "'aalt' Access All Alternates lookup 0 subtable" x.sc
EndChar

StartChar: Y
Encoding: 89 89 60
Width: 563
GlyphClass: 2
Flags: HW
AnchorPoint: "Anchor-2" 543 714 basechar 0
AnchorPoint: "Anchor-1" 282 714 basechar 0
AnchorPoint: "Anchor-0" 282 0 basechar 0
LayerCount: 2
Fore
SplineSet
213 0 m 1
 213 277 l 1
 16 714 l 1
 167 714 l 1
 283 412 l 1
 396 714 l 1
 547 714 l 1
 351 277 l 1
 351 0 l 1
 213 0 l 1
EndSplineSet
Validated: 1048577
Substitution2: "'c2sc' Capitals to Small Capitals lookup 34 subtable" y.sc
Substitution2: "'aalt' Access All Alternates lookup 0 subtable" y.sc
EndChar

StartChar: Z
Encoding: 90 90 61
Width: 563
GlyphClass: 2
Flags: HW
AnchorPoint: "Anchor-2" 543 714 basechar 0
AnchorPoint: "Anchor-1" 292 714 basechar 0
AnchorPoint: "Anchor-0" 296 0 basechar 0
LayerCount: 2
Fore
SplineSet
71 0 m 1
 71 98 l 1
 342 592 l 1
 90 592 l 1
 90 714 l 1
 497 714 l 1
 497 616 l 1
 225 123 l 1
 503 123 l 1
 503 0 l 1
 71 0 l 1
EndSplineSet
Validated: 1048577
Substitution2: "'c2sc' Capitals to Small Capitals lookup 34 subtable" z.sc
Substitution2: "'aalt' Access All Alternates lookup 0 subtable" z.sc
EndChar

StartChar: bracketleft
Encoding: 91 91 62
Width: 563
Flags: HW
LayerCount: 2
Fore
SplineSet
210 -163 m 1
 210 723 l 1
 445 723 l 1
 445 623 l 1
 331 623 l 1
 331 -62 l 1
 445 -62 l 1
 445 -163 l 1
 210 -163 l 1
EndSplineSet
Validated: 1
Substitution2: "'smcp' Lowercase to Small Capitals lookup 35 subtable" bracketleft.sc
Substitution2: "'c2sc' Capitals to Small Capitals lookup 34 subtable" bracketleft.sc
Substitution2: "'aalt' Access All Alternates lookup 0 subtable" bracketleft.sc
EndChar

StartChar: backslash
Encoding: 92 92 63
Width: 563
Flags: HW
LayerCount: 2
Fore
SplineSet
478 -5 m 1
 358 -5 l 1
 85 719 l 1
 204 719 l 1
 478 -5 l 1
EndSplineSet
Validated: 1
EndChar

StartChar: bracketright
Encoding: 93 93 64
Width: 563
Flags: HW
LayerCount: 2
Fore
SplineSet
354 725 m 1
 354 -161 l 1
 119 -161 l 1
 119 -61 l 1
 233 -61 l 1
 233 625 l 1
 119 625 l 1
 119 725 l 1
 354 725 l 1
EndSplineSet
Validated: 1
Substitution2: "'smcp' Lowercase to Small Capitals lookup 35 subtable" bracketright.sc
Substitution2: "'c2sc' Capitals to Small Capitals lookup 34 subtable" bracketright.sc
Substitution2: "'aalt' Access All Alternates lookup 0 subtable" bracketright.sc
EndChar

StartChar: asciicircum
Encoding: 94 94 65
Width: 563
Flags: HW
LayerCount: 2
Fore
SplineSet
30 273 m 1
 243 715 l 1
 311 715 l 1
 533 273 l 1
 416 273 l 1
 278 553 l 1
 146 273 l 1
 30 273 l 1
EndSplineSet
Validated: 1
EndChar

StartChar: underscore
Encoding: 95 95 66
Width: 563
Flags: HW
LayerCount: 2
Fore
SplineSet
0 -188 m 1
 0 -68 l 1
 563 -68 l 1
 563 -188 l 1
 0 -188 l 1
EndSplineSet
Validated: 1
EndChar

StartChar: grave
Encoding: 96 96 67
Width: 563
Flags: HW
LayerCount: 2
Fore
SplineSet
280 606 m 1
 239 638 157 720 127 757 c 1
 127 766 l 1
 279 766 l 1
 301 723 347 652 372 619 c 1
 372 606 l 1
 280 606 l 1
EndSplineSet
Validated: 1
EndChar

StartChar: a
Encoding: 97 97 68
Width: 563
GlyphClass: 2
Flags: HW
AnchorPoint: "Anchor-2" 543 546 basechar 0
AnchorPoint: "Anchor-1" 292 546 basechar 0
AnchorPoint: "Anchor-0" 288 0 basechar 0
LayerCount: 2
Fore
SplineSet
213 -10 m 0
 107 -10 50 55 50 158 c 0
 50 277 123 332 263 336 c 2
 371 339 l 1
 371 362 l 2
 371 414 337 440 269 440 c 0
 228 440 182 431 126 407 c 1
 79 508 l 1
 142 541 204 556 277 556 c 0
 425 556 504 493 504 364 c 2
 504 0 l 1
 401 0 l 1
 376 70 l 1
 373 70 l 1
 326 11 274 -10 213 -10 c 0
262 105 m 0
 322 105 371 144 371 208 c 2
 371 253 l 1
 300 251 l 2
 227 249 188 223 188 170 c 0
 188 125 220 105 262 105 c 0
EndSplineSet
Validated: 1048577
Substitution2: "'smcp' Lowercase to Small Capitals lookup 35 subtable" a.sc
Substitution2: "Single Substitution lookup 32 subtable" ordfeminine
AlternateSubs2: "'aalt' Access All Alternates lookup 1 subtable" ordfeminine a.sc
EndChar

StartChar: b
Encoding: 98 98 69
Width: 563
GlyphClass: 2
Flags: HW
AnchorPoint: "Anchor-2" 543 760 basechar 0
AnchorPoint: "Anchor-1" 282 760 basechar 0
AnchorPoint: "Anchor-0" 282 0 basechar 0
LayerCount: 2
Fore
SplineSet
338 -10 m 0
 278 -10 224 14 188 60 c 1
 178 60 l 1
 156 0 l 1
 51 0 l 1
 51 760 l 1
 188 760 l 1
 188 583 l 2
 188 560 186 523 182 475 c 1
 188 475 l 1
 221 528 277 556 341 556 c 0
 471 556 527 432 527 275 c 0
 527 113 468 -10 338 -10 c 0
286 109 m 0
 350 109 384 167 384 276 c 0
 384 385 350 437 286 437 c 0
 226 437 188 391 188 275 c 0
 188 161 225 109 286 109 c 0
EndSplineSet
Validated: 1048577
Substitution2: "'smcp' Lowercase to Small Capitals lookup 35 subtable" b.sc
Substitution2: "'aalt' Access All Alternates lookup 0 subtable" b.sc
EndChar

StartChar: c
Encoding: 99 99 70
Width: 563
GlyphClass: 2
Flags: HW
AnchorPoint: "Anchor-2" 543 546 basechar 0
AnchorPoint: "Anchor-1" 310 546 basechar 0
AnchorPoint: "Anchor-0" 317 0 basechar 0
LayerCount: 2
Fore
SplineSet
321 -10 m 0
 148 -10 65 83 65 266 c 0
 65 458 155 556 327 556 c 0
 382 556 441 546 496 521 c 1
 454 409 l 1
 406 430 369 436 338 436 c 0
 251 436 206 380 206 272 c 0
 206 159 256 111 339 111 c 0
 377 111 424 121 480 154 c 1
 480 27 l 1
 423 -2 372 -10 321 -10 c 0
EndSplineSet
Validated: 1048577
Substitution2: "'smcp' Lowercase to Small Capitals lookup 35 subtable" c.sc
Substitution2: "'aalt' Access All Alternates lookup 0 subtable" c.sc
EndChar

StartChar: d
Encoding: 100 100 71
Width: 563
GlyphClass: 2
Flags: HW
AnchorPoint: "Anchor-3" 282 273 basechar 0
AnchorPoint: "Anchor-2" 543 760 basechar 0
AnchorPoint: "Anchor-1" 282 760 basechar 0
AnchorPoint: "Anchor-0" 282 0 basechar 0
LayerCount: 2
Fore
SplineSet
223 -10 m 0
 91 -10 36 112 36 272 c 0
 36 437 96 556 232 556 c 0
 298 556 348 528 382 476 c 1
 386 476 l 1
 379 514 375 551 375 589 c 2
 375 760 l 1
 512 760 l 1
 512 0 l 1
 409 0 l 1
 379 71 l 1
 373 71 l 1
 338 18 286 -10 223 -10 c 0
283 109 m 0
 354 109 387 160 387 254 c 2
 387 271 l 2
 387 368 366 437 286 437 c 0
 212 437 179 379 179 269 c 0
 179 157 213 109 283 109 c 0
EndSplineSet
Validated: 1
Substitution2: "'smcp' Lowercase to Small Capitals lookup 35 subtable" d.sc
Substitution2: "'aalt' Access All Alternates lookup 0 subtable" d.sc
EndChar

StartChar: e
Encoding: 101 101 72
Width: 563
GlyphClass: 2
Flags: HW
AnchorPoint: "Anchor-2" 543 546 basechar 0
AnchorPoint: "Anchor-1" 291 546 basechar 0
AnchorPoint: "Anchor-0" 292 0 basechar 0
LayerCount: 2
Fore
SplineSet
324 -10 m 0
 144 -10 45 92 45 275 c 0
 45 449 133 556 290 556 c 0
 434 556 519 467 519 306 c 2
 519 232 l 1
 184 232 l 1
 188 151 251 108 338 108 c 0
 395 108 448 124 499 145 c 1
 499 29 l 1
 452 4 392 -10 324 -10 c 0
388 330 m 1
 387 404 347 444 291 444 c 0
 235 444 192 406 186 330 c 1
 388 330 l 1
EndSplineSet
Validated: 1048577
Substitution2: "'smcp' Lowercase to Small Capitals lookup 35 subtable" e.sc
Substitution2: "'aalt' Access All Alternates lookup 0 subtable" e.sc
EndChar

StartChar: f
Encoding: 102 102 73
Width: 563
GlyphClass: 2
Flags: HW
AnchorPoint: "Anchor-2" 556 765 basechar 0
AnchorPoint: "Anchor-1" 366 762 basechar 0
AnchorPoint: "Anchor-0" 282 0 basechar 0
LayerCount: 2
Fore
SplineSet
195 0 m 1
 195 428 l 1
 58 428 l 1
 58 513 l 1
 195 546 l 1
 195 581 l 2
 195 708 255 765 388 765 c 0
 440 765 491 757 540 742 c 1
 502 629 l 1
 469 640 436 643 416 643 c 0
 358 643 334 617 334 569 c 2
 334 546 l 1
 500 546 l 1
 500 428 l 1
 334 428 l 1
 334 0 l 1
 195 0 l 1
EndSplineSet
Validated: 1048577
Substitution2: "'smcp' Lowercase to Small Capitals lookup 35 subtable" f.sc
Substitution2: "'aalt' Access All Alternates lookup 0 subtable" f.sc
EndChar

StartChar: g
Encoding: 103 103 74
Width: 563
GlyphClass: 2
Flags: HW
AnchorPoint: "Anchor-2" 543 546 basechar 0
AnchorPoint: "Anchor-1" 282 546 basechar 0
AnchorPoint: "Anchor-0" 282 -245 basechar 0
LayerCount: 2
Fore
SplineSet
244 -245 m 0
 189 -245 131 -237 70 -213 c 1
 70 -81 l 1
 135 -109 194 -123 249 -123 c 0
 333 -122 370 -86 370 -8 c 2
 370 4 l 2
 370 26 372 50 373 68 c 1
 369 68 l 1
 335 13 289 -10 230 -10 c 0
 108 -10 36 95 36 273 c 0
 36 452 110 557 229 557 c 0
 290 557 337 529 372 476 c 1
 376 476 l 1
 399 546 l 1
 512 546 l 1
 512 -1 l 2
 512 -158 429 -245 244 -245 c 0
282 109 m 0
 346 109 379 158 379 252 c 2
 379 271 l 2
 379 388 348 437 280 437 c 0
 212 437 179 380 179 273 c 0
 179 167 212 109 282 109 c 0
EndSplineSet
Validated: 1048577
Substitution2: "'smcp' Lowercase to Small Capitals lookup 35 subtable" g.sc
Substitution2: "'aalt' Access All Alternates lookup 0 subtable" g.sc
EndChar

StartChar: h
Encoding: 104 104 75
Width: 563
GlyphClass: 2
Flags: HW
AnchorPoint: "Anchor-3" 282 273 basechar 0
AnchorPoint: "Anchor-2" 543 760 basechar 0
AnchorPoint: "Anchor-1" 123 760 basechar 0
AnchorPoint: "Anchor-0" 282 0 basechar 0
LayerCount: 2
Fore
SplineSet
51 0 m 1
 51 760 l 1
 190 760 l 1
 190 601 l 2
 190 559 188 518 185 476 c 1
 194 476 l 1
 224 528 270 556 342 556 c 0
 456 556 517 486 517 356 c 2
 517 0 l 1
 378 0 l 1
 378 320 l 2
 378 404 351 437 294 437 c 0
 219 437 190 380 190 258 c 2
 190 0 l 1
 51 0 l 1
EndSplineSet
Validated: 1
Substitution2: "'smcp' Lowercase to Small Capitals lookup 35 subtable" h.sc
Substitution2: "'subs' Subscript lookup 22 subtable" uni2095
AlternateSubs2: "'aalt' Access All Alternates lookup 1 subtable" h.sc uni2095
EndChar

StartChar: i
Encoding: 105 105 76
Width: 563
GlyphClass: 2
Flags: HW
AnchorPoint: "Anchor-3" 291 291 basechar 0
AnchorPoint: "Anchor-2" 479 774 basechar 0
AnchorPoint: "Anchor-1" 295 774 basechar 0
AnchorPoint: "Anchor-0" 296 0 basechar 0
LayerCount: 2
Fore
SplineSet
293 611 m 0
 240 611 209 639 209 693 c 0
 209 746 238 774 295 774 c 0
 351 774 379 746 379 693 c 0
 379 641 352 611 293 611 c 0
58 0 m 1
 58 92 l 1
 225 115 l 1
 225 431 l 1
 82 446 l 1
 82 546 l 1
 364 546 l 1
 364 115 l 1
 512 92 l 1
 512 0 l 1
 58 0 l 1
EndSplineSet
Validated: 1
Substitution2: "'smcp' Lowercase to Small Capitals lookup 35 subtable" i.sc
Substitution2: "Single Substitution lookup 5 subtable" dotlessi
Substitution2: "Single Substitution lookup 4 subtable" dotlessi
AlternateSubs2: "'aalt' Access All Alternates lookup 1 subtable" dotlessi i.sc
EndChar

StartChar: j
Encoding: 106 106 77
Width: 563
GlyphClass: 2
Flags: HW
AnchorPoint: "Anchor-2" 483 774 basechar 0
AnchorPoint: "Anchor-1" 321 774 basechar 0
AnchorPoint: "Anchor-0" 194 -245 basechar 0
LayerCount: 2
Fore
SplineSet
324 611 m 0
 270 611 240 639 240 693 c 0
 240 746 268 774 325 774 c 0
 382 774 409 746 409 693 c 0
 409 641 382 611 324 611 c 0
184 -245 m 0
 139 -245 87 -238 38 -223 c 1
 38 -104 l 1
 82 -117 130 -123 161 -123 c 0
 234 -123 266 -91 266 -4 c 2
 266 431 l 1
 113 446 l 1
 113 546 l 1
 405 546 l 1
 405 -28 l 2
 405 -177 336 -245 184 -245 c 0
EndSplineSet
Validated: 1048577
Substitution2: "'smcp' Lowercase to Small Capitals lookup 35 subtable" j.sc
Substitution2: "Single Substitution lookup 5 subtable" uni0237
Substitution2: "Single Substitution lookup 4 subtable" uni0237
AlternateSubs2: "'aalt' Access All Alternates lookup 1 subtable" uni0237 j.sc
EndChar

StartChar: k
Encoding: 107 107 78
Width: 563
GlyphClass: 2
Flags: HW
AnchorPoint: "Anchor-2" 447 860 basechar 0
AnchorPoint: "Anchor-1" 318 760 basechar 0
AnchorPoint: "Anchor-0" 300 0 basechar 0
LayerCount: 2
Fore
SplineSet
55 0 m 1
 55 760 l 1
 194 760 l 1
 194 415 l 2
 194 373 191 339 186 297 c 1
 189 297 l 1
 207 324 228 352 251 382 c 2
 378 546 l 1
 539 546 l 1
 359 322 l 1
 550 0 l 1
 397 0 l 1
 266 228 l 1
 194 165 l 1
 194 0 l 1
 55 0 l 1
EndSplineSet
Validated: 1048577
Substitution2: "'smcp' Lowercase to Small Capitals lookup 35 subtable" k.sc
Substitution2: "'subs' Subscript lookup 22 subtable" uni2096
AlternateSubs2: "'aalt' Access All Alternates lookup 1 subtable" k.sc uni2096
EndChar

StartChar: l
Encoding: 108 108 79
Width: 563
GlyphClass: 2
Flags: HW
AnchorPoint: "Anchor-3" 294 374 basechar 0
AnchorPoint: "Anchor-2" 472 760 basechar 0
AnchorPoint: "Anchor-1" 282 760 basechar 0
AnchorPoint: "Anchor-0" 294 0 basechar 0
LayerCount: 2
Fore
SplineSet
58 0 m 1
 58 92 l 1
 222 115 l 1
 222 645 l 1
 90 668 l 1
 90 760 l 1
 361 760 l 1
 361 115 l 1
 512 92 l 1
 512 0 l 1
 58 0 l 1
EndSplineSet
Validated: 1
Substitution2: "'smcp' Lowercase to Small Capitals lookup 35 subtable" l.sc
Substitution2: "'subs' Subscript lookup 22 subtable" uni2097
AlternateSubs2: "'aalt' Access All Alternates lookup 1 subtable" l.sc uni2097
EndChar

StartChar: m
Encoding: 109 109 80
Width: 563
GlyphClass: 2
Flags: HW
AnchorPoint: "Anchor-2" 543 546 basechar 0
AnchorPoint: "Anchor-1" 312 546 basechar 0
AnchorPoint: "Anchor-0" 291 0 basechar 0
LayerCount: 2
Fore
SplineSet
25 0 m 1
 25 546 l 1
 121 546 l 1
 136 480 l 1
 144 480 l 1
 162 532 190 556 241 556 c 0
 297 556 321 523 331 473 c 1
 336 473 l 1
 357 524 384 556 441 556 c 0
 520 556 539 499 539 378 c 2
 539 0 l 1
 419 0 l 1
 419 383 l 2
 419 421 413 441 386 441 c 0
 352 441 343 417 343 356 c 2
 343 0 l 1
 221 0 l 1
 221 383 l 2
 221 423 215 441 188 441 c 0
 153 441 145 415 145 353 c 2
 145 0 l 1
 25 0 l 1
EndSplineSet
Validated: 1048577
Substitution2: "'smcp' Lowercase to Small Capitals lookup 35 subtable" m.sc
Substitution2: "'subs' Subscript lookup 22 subtable" uni2098
AlternateSubs2: "'aalt' Access All Alternates lookup 1 subtable" m.sc uni2098
EndChar

StartChar: n
Encoding: 110 110 81
Width: 563
GlyphClass: 2
Flags: HW
AnchorPoint: "Anchor-2" 543 546 basechar 0
AnchorPoint: "Anchor-1" 288 546 basechar 0
AnchorPoint: "Anchor-0" 286 0 basechar 0
LayerCount: 2
Fore
SplineSet
51 0 m 1
 51 546 l 1
 159 546 l 1
 181 479 l 1
 188 479 l 1
 218 529 269 556 342 556 c 0
 457 556 517 490 517 362 c 2
 517 0 l 1
 378 0 l 1
 378 325 l 2
 378 403 350 439 293 439 c 0
 219 439 190 378 190 268 c 2
 190 0 l 1
 51 0 l 1
EndSplineSet
Validated: 1048577
Substitution2: "'smcp' Lowercase to Small Capitals lookup 35 subtable" n.sc
Substitution2: "'sups' Superscript lookup 23 subtable" uni207F
Substitution2: "'subs' Subscript lookup 22 subtable" uni2099
AlternateSubs2: "'aalt' Access All Alternates lookup 1 subtable" uni207F n.sc uni2099
EndChar

StartChar: o
Encoding: 111 111 82
Width: 563
GlyphClass: 2
Flags: HW
AnchorPoint: "Anchor-3" 282 273 basechar 0
AnchorPoint: "Anchor-2" 543 546 basechar 0
AnchorPoint: "Anchor-1" 282 546 basechar 0
AnchorPoint: "Anchor-0" 282 0 basechar 0
LayerCount: 2
Fore
SplineSet
284 -10 m 0
 122 -10 36 108 36 273 c 0
 36 439 124 556 283 556 c 0
 433 556 527 453 527 271 c 0
 527 107 447 -10 284 -10 c 0
284 107 m 0
 355 107 386 165 386 272 c 0
 386 379 356 439 284 439 c 0
 210 439 178 376 178 273 c 0
 178 168 211 107 284 107 c 0
EndSplineSet
Validated: 1
Substitution2: "'smcp' Lowercase to Small Capitals lookup 35 subtable" o.sc
Substitution2: "Single Substitution lookup 32 subtable" ordmasculine
AlternateSubs2: "'aalt' Access All Alternates lookup 1 subtable" ordmasculine o.sc
EndChar

StartChar: p
Encoding: 112 112 83
Width: 563
GlyphClass: 2
Flags: HW
AnchorPoint: "Anchor-2" 543 546 basechar 0
AnchorPoint: "Anchor-1" 314 546 basechar 0
AnchorPoint: "Anchor-0" 314 -240 basechar 0
LayerCount: 2
Fore
SplineSet
51 -240 m 1
 51 546 l 1
 157 546 l 1
 181 475 l 1
 188 475 l 1
 222 528 277 556 340 556 c 0
 472 556 527 432 527 277 c 0
 527 97 454 -10 335 -10 c 0
 278 -10 224 15 188 60 c 1
 181 60 l 1
 187 21 188 -2 188 -18 c 2
 188 -240 l 1
 51 -240 l 1
289 109 m 0
 354 109 382 162 382 277 c 0
 382 386 354 437 289 437 c 0
 224 437 188 387 188 291 c 2
 188 275 l 2
 188 163 223 109 289 109 c 0
EndSplineSet
Validated: 1048577
Substitution2: "'smcp' Lowercase to Small Capitals lookup 35 subtable" p.sc
Substitution2: "'subs' Subscript lookup 22 subtable" uni209A
AlternateSubs2: "'aalt' Access All Alternates lookup 1 subtable" p.sc uni209A
EndChar

StartChar: q
Encoding: 113 113 84
Width: 563
GlyphClass: 2
Flags: HW
AnchorPoint: "Anchor-2" 543 546 basechar 0
AnchorPoint: "Anchor-1" 262 546 basechar 0
AnchorPoint: "Anchor-0" 262 -240 basechar 0
LayerCount: 2
Fore
SplineSet
375 -10 m 2
 375 9 377 39 381 71 c 1
 375 71 l 1
 346 21 288 -10 223 -10 c 0
 91 -10 36 113 36 272 c 0
 36 431 90 556 227 556 c 0
 289 556 344 530 382 476 c 1
 386 476 l 1
 403 546 l 1
 512 546 l 1
 512 -240 l 1
 375 -240 l 1
 375 -10 l 2
283 109 m 0
 358 109 384 168 384 254 c 2
 384 274 l 2
 384 387 347 437 283 437 c 0
 214 437 181 379 181 269 c 0
 181 163 211 109 283 109 c 0
EndSplineSet
Validated: 1048577
Substitution2: "'smcp' Lowercase to Small Capitals lookup 35 subtable" q.sc
Substitution2: "'aalt' Access All Alternates lookup 0 subtable" q.sc
EndChar

StartChar: r
Encoding: 114 114 85
Width: 563
GlyphClass: 2
Flags: HW
AnchorPoint: "Anchor-2" 543 546 basechar 0
AnchorPoint: "Anchor-1" 308 546 basechar 0
AnchorPoint: "Anchor-0" 238 0 basechar 0
LayerCount: 2
Fore
SplineSet
36 0 m 1
 36 92 l 1
 166 115 l 1
 166 431 l 1
 56 446 l 1
 56 546 l 1
 270 546 l 1
 292 453 l 1
 299 453 l 1
 330 514 373 556 454 556 c 0
 481 556 517 552 551 538 c 1
 514 407 l 1
 494 415 467 421 438 421 c 0
 350 421 305 356 305 264 c 2
 305 115 l 1
 440 92 l 1
 440 0 l 1
 36 0 l 1
EndSplineSet
Validated: 1048577
Substitution2: "'smcp' Lowercase to Small Capitals lookup 35 subtable" r.sc
Substitution2: "'aalt' Access All Alternates lookup 0 subtable" r.sc
EndChar

StartChar: s
Encoding: 115 115 86
Width: 563
GlyphClass: 2
Flags: HW
AnchorPoint: "Anchor-2" 543 546 basechar 0
AnchorPoint: "Anchor-1" 287 546 basechar 0
AnchorPoint: "Anchor-0" 287 0 basechar 0
LayerCount: 2
Fore
SplineSet
253 -10 m 0
 191 -10 133 -2 75 22 c 1
 75 151 l 1
 128 127 200 107 267 107 c 0
 319 107 349 121 349 152 c 0
 349 189 303 201 220 236 c 0
 135 273 75 307 75 397 c 0
 75 505 162 556 289 556 c 0
 356 556 422 542 486 513 c 1
 442 406 l 1
 389 429 338 440 287 440 c 0
 243 440 217 429 217 401 c 0
 217 368 253 357 337 324 c 0
 423 290 491 253 491 153 c 0
 491 44 410 -10 253 -10 c 0
EndSplineSet
Validated: 1048577
Substitution2: "'smcp' Lowercase to Small Capitals lookup 35 subtable" s.sc
Substitution2: "'subs' Subscript lookup 22 subtable" uni209B
AlternateSubs2: "'aalt' Access All Alternates lookup 1 subtable" s.sc uni209B
EndChar

StartChar: t
Encoding: 116 116 87
Width: 563
GlyphClass: 2
Flags: HW
AnchorPoint: "Anchor-3" 240 276 basechar 0
AnchorPoint: "Anchor-2" 438 860 basechar 0
AnchorPoint: "Anchor-1" 255 682 basechar 0
AnchorPoint: "Anchor-0" 345 0 basechar 0
LayerCount: 2
Fore
SplineSet
364 -10 m 0
 227 -10 163 51 163 186 c 2
 163 428 l 1
 45 428 l 1
 45 510 l 1
 175 546 l 1
 205 682 l 1
 304 682 l 1
 304 546 l 1
 504 546 l 1
 504 428 l 1
 302 428 l 1
 302 199 l 2
 302 126 339 110 393 110 c 0
 425 110 458 116 508 127 c 1
 508 13 l 1
 460 -3 410 -10 364 -10 c 0
EndSplineSet
Validated: 1
Substitution2: "'smcp' Lowercase to Small Capitals lookup 35 subtable" t.sc
Substitution2: "'subs' Subscript lookup 22 subtable" uni209C
AlternateSubs2: "'aalt' Access All Alternates lookup 1 subtable" t.sc uni209C
EndChar

StartChar: u
Encoding: 117 117 88
Width: 563
GlyphClass: 2
Flags: HW
AnchorPoint: "Anchor-2" 543 546 basechar 0
AnchorPoint: "Anchor-1" 282 546 basechar 0
AnchorPoint: "Anchor-0" 282 0 basechar 0
LayerCount: 2
Fore
SplineSet
217 -10 m 0
 105 -10 46 60 46 190 c 2
 46 546 l 1
 185 546 l 1
 185 227 l 2
 185 152 204 109 269 109 c 0
 354 109 373 176 373 289 c 2
 373 546 l 1
 512 546 l 1
 512 0 l 1
 405 0 l 1
 382 70 l 1
 374 70 l 1
 344 19 289 -10 217 -10 c 0
EndSplineSet
Validated: 1048577
Substitution2: "'smcp' Lowercase to Small Capitals lookup 35 subtable" u.sc
Substitution2: "'aalt' Access All Alternates lookup 0 subtable" u.sc
EndChar

StartChar: v
Encoding: 118 118 89
Width: 563
GlyphClass: 2
Flags: HW
AnchorPoint: "Anchor-2" 543 546 basechar 0
AnchorPoint: "Anchor-1" 282 546 basechar 0
AnchorPoint: "Anchor-0" 282 0 basechar 0
LayerCount: 2
Fore
SplineSet
202 0 m 1
 16 546 l 1
 165 546 l 1
 255 236 l 2
 266 196 276 155 281 120 c 1
 284 120 l 1
 289 155 297 189 310 235 c 2
 400 546 l 1
 547 546 l 1
 357 0 l 1
 202 0 l 1
EndSplineSet
Validated: 1048577
Substitution2: "'smcp' Lowercase to Small Capitals lookup 35 subtable" v.sc
Substitution2: "'aalt' Access All Alternates lookup 0 subtable" v.sc
EndChar

StartChar: w
Encoding: 119 119 90
Width: 563
GlyphClass: 2
Flags: HW
AnchorPoint: "Anchor-2" 543 546 basechar 0
AnchorPoint: "Anchor-1" 283 546 basechar 0
AnchorPoint: "Anchor-0" 283 0 basechar 0
LayerCount: 2
Fore
SplineSet
76 0 m 1
 2 546 l 1
 126 546 l 1
 150 265 l 2
 154 221 156 186 161 132 c 1
 165 132 l 1
 171 186 176 221 185 268 c 2
 223 465 l 1
 342 465 l 1
 379 267 l 2
 386 227 393 182 401 132 c 1
 405 132 l 1
 410 182 412 225 415 265 c 2
 440 546 l 1
 562 546 l 1
 487 0 l 1
 334 0 l 1
 297 217 l 2
 291 256 288 279 283 312 c 1
 279 312 l 1
 274 278 271 255 265 217 c 2
 227 0 l 1
 76 0 l 1
EndSplineSet
Validated: 1048577
Substitution2: "'smcp' Lowercase to Small Capitals lookup 35 subtable" w.sc
Substitution2: "'aalt' Access All Alternates lookup 0 subtable" w.sc
EndChar

StartChar: x
Encoding: 120 120 91
Width: 563
GlyphClass: 2
Flags: HW
AnchorPoint: "Anchor-2" 543 546 basechar 0
AnchorPoint: "Anchor-1" 282 546 basechar 0
AnchorPoint: "Anchor-0" 282 0 basechar 0
LayerCount: 2
Fore
SplineSet
16 0 m 1
 194 278 l 1
 25 546 l 1
 189 546 l 1
 283 369 l 1
 381 546 l 1
 544 546 l 1
 372 278 l 1
 547 0 l 1
 383 0 l 1
 283 184 l 1
 181 0 l 1
 16 0 l 1
EndSplineSet
Validated: 1048577
Substitution2: "'smcp' Lowercase to Small Capitals lookup 35 subtable" x.sc
Substitution2: "'aalt' Access All Alternates lookup 0 subtable" x.sc
EndChar

StartChar: y
Encoding: 121 121 92
Width: 563
GlyphClass: 2
Flags: HW
AnchorPoint: "Anchor-2" 543 546 basechar 0
AnchorPoint: "Anchor-1" 282 546 basechar 0
AnchorPoint: "Anchor-0" 282 -245 basechar 0
LayerCount: 2
Fore
SplineSet
123 -245 m 0
 99 -245 75 -242 51 -237 c 1
 51 -120 l 1
 68 -124 87 -126 99 -126 c 0
 154 -126 190 -93 211 -31 c 2
 221 0 l 1
 16 546 l 1
 171 546 l 1
 267 233 l 2
 275 205 283 173 288 136 c 1
 291 136 l 1
 296 171 304 202 312 233 c 2
 395 546 l 1
 547 546 l 1
 353 -29 l 2
 306 -166 238 -245 123 -245 c 0
EndSplineSet
Validated: 1048577
Substitution2: "'smcp' Lowercase to Small Capitals lookup 35 subtable" y.sc
Substitution2: "'aalt' Access All Alternates lookup 0 subtable" y.sc
EndChar

StartChar: z
Encoding: 122 122 93
Width: 563
GlyphClass: 2
Flags: HW
AnchorPoint: "Anchor-2" 543 546 basechar 0
AnchorPoint: "Anchor-1" 287 546 basechar 0
AnchorPoint: "Anchor-0" 287 0 basechar 0
LayerCount: 2
Fore
SplineSet
61 0 m 1
 61 87 l 1
 322 432 l 1
 73 432 l 1
 73 546 l 1
 492 546 l 1
 492 449 l 1
 236 114 l 1
 502 114 l 1
 502 0 l 1
 61 0 l 1
EndSplineSet
Validated: 1048577
Substitution2: "'smcp' Lowercase to Small Capitals lookup 35 subtable" z.sc
Substitution2: "'aalt' Access All Alternates lookup 0 subtable" z.sc
EndChar

StartChar: braceleft
Encoding: 123 123 94
Width: 563
Flags: HW
LayerCount: 2
Fore
SplineSet
441 -163 m 1
 283 -163 231 -123 231 -8 c 2
 231 136 l 2
 231 196 197 225 122 225 c 1
 122 330 l 1
 195 330 231 357 231 419 c 2
 231 564 l 2
 231 673 277 718 441 719 c 1
 441 615 l 1
 385 613 353 601 353 545 c 2
 353 400 l 2
 353 329 322 292 255 281 c 1
 255 275 l 1
 324 264 353 225 353 158 c 2
 353 12 l 2
 353 -40 379 -57 441 -59 c 1
 441 -163 l 1
EndSplineSet
Validated: 1
Substitution2: "'smcp' Lowercase to Small Capitals lookup 35 subtable" braceleft.sc
Substitution2: "'c2sc' Capitals to Small Capitals lookup 34 subtable" braceleft.sc
Substitution2: "'aalt' Access All Alternates lookup 0 subtable" braceleft.sc
EndChar

StartChar: bar
Encoding: 124 124 95
Width: 563
Flags: HW
LayerCount: 2
Fore
SplineSet
226 -240 m 1
 226 760 l 1
 336 760 l 1
 336 -240 l 1
 226 -240 l 1
EndSplineSet
Validated: 1
EndChar

StartChar: braceright
Encoding: 125 125 96
Width: 563
Flags: HW
LayerCount: 2
Fore
SplineSet
122 719 m 1
 280 719 332 679 332 564 c 2
 332 420 l 2
 332 360 366 331 441 331 c 1
 441 226 l 1
 368 226 332 199 332 137 c 2
 332 -8 l 2
 332 -117 286 -162 122 -163 c 1
 122 -59 l 1
 178 -57 210 -45 210 11 c 2
 210 156 l 2
 210 227 240 264 308 275 c 1
 308 281 l 1
 239 292 210 331 210 398 c 2
 210 544 l 2
 210 596 184 613 122 615 c 1
 122 719 l 1
EndSplineSet
Validated: 1
Substitution2: "'smcp' Lowercase to Small Capitals lookup 35 subtable" braceright.sc
Substitution2: "'c2sc' Capitals to Small Capitals lookup 34 subtable" braceright.sc
Substitution2: "'aalt' Access All Alternates lookup 0 subtable" braceright.sc
EndChar

StartChar: asciitilde
Encoding: 126 126 97
Width: 563
Flags: HW
LayerCount: 2
Fore
SplineSet
63 272 m 1
 63 369 92 460 186 460 c 0
 230 460 259 442 307 393 c 0
 343 354 356 343 377 343 c 0
 410 343 428 380 430 460 c 1
 500 460 l 1
 498 357 468 272 379 272 c 0
 341 272 311 286 261 337 c 0
 219 378 208 389 189 389 c 0
 152 389 132 354 132 272 c 1
 63 272 l 1
EndSplineSet
Validated: 1
EndChar

StartChar: exclamdown
Encoding: 161 161 99
Width: 563
Flags: HW
LayerCount: 2
Fore
SplineSet
281 539 m 0
 335 539 366 509 366 455 c 0
 366 399 337 370 281 370 c 0
 228 370 198 400 198 455 c 0
 198 508 230 539 281 539 c 0
340 296 m 1
 361 -185 l 1
 201 -185 l 1
 222 296 l 1
 340 296 l 1
EndSplineSet
Validated: 1
Substitution2: "'smcp' Lowercase to Small Capitals lookup 35 subtable" exclamdown.sc
Substitution2: "'c2sc' Capitals to Small Capitals lookup 34 subtable" exclamdown.sc
Substitution2: "'aalt' Access All Alternates lookup 0 subtable" exclamdown.sc
EndChar

StartChar: cent
Encoding: 162 162 100
Width: 563
Flags: HW
LayerCount: 2
Fore
SplineSet
285 86 m 1
 143 100 73 197 71 362 c 0
 73 530 147 627 285 643 c 1
 285 724 l 1
 361 724 l 1
 361 647 l 1
 413 644 467 630 498 612 c 1
 461 506 l 1
 427 525 378 535 344 535 c 0
 251 535 203 484 203 363 c 0
 203 245 250 194 343 194 c 0
 392 194 446 209 486 233 c 1
 486 120 l 1
 456 101 406 88 361 84 c 1
 361 -10 l 1
 285 -10 l 1
 285 86 l 1
EndSplineSet
Validated: 1
EndChar

StartChar: sterling
Encoding: 163 163 101
Width: 563
Flags: HW
LayerCount: 2
Fore
SplineSet
73 113 m 1
 120 139 145 169 145 240 c 2
 145 314 l 1
 72 314 l 1
 72 414 l 1
 145 414 l 1
 145 521 l 2
 145 659 223 725 343 725 c 0
 401 725 453 710 500 684 c 1
 461 577 l 1
 421 597 392 607 354 607 c 0
 313 607 279 582 279 517 c 2
 279 414 l 1
 429 414 l 1
 429 314 l 1
 279 314 l 1
 279 241 l 2
 279 180 253 142 213 119 c 1
 504 119 l 1
 504 0 l 1
 73 0 l 1
 73 113 l 1
EndSplineSet
Validated: 1
EndChar

StartChar: currency
Encoding: 164 164 102
Width: 563
Flags: HW
LayerCount: 2
Fore
SplineSet
385 196 m 1
 354 177 318 166 281 166 c 0
 241 166 205 176 175 196 c 1
 111 132 l 1
 47 196 l 1
 113 260 l 1
 92 292 81 326 81 365 c 0
 81 402 92 437 113 469 c 1
 46 535 l 1
 111 599 l 1
 176 534 l 1
 207 555 243 565 281 565 c 0
 318 565 353 555 385 533 c 1
 451 599 l 1
 516 537 l 1
 450 470 l 1
 470 440 481 404 481 365 c 0
 481 326 471 291 450 259 c 1
 514 195 l 1
 451 131 l 1
 385 196 l 1
281 260 m 0
 343 260 388 304 388 365 c 0
 388 426 346 471 281 471 c 0
 217 471 176 425 176 365 c 0
 176 303 222 260 281 260 c 0
EndSplineSet
Validated: 1
EndChar

StartChar: yen
Encoding: 165 165 103
Width: 563
Flags: HW
LayerCount: 2
Fore
SplineSet
216 0 m 1
 216 113 l 1
 81 113 l 1
 81 197 l 1
 216 197 l 1
 216 266 l 1
 81 266 l 1
 81 352 l 1
 191 352 l 1
 29 714 l 1
 171 714 l 1
 282 426 l 1
 392 714 l 1
 534 714 l 1
 370 352 l 1
 482 352 l 1
 482 266 l 1
 347 266 l 1
 347 197 l 1
 482 197 l 1
 482 113 l 1
 347 113 l 1
 347 0 l 1
 216 0 l 1
EndSplineSet
Validated: 1
EndChar

StartChar: brokenbar
Encoding: 166 166 104
Width: 563
Flags: HW
LayerCount: 2
Fore
SplineSet
226 363 m 1
 226 758 l 1
 336 758 l 1
 336 363 l 1
 226 363 l 1
226 -231 m 1
 226 165 l 1
 336 165 l 1
 336 -231 l 1
 226 -231 l 1
EndSplineSet
Validated: 1
EndChar

StartChar: section
Encoding: 167 167 105
Width: 563
Flags: HW
LayerCount: 2
Fore
SplineSet
253 -8 m 0
 189 -8 136 5 93 30 c 1
 93 130 l 1
 137 104 200 82 252 82 c 0
 312 82 341 104 341 141 c 0
 341 178 319 195 246 229 c 0
 148 275 96 311 96 387 c 0
 96 446 127 485 175 511 c 1
 131 541 107 581 107 627 c 0
 107 712 185 765 299 765 c 0
 359 765 409 751 463 727 c 1
 425 640 l 1
 382 662 340 676 301 676 c 0
 252 676 227 659 227 627 c 0
 227 592 263 573 319 549 c 0
 416 506 471 467 471 386 c 0
 471 330 444 292 401 263 c 1
 442 232 461 193 461 147 c 0
 461 51 381 -8 253 -8 c 0
323 305 m 1
 344 320 359 341 359 370 c 0
 359 410 336 435 252 469 c 1
 225 459 207 436 207 407 c 0
 207 369 238 345 298 318 c 2
 323 305 l 1
EndSplineSet
Validated: 1
EndChar

StartChar: dieresis
Encoding: 168 168 106
Width: 563
GlyphClass: 2
Flags: HW
AnchorPoint: "Anchor-1" 282 656 basechar 0
LayerCount: 2
Fore
SplineSet
389 612 m 0
 350 612 322 637 322 682 c 0
 322 729 350 752 389 752 c 0
 428 752 457 728 457 682 c 0
 457 637 428 612 389 612 c 0
176 612 m 0
 137 612 110 636 110 682 c 0
 110 729 137 752 176 752 c 0
 215 752 243 728 243 682 c 0
 243 637 215 612 176 612 c 0
EndSplineSet
Validated: 1048577
EndChar

StartChar: copyright
Encoding: 169 169 107
Width: 563
Flags: HW
LayerCount: 2
Fore
SplineSet
280 91 m 0
 110 91 20 213 20 352 c 0
 20 499 122 612 282 612 c 0
 443 612 543 496 543 348 c 0
 543 195 436 91 280 91 c 0
280 153 m 0
 396 153 474 235 474 354 c 0
 474 473 394 550 282 550 c 0
 159 550 90 458 90 351 c 0
 90 242 159 153 280 153 c 0
292 190 m 0
 196 190 143 252 143 351 c 0
 143 452 198 515 293 515 c 0
 324 515 352 509 384 493 c 1
 361 433 l 1
 339 445 316 452 296 452 c 0
 248 452 220 416 220 348 c 0
 220 286 244 254 297 254 c 0
 320 254 348 259 372 270 c 1
 372 207 l 1
 348 196 324 190 292 190 c 0
EndSplineSet
Validated: 1
EndChar

StartChar: ordfeminine
Encoding: 170 170 108
Width: 563
GlyphClass: 2
Flags: HW
AnchorPoint: "Anchor-1" 284 722 basechar 0
AnchorPoint: "Anchor-0" 280 368 basechar 0
LayerCount: 2
Fore
SplineSet
240 369 m 0
 173 369 131 410 131 475 c 0
 131 554 190 581 292 586 c 2
 339 589 l 1
 339 599 l 2
 339 632 320 649 281 649 c 0
 252 649 222 640 190 624 c 1
 161 688 l 1
 200 709 246 722 296 722 c 0
 389 722 431 674 431 592 c 2
 431 375 l 1
 369 375 l 1
 354 427 l 1
 328 390 289 369 240 369 c 0
268 440 m 0
 311 440 339 470 339 514 c 2
 339 532 l 1
 295 529 l 2
 240 525 224 505 224 479 c 0
 224 452 240 440 268 440 c 0
EndSplineSet
Validated: 1048577
EndChar

StartChar: guillemotleft
Encoding: 171 171 109
Width: 563
Flags: HW
LayerCount: 2
Fore
SplineSet
421 47 m 1
 261 264 l 1
 261 278 l 1
 421 495 l 1
 517 444 l 1
 404 271 l 1
 517 98 l 1
 421 47 l 1
207 47 m 1
 47 264 l 1
 47 278 l 1
 207 495 l 1
 302 444 l 1
 188 271 l 1
 302 98 l 1
 207 47 l 1
EndSplineSet
Validated: 1
EndChar

StartChar: logicalnot
Encoding: 172 172 110
Width: 563
Flags: HW
LayerCount: 2
Fore
SplineSet
388 119 m 1
 388 301 l 1
 64 301 l 1
 64 405 l 1
 493 405 l 1
 493 119 l 1
 388 119 l 1
EndSplineSet
Validated: 1
EndChar

StartChar: uni00AD
Encoding: 173 173 111
Width: 563
Flags: HW
LayerCount: 2
Fore
SplineSet
141 205 m 1
 141 330 l 1
 423 330 l 1
 423 205 l 1
 141 205 l 1
EndSplineSet
Validated: 1
EndChar

StartChar: registered
Encoding: 174 174 112
Width: 563
Flags: HW
LayerCount: 2
Fore
SplineSet
280 92 m 0
 110 92 21 214 21 352 c 0
 21 499 123 612 282 612 c 0
 442 612 543 497 543 349 c 0
 543 195 436 92 280 92 c 0
280 154 m 0
 396 154 473 236 473 354 c 0
 473 474 394 550 282 550 c 0
 159 550 90 458 90 351 c 0
 90 242 159 154 280 154 c 0
178 205 m 1
 178 506 l 1
 272 506 l 2
 351 506 391 477 391 415 c 0
 391 372 372 346 345 333 c 1
 401 205 l 1
 326 205 l 1
 283 320 l 1
 247 320 l 1
 247 205 l 1
 178 205 l 1
269 369 m 2
 298 369 317 382 317 414 c 0
 317 441 304 452 270 452 c 2
 247 452 l 1
 247 369 l 1
 269 369 l 2
EndSplineSet
Validated: 1
EndChar

StartChar: overscore
Encoding: 175 175 113
Width: 563
Flags: HW
LayerCount: 2
Fore
SplineSet
137 620 m 1
 137 716 l 1
 427 716 l 1
 427 620 l 1
 137 620 l 1
EndSplineSet
Validated: 1
EndChar

StartChar: degree
Encoding: 176 176 114
Width: 563
Flags: HW
LayerCount: 2
Fore
SplineSet
281 419 m 0
 192 419 128 484 128 572 c 0
 128 658 194 724 281 724 c 0
 369 724 436 657 436 572 c 0
 436 484 375 419 281 419 c 0
281 500 m 0
 326 500 351 532 351 572 c 0
 351 613 323 643 281 643 c 0
 240 643 212 612 212 572 c 0
 212 531 239 500 281 500 c 0
EndSplineSet
Validated: 1
EndChar

StartChar: plusminus
Encoding: 177 177 115
Width: 563
Flags: HW
LayerCount: 2
Fore
SplineSet
230 155 m 1
 230 339 l 1
 64 339 l 1
 64 443 l 1
 230 443 l 1
 230 629 l 1
 335 629 l 1
 335 443 l 1
 501 443 l 1
 501 339 l 1
 335 339 l 1
 335 155 l 1
 230 155 l 1
63 0 m 1
 63 104 l 1
 501 104 l 1
 501 0 l 1
 63 0 l 1
EndSplineSet
Validated: 1
EndChar

StartChar: uni00B2
Encoding: 178 178 116
Width: 563
Flags: HW
LayerCount: 2
Fore
SplineSet
142 416 m 1
 142 497 l 1
 231 591 l 2
 279 642 316 674 316 722 c 0
 316 756 297 769 267 769 c 0
 237 769 213 755 185 727 c 1
 138 792 l 1
 169 827 220 854 283 854 c 0
 363 854 414 813 414 732 c 0
 414 650 367 615 285 529 c 2
 257 500 l 1
 432 500 l 1
 432 416 l 1
 142 416 l 1
EndSplineSet
Validated: 1
EndChar

StartChar: uni00B3
Encoding: 179 179 117
Width: 563
Flags: HW
LayerCount: 2
Fore
SplineSet
265 408 m 0
 218 408 176 418 141 439 c 1
 141 530 l 1
 175 505 217 491 264 491 c 0
 308 491 329 509 329 541 c 0
 329 575 307 596 253 596 c 2
 208 596 l 1
 208 671 l 1
 246 671 l 2
 299 671 319 694 319 725 c 0
 319 753 303 771 269 771 c 0
 238 771 212 761 182 735 c 1
 138 799 l 1
 176 833 224 853 279 853 c 0
 358 853 413 812 413 744 c 0
 413 696 389 662 340 642 c 1
 340 637 l 1
 397 623 425 585 425 530 c 0
 425 455 364 408 265 408 c 0
EndSplineSet
Validated: 1
EndChar

StartChar: acute
Encoding: 180 180 118
Width: 563
Flags: HW
LayerCount: 2
Fore
SplineSet
206 619 m 1
 240 667 275 721 299 766 c 1
 451 766 l 1
 451 757 l 1
 420 719 346 646 298 606 c 1
 206 606 l 1
 206 619 l 1
EndSplineSet
Validated: 1
EndChar

StartChar: uni00B5
Encoding: 181 181 119
Width: 563
GlyphClass: 2
Flags: HW
AnchorPoint: "Anchor-2" 543 546 basechar 0
AnchorPoint: "Anchor-1" 282 546 basechar 0
AnchorPoint: "Anchor-0" 282 0 basechar 0
LayerCount: 2
Fore
SplineSet
217 -10 m 0
 206 -10 195 -9 185 -8 c 1
 185 -240 l 1
 46 -240 l 1
 46 546 l 1
 185 546 l 1
 185 227 l 2
 185 152 204 109 269 109 c 0
 354 109 373 176 373 289 c 2
 373 546 l 1
 512 546 l 1
 512 0 l 1
 405 0 l 1
 382 70 l 1
 374 70 l 1
 344 19 289 -10 217 -10 c 0
EndSplineSet
Validated: 1048577
EndChar

StartChar: paragraph
Encoding: 182 182 120
Width: 563
Flags: HW
LayerCount: 2
Fore
SplineSet
289 273 m 1
 274 267 255 264 232 264 c 0
 108 264 42 339 42 509 c 0
 42 683 113 760 247 760 c 2
 506 760 l 1
 506 -127 l 1
 432 -127 l 1
 432 682 l 1
 364 682 l 1
 364 -127 l 1
 289 -127 l 1
 289 273 l 1
EndSplineSet
Validated: 1
EndChar

StartChar: periodcentered
Encoding: 183 183 121
Width: 563
Flags: HW
LayerCount: 2
Fore
SplineSet
282 261 m 0
 228 261 197 291 197 345 c 0
 197 401 227 430 282 430 c 0
 335 430 365 400 365 345 c 0
 365 293 334 261 282 261 c 0
EndSplineSet
Validated: 1
EndChar

StartChar: cedilla
Encoding: 184 184 122
Width: 563
Flags: HW
LayerCount: 2
Fore
SplineSet
252 -240 m 0
 227 -240 201 -237 182 -231 c 1
 182 -158 l 1
 199 -164 217 -166 232 -166 c 0
 264 -166 285 -155 285 -127 c 0
 285 -98 261 -85 212 -80 c 1
 247 3 l 1
 321 3 l 1
 305 -38 l 1
 356 -50 386 -81 386 -136 c 0
 386 -198 346 -240 252 -240 c 0
EndSplineSet
Validated: 1
EndChar

StartChar: uni00B9
Encoding: 185 185 123
Width: 563
Flags: HW
LayerCount: 2
Fore
SplineSet
159 416 m 1
 159 480 l 1
 255 490 l 1
 255 635 l 2
 255 666 256 711 258 739 c 1
 249 732 233 722 222 715 c 2
 176 687 l 1
 132 757 l 1
 271 844 l 1
 347 844 l 1
 347 490 l 1
 440 481 l 1
 440 416 l 1
 159 416 l 1
EndSplineSet
Validated: 1
EndChar

StartChar: ordmasculine
Encoding: 186 186 124
Width: 563
GlyphClass: 2
Flags: HW
AnchorPoint: "Anchor-1" 282 722 basechar 0
AnchorPoint: "Anchor-0" 281 368 basechar 0
LayerCount: 2
Fore
SplineSet
281 369 m 0
 190 369 129 435 129 546 c 0
 129 658 188 722 282 722 c 0
 371 722 434 658 434 546 c 0
 434 434 376 369 281 369 c 0
281 445 m 0
 322 445 340 478 340 546 c 0
 340 613 322 646 281 646 c 0
 241 646 222 613 222 546 c 0
 222 478 240 445 281 445 c 0
EndSplineSet
Validated: 1048577
EndChar

StartChar: guillemotright
Encoding: 187 187 125
Width: 563
Flags: HW
LayerCount: 2
Fore
SplineSet
142 494 m 1
 302 277 l 1
 302 263 l 1
 142 46 l 1
 47 97 l 1
 160 270 l 1
 47 443 l 1
 142 494 l 1
356 494 m 1
 517 277 l 1
 517 263 l 1
 356 46 l 1
 261 97 l 1
 375 270 l 1
 261 443 l 1
 356 494 l 1
EndSplineSet
Validated: 1
EndChar

StartChar: onequarter
Encoding: 188 188 126
Width: 563
Flags: HW
LayerCount: 2
Fore
SplineSet
31 379 m 1
 31 440 l 1
 103 446 l 1
 103 540 l 2
 103 567 104 599 105 626 c 1
 96 618 85 609 76 603 c 2
 44 584 l 1
 8 648 l 1
 116 714 l 1
 179 714 l 1
 179 446 l 1
 249 440 l 1
 249 379 l 1
 31 379 l 1
38 70 m 1
 428 621 l 1
 535 621 l 1
 146 70 l 1
 38 70 l 1
416 0 m 1
 416 63 l 1
 281 63 l 1
 281 125 l 1
 410 337 l 1
 494 337 l 1
 494 129 l 1
 542 129 l 1
 542 63 l 1
 494 63 l 1
 494 0 l 1
 416 0 l 1
349 129 m 1
 416 129 l 1
 416 196 l 2
 416 218 418 232 418 252 c 1
 412 235 401 216 394 204 c 2
 349 129 l 1
EndSplineSet
Validated: 1
EndChar

StartChar: onehalf
Encoding: 189 189 127
Width: 563
Flags: HW
LayerCount: 2
Fore
SplineSet
31 379 m 1
 31 440 l 1
 103 446 l 1
 103 540 l 2
 103 567 104 599 105 626 c 1
 96 618 85 609 76 603 c 2
 44 584 l 1
 8 648 l 1
 116 714 l 1
 179 714 l 1
 179 446 l 1
 249 440 l 1
 249 379 l 1
 31 379 l 1
38 70 m 1
 428 621 l 1
 535 621 l 1
 146 70 l 1
 38 70 l 1
325 0 m 1
 324 67 l 1
 398 149 l 2
 443 198 455 212 455 238 c 0
 455 261 443 274 421 274 c 0
 399 274 382 262 361 241 c 1
 321 295 l 1
 347 323 385 344 434 344 c 0
 501 344 536 306 536 247 c 0
 536 193 501 161 446 99 c 2
 420 72 l 1
 549 72 l 1
 549 0 l 1
 325 0 l 1
EndSplineSet
Validated: 1
EndChar

StartChar: threequarters
Encoding: 190 190 128
Width: 563
Flags: HW
LayerCount: 2
Fore
SplineSet
132 374 m 0
 95 374 62 380 36 397 c 1
 36 474 l 1
 64 453 97 444 127 444 c 0
 161 444 176 457 176 483 c 0
 176 507 162 519 124 519 c 2
 86 519 l 1
 86 583 l 1
 118 583 l 2
 155 583 169 597 169 620 c 0
 169 642 158 656 134 656 c 0
 111 656 91 646 68 627 c 1
 31 681 l 1
 61 707 97 723 142 723 c 0
 208 723 247 689 247 637 c 0
 247 597 229 570 198 557 c 1
 198 554 l 1
 236 543 255 518 255 475 c 0
 255 413 210 374 132 374 c 0
38 70 m 1
 428 621 l 1
 535 621 l 1
 146 70 l 1
 38 70 l 1
416 0 m 1
 416 63 l 1
 281 63 l 1
 281 125 l 1
 410 337 l 1
 494 337 l 1
 494 129 l 1
 542 129 l 1
 542 63 l 1
 494 63 l 1
 494 0 l 1
 416 0 l 1
349 129 m 1
 416 129 l 1
 416 196 l 2
 416 218 418 232 418 252 c 1
 412 235 401 216 394 204 c 2
 349 129 l 1
EndSplineSet
Validated: 1
EndChar

StartChar: questiondown
Encoding: 191 191 129
Width: 563
Flags: HW
LayerCount: 2
Fore
SplineSet
292 539 m 0
 346 539 377 509 377 455 c 0
 377 399 347 370 292 370 c 0
 239 370 209 400 209 455 c 0
 209 508 240 539 292 539 c 0
353 260 m 2
 353 191 329 152 272 105 c 0
 223 65 200 36 200 -11 c 0
 200 -56 228 -79 277 -79 c 0
 320 -79 363 -63 420 -32 c 1
 469 -135 l 1
 401 -175 338 -195 266 -195 c 0
 148 -195 66 -133 66 -20 c 0
 66 66 99 106 169 165 c 0
 217 206 234 224 234 269 c 2
 234 296 l 1
 353 296 l 1
 353 260 l 2
EndSplineSet
Validated: 1
Substitution2: "'smcp' Lowercase to Small Capitals lookup 35 subtable" questiondown.sc
Substitution2: "'c2sc' Capitals to Small Capitals lookup 34 subtable" questiondown.sc
Substitution2: "'aalt' Access All Alternates lookup 0 subtable" questiondown.sc
EndChar

StartChar: Agrave
Encoding: 192 192 130
Width: 563
GlyphClass: 2
Flags: HW
AnchorPoint: "Anchor-2" 543 714 basechar 0
AnchorPoint: "Anchor-1" 282 934 basechar 0
AnchorPoint: "Anchor-0" 282 0 basechar 0
LayerCount: 2
Fore
SplineSet
286 774 m 1
 246 806 163 888 134 925 c 1
 134 934 l 1
 285 934 l 1
 307 891 353 820 378 787 c 1
 378 774 l 1
 286 774 l 1
10 0 m 1
 189 717 l 1
 373 717 l 1
 553 0 l 1
 414 0 l 1
 375 176 l 1
 187 176 l 1
 148 0 l 1
 10 0 l 1
254 473 m 2
 214 295 l 1
 349 295 l 1
 310 472 l 2
 300 515 290 563 282 606 c 1
 274 563 263 513 254 473 c 2
EndSplineSet
Validated: 1048577
Substitution2: "'c2sc' Capitals to Small Capitals lookup 34 subtable" agrave.sc
Substitution2: "'aalt' Access All Alternates lookup 0 subtable" agrave.sc
EndChar

StartChar: Aacute
Encoding: 193 193 131
Width: 563
GlyphClass: 2
Flags: HW
AnchorPoint: "Anchor-2" 543 714 basechar 0
AnchorPoint: "Anchor-1" 282 934 basechar 0
AnchorPoint: "Anchor-0" 282 0 basechar 0
LayerCount: 2
Fore
SplineSet
215 787 m 1
 250 835 285 889 308 934 c 1
 460 934 l 1
 460 925 l 1
 429 887 355 814 308 774 c 1
 215 774 l 1
 215 787 l 1
10 0 m 1
 189 717 l 1
 373 717 l 1
 553 0 l 1
 414 0 l 1
 375 176 l 1
 187 176 l 1
 148 0 l 1
 10 0 l 1
254 473 m 2
 214 295 l 1
 349 295 l 1
 310 472 l 2
 300 515 290 563 282 606 c 1
 274 563 263 513 254 473 c 2
EndSplineSet
Validated: 1048577
Substitution2: "'c2sc' Capitals to Small Capitals lookup 34 subtable" aacute.sc
Substitution2: "'aalt' Access All Alternates lookup 0 subtable" aacute.sc
EndChar

StartChar: Acircumflex
Encoding: 194 194 132
Width: 563
GlyphClass: 2
Flags: HW
AnchorPoint: "Anchor-2" 543 714 basechar 0
AnchorPoint: "Anchor-1" 282 934 basechar 0
AnchorPoint: "Anchor-0" 282 0 basechar 0
LayerCount: 2
Fore
SplineSet
110 787 m 1
 144 826 193 894 215 934 c 1
 349 934 l 1
 373 890 416 832 453 787 c 1
 453 774 l 1
 370 774 l 1
 343 795 312 823 281 858 c 1
 250 823 219 793 194 774 c 1
 110 774 l 1
 110 787 l 1
10 0 m 1
 189 717 l 1
 373 717 l 1
 553 0 l 1
 414 0 l 1
 375 176 l 1
 187 176 l 1
 148 0 l 1
 10 0 l 1
254 473 m 2
 214 295 l 1
 349 295 l 1
 310 472 l 2
 300 515 290 563 282 606 c 1
 274 563 263 513 254 473 c 2
EndSplineSet
Validated: 1048577
Substitution2: "'c2sc' Capitals to Small Capitals lookup 34 subtable" acircumflex.sc
Substitution2: "'aalt' Access All Alternates lookup 0 subtable" acircumflex.sc
EndChar

StartChar: Atilde
Encoding: 195 195 133
Width: 563
GlyphClass: 2
Flags: HW
AnchorPoint: "Anchor-2" 543 714 basechar 0
AnchorPoint: "Anchor-1" 282 922 basechar 0
AnchorPoint: "Anchor-0" 282 0 basechar 0
LayerCount: 2
Fore
SplineSet
102 773 m 1
 107 849 135 921 204 921 c 0
 260 921 308 870 353 870 c 0
 376 870 384 888 391 922 c 1
 461 922 l 1
 457 826 415 774 359 774 c 0
 306 774 250 825 210 825 c 0
 188 825 178 809 173 773 c 1
 102 773 l 1
10 0 m 1
 189 717 l 1
 373 717 l 1
 553 0 l 1
 414 0 l 1
 375 176 l 1
 187 176 l 1
 148 0 l 1
 10 0 l 1
254 473 m 2
 214 295 l 1
 349 295 l 1
 310 472 l 2
 300 515 290 563 282 606 c 1
 274 563 263 513 254 473 c 2
EndSplineSet
Validated: 1048577
Substitution2: "'c2sc' Capitals to Small Capitals lookup 34 subtable" atilde.sc
Substitution2: "'aalt' Access All Alternates lookup 0 subtable" atilde.sc
EndChar

StartChar: Adieresis
Encoding: 196 196 134
Width: 563
GlyphClass: 2
Flags: HW
AnchorPoint: "Anchor-2" 543 714 basechar 0
AnchorPoint: "Anchor-1" 282 915 basechar 0
AnchorPoint: "Anchor-0" 282 0 basechar 0
LayerCount: 2
Fore
SplineSet
387 775 m 0
 348 775 321 800 321 846 c 0
 321 893 348 915 387 915 c 0
 426 915 455 891 455 846 c 0
 455 801 426 775 387 775 c 0
174 775 m 0
 136 775 108 799 108 846 c 0
 108 893 136 915 174 915 c 0
 213 915 241 891 241 846 c 0
 241 801 213 775 174 775 c 0
10 0 m 1
 189 717 l 1
 373 717 l 1
 553 0 l 1
 414 0 l 1
 375 176 l 1
 187 176 l 1
 148 0 l 1
 10 0 l 1
254 473 m 2
 214 295 l 1
 349 295 l 1
 310 472 l 2
 300 515 290 563 282 606 c 1
 274 563 263 513 254 473 c 2
EndSplineSet
Validated: 1048577
Substitution2: "'c2sc' Capitals to Small Capitals lookup 34 subtable" adieresis.sc
Substitution2: "'aalt' Access All Alternates lookup 0 subtable" adieresis.sc
EndChar

StartChar: Aring
Encoding: 197 197 135
Width: 563
GlyphClass: 2
Flags: HW
AnchorPoint: "Anchor-2" 543 714 basechar 0
AnchorPoint: "Anchor-1" 282 1002 basechar 0
AnchorPoint: "Anchor-0" 282 0 basechar 0
LayerCount: 2
Fore
SplineSet
281 774 m 0
 210 774 164 819 164 888 c 0
 164 957 210 1002 281 1002 c 0
 349 1002 399 956 399 889 c 0
 399 821 351 774 281 774 c 0
281 842 m 0
 307 842 328 860 328 888 c 0
 328 916 309 934 281 934 c 0
 254 934 234 916 234 888 c 0
 234 860 251 842 281 842 c 0
10 0 m 1
 189 717 l 1
 373 717 l 1
 553 0 l 1
 414 0 l 1
 375 176 l 1
 187 176 l 1
 148 0 l 1
 10 0 l 1
254 473 m 2
 214 295 l 1
 349 295 l 1
 310 472 l 2
 300 515 290 563 282 606 c 1
 274 563 263 513 254 473 c 2
EndSplineSet
Validated: 1048577
Substitution2: "'c2sc' Capitals to Small Capitals lookup 34 subtable" aring.sc
Substitution2: "'aalt' Access All Alternates lookup 0 subtable" aring.sc
EndChar

StartChar: AE
Encoding: 198 198 136
Width: 563
GlyphClass: 2
Flags: HW
AnchorPoint: "Anchor-1" 313 714 basechar 0
AnchorPoint: "Anchor-0" 282 0 basechar 0
LayerCount: 2
Fore
SplineSet
10 0 m 1
 167 714 l 1
 537 714 l 1
 537 592 l 1
 413 592 l 1
 413 433 l 1
 520 433 l 1
 520 310 l 1
 413 310 l 1
 413 122 l 1
 537 122 l 1
 537 0 l 1
 291 0 l 1
 291 176 l 1
 178 176 l 1
 143 0 l 1
 10 0 l 1
262 595 m 1
 202 298 l 1
 291 298 l 1
 291 595 l 1
 262 595 l 1
EndSplineSet
Validated: 1048577
Substitution2: "'c2sc' Capitals to Small Capitals lookup 34 subtable" ae.sc
Substitution2: "'aalt' Access All Alternates lookup 0 subtable" ae.sc
EndChar

StartChar: Ccedilla
Encoding: 199 199 137
Width: 563
GlyphClass: 2
Flags: HW
AnchorPoint: "Anchor-2" 543 714 basechar 0
AnchorPoint: "Anchor-1" 336 714 basechar 0
AnchorPoint: "Anchor-0" 312 -240 basechar 0
LayerCount: 2
Fore
SplineSet
293 -240 m 0
 268 -240 242 -237 223 -231 c 1
 223 -158 l 1
 240 -164 258 -166 273 -166 c 0
 305 -166 326 -155 326 -127 c 0
 326 -98 302 -85 253 -80 c 1
 283 -8 l 1
 124 16 45 148 45 347 c 0
 45 575 157 725 361 725 c 0
 426 725 478 710 531 682 c 1
 486 567 l 1
 441 590 402 600 362 600 c 0
 236 600 186 498 186 351 c 0
 186 190 243 113 359 113 c 0
 406 113 447 124 503 151 c 1
 503 24 l 1
 457 3 408 -9 356 -11 c 1
 346 -38 l 1
 397 -50 427 -81 427 -136 c 0
 427 -198 387 -240 293 -240 c 0
EndSplineSet
Validated: 1048577
Substitution2: "'c2sc' Capitals to Small Capitals lookup 34 subtable" ccedilla.sc
Substitution2: "'aalt' Access All Alternates lookup 0 subtable" ccedilla.sc
EndChar

StartChar: Egrave
Encoding: 200 200 138
Width: 563
GlyphClass: 2
Flags: HW
AnchorPoint: "Anchor-2" 543 714 basechar 0
AnchorPoint: "Anchor-1" 282 934 basechar 0
AnchorPoint: "Anchor-0" 282 0 basechar 0
LayerCount: 2
Fore
SplineSet
292 774 m 1
 251 806 169 888 139 925 c 1
 139 934 l 1
 291 934 l 1
 313 891 359 820 384 787 c 1
 384 774 l 1
 292 774 l 1
71 0 m 1
 71 714 l 1
 501 714 l 1
 501 591 l 1
 206 591 l 1
 206 429 l 1
 485 429 l 1
 485 306 l 1
 206 306 l 1
 206 123 l 1
 501 123 l 1
 501 0 l 1
 71 0 l 1
EndSplineSet
Validated: 1048577
Substitution2: "'c2sc' Capitals to Small Capitals lookup 34 subtable" egrave.sc
Substitution2: "'aalt' Access All Alternates lookup 0 subtable" egrave.sc
EndChar

StartChar: Eacute
Encoding: 201 201 139
Width: 563
GlyphClass: 2
Flags: HW
AnchorPoint: "Anchor-2" 543 714 basechar 0
AnchorPoint: "Anchor-1" 282 934 basechar 0
AnchorPoint: "Anchor-0" 282 0 basechar 0
LayerCount: 2
Fore
SplineSet
221 787 m 1
 255 835 290 889 314 934 c 1
 466 934 l 1
 466 925 l 1
 435 887 361 814 313 774 c 1
 221 774 l 1
 221 787 l 1
71 0 m 1
 71 714 l 1
 501 714 l 1
 501 591 l 1
 206 591 l 1
 206 429 l 1
 485 429 l 1
 485 306 l 1
 206 306 l 1
 206 123 l 1
 501 123 l 1
 501 0 l 1
 71 0 l 1
EndSplineSet
Validated: 1048577
Substitution2: "'c2sc' Capitals to Small Capitals lookup 34 subtable" eacute.sc
Substitution2: "'aalt' Access All Alternates lookup 0 subtable" eacute.sc
EndChar

StartChar: Ecircumflex
Encoding: 202 202 140
Width: 563
GlyphClass: 2
Flags: HW
AnchorPoint: "Anchor-2" 543 714 basechar 0
AnchorPoint: "Anchor-1" 282 934 basechar 0
AnchorPoint: "Anchor-0" 282 0 basechar 0
LayerCount: 2
Fore
SplineSet
116 787 m 1
 149 826 199 894 221 934 c 1
 355 934 l 1
 379 890 422 832 458 787 c 1
 458 774 l 1
 376 774 l 1
 349 795 317 823 287 858 c 1
 256 823 225 793 200 774 c 1
 116 774 l 1
 116 787 l 1
71 0 m 1
 71 714 l 1
 501 714 l 1
 501 591 l 1
 206 591 l 1
 206 429 l 1
 485 429 l 1
 485 306 l 1
 206 306 l 1
 206 123 l 1
 501 123 l 1
 501 0 l 1
 71 0 l 1
EndSplineSet
Validated: 1048577
Substitution2: "'c2sc' Capitals to Small Capitals lookup 34 subtable" ecircumflex.sc
Substitution2: "'aalt' Access All Alternates lookup 0 subtable" ecircumflex.sc
EndChar

StartChar: Edieresis
Encoding: 203 203 141
Width: 563
GlyphClass: 2
Flags: HW
AnchorPoint: "Anchor-2" 543 714 basechar 0
AnchorPoint: "Anchor-1" 285 915 basechar 0
AnchorPoint: "Anchor-0" 282 0 basechar 0
LayerCount: 2
Fore
SplineSet
393 775 m 0
 354 775 326 800 326 846 c 0
 326 893 354 915 393 915 c 0
 432 915 461 891 461 846 c 0
 461 801 432 775 393 775 c 0
180 775 m 0
 141 775 113 799 113 846 c 0
 113 893 141 915 180 915 c 0
 218 915 247 891 247 846 c 0
 247 801 218 775 180 775 c 0
71 0 m 1
 71 714 l 1
 501 714 l 1
 501 591 l 1
 206 591 l 1
 206 429 l 1
 485 429 l 1
 485 306 l 1
 206 306 l 1
 206 123 l 1
 501 123 l 1
 501 0 l 1
 71 0 l 1
EndSplineSet
Validated: 1048577
Substitution2: "'c2sc' Capitals to Small Capitals lookup 34 subtable" edieresis.sc
Substitution2: "'aalt' Access All Alternates lookup 0 subtable" edieresis.sc
EndChar

StartChar: Igrave
Encoding: 204 204 142
Width: 563
GlyphClass: 2
Flags: HW
AnchorPoint: "Anchor-2" 543 714 basechar 0
AnchorPoint: "Anchor-1" 282 934 basechar 0
AnchorPoint: "Anchor-0" 282 0 basechar 0
LayerCount: 2
Fore
SplineSet
286 774 m 1
 246 806 163 888 134 925 c 1
 134 934 l 1
 285 934 l 1
 307 891 353 820 378 787 c 1
 378 774 l 1
 286 774 l 1
79 0 m 1
 79 100 l 1
 214 115 l 1
 214 600 l 1
 79 614 l 1
 79 714 l 1
 484 714 l 1
 484 614 l 1
 347 600 l 1
 347 115 l 1
 484 100 l 1
 484 0 l 1
 79 0 l 1
EndSplineSet
Validated: 1048577
Substitution2: "'c2sc' Capitals to Small Capitals lookup 34 subtable" igrave.sc
Substitution2: "'aalt' Access All Alternates lookup 0 subtable" igrave.sc
EndChar

StartChar: Iacute
Encoding: 205 205 143
Width: 563
GlyphClass: 2
Flags: HW
AnchorPoint: "Anchor-2" 543 714 basechar 0
AnchorPoint: "Anchor-1" 282 934 basechar 0
AnchorPoint: "Anchor-0" 282 0 basechar 0
LayerCount: 2
Fore
SplineSet
215 787 m 1
 250 835 285 889 308 934 c 1
 460 934 l 1
 460 925 l 1
 429 887 355 814 308 774 c 1
 215 774 l 1
 215 787 l 1
79 0 m 1
 79 100 l 1
 214 115 l 1
 214 600 l 1
 79 614 l 1
 79 714 l 1
 484 714 l 1
 484 614 l 1
 347 600 l 1
 347 115 l 1
 484 100 l 1
 484 0 l 1
 79 0 l 1
EndSplineSet
Validated: 1048577
Substitution2: "'c2sc' Capitals to Small Capitals lookup 34 subtable" iacute.sc
Substitution2: "'aalt' Access All Alternates lookup 0 subtable" iacute.sc
EndChar

StartChar: Icircumflex
Encoding: 206 206 144
Width: 563
GlyphClass: 2
Flags: HW
AnchorPoint: "Anchor-2" 543 714 basechar 0
AnchorPoint: "Anchor-1" 282 934 basechar 0
AnchorPoint: "Anchor-0" 282 0 basechar 0
LayerCount: 2
Fore
SplineSet
110 787 m 1
 144 826 193 894 215 934 c 1
 349 934 l 1
 373 890 416 832 453 787 c 1
 453 774 l 1
 370 774 l 1
 343 795 312 823 281 858 c 1
 250 823 219 793 194 774 c 1
 110 774 l 1
 110 787 l 1
79 0 m 1
 79 100 l 1
 214 115 l 1
 214 600 l 1
 79 614 l 1
 79 714 l 1
 484 714 l 1
 484 614 l 1
 347 600 l 1
 347 115 l 1
 484 100 l 1
 484 0 l 1
 79 0 l 1
EndSplineSet
Validated: 1048577
Substitution2: "'c2sc' Capitals to Small Capitals lookup 34 subtable" icircumflex.sc
Substitution2: "'aalt' Access All Alternates lookup 0 subtable" icircumflex.sc
EndChar

StartChar: Idieresis
Encoding: 207 207 145
Width: 563
GlyphClass: 2
Flags: HW
AnchorPoint: "Anchor-2" 543 714 basechar 0
AnchorPoint: "Anchor-1" 282 915 basechar 0
AnchorPoint: "Anchor-0" 282 0 basechar 0
LayerCount: 2
Fore
SplineSet
387 775 m 0
 348 775 321 800 321 846 c 0
 321 893 348 915 387 915 c 0
 426 915 455 891 455 846 c 0
 455 801 426 775 387 775 c 0
174 775 m 0
 136 775 108 799 108 846 c 0
 108 893 136 915 174 915 c 0
 213 915 241 891 241 846 c 0
 241 801 213 775 174 775 c 0
79 0 m 1
 79 100 l 1
 214 115 l 1
 214 600 l 1
 79 614 l 1
 79 714 l 1
 484 714 l 1
 484 614 l 1
 347 600 l 1
 347 115 l 1
 484 100 l 1
 484 0 l 1
 79 0 l 1
EndSplineSet
Validated: 1048577
Substitution2: "'c2sc' Capitals to Small Capitals lookup 34 subtable" idieresis.sc
Substitution2: "'aalt' Access All Alternates lookup 0 subtable" idieresis.sc
EndChar

StartChar: Eth
Encoding: 208 208 146
Width: 563
GlyphClass: 2
Flags: HW
AnchorPoint: "Anchor-3" 290 357 basechar 0
AnchorPoint: "Anchor-2" 567 714 basechar 0
AnchorPoint: "Anchor-1" 282 714 basechar 0
AnchorPoint: "Anchor-0" 282 0 basechar 0
LayerCount: 2
Fore
SplineSet
45 0 m 1
 45 303 l 1
 0 303 l 1
 0 414 l 1
 45 414 l 1
 45 714 l 1
 252 714 l 2
 431 714 541 594 541 366 c 0
 541 130 429 0 242 0 c 2
 45 0 l 1
234 122 m 2
 347 122 399 200 399 363 c 0
 399 523 347 592 244 592 c 2
 183 592 l 1
 183 414 l 1
 280 414 l 1
 280 303 l 1
 183 303 l 1
 183 122 l 1
 234 122 l 2
EndSplineSet
Validated: 1
Substitution2: "'c2sc' Capitals to Small Capitals lookup 34 subtable" eth.sc
Substitution2: "'aalt' Access All Alternates lookup 0 subtable" eth.sc
EndChar

StartChar: Ntilde
Encoding: 209 209 147
Width: 563
GlyphClass: 2
Flags: HW
AnchorPoint: "Anchor-2" 563 714 basechar 0
AnchorPoint: "Anchor-1" 282 922 basechar 0
AnchorPoint: "Anchor-0" 282 0 basechar 0
LayerCount: 2
Fore
SplineSet
107 773 m 1
 112 849 140 921 209 921 c 0
 265 921 313 870 358 870 c 0
 381 870 389 888 396 922 c 1
 466 922 l 1
 462 826 420 774 364 774 c 0
 311 774 255 825 215 825 c 0
 193 825 183 809 178 773 c 1
 107 773 l 1
41 0 m 1
 41 714 l 1
 238 714 l 1
 401 137 l 1
 406 137 l 1
 400 221 394 332 394 382 c 2
 394 714 l 1
 522 714 l 1
 522 0 l 1
 327 0 l 1
 163 581 l 1
 158 581 l 1
 164 494 169 399 169 355 c 2
 169 0 l 1
 41 0 l 1
EndSplineSet
Validated: 1048577
Substitution2: "'c2sc' Capitals to Small Capitals lookup 34 subtable" ntilde.sc
Substitution2: "'aalt' Access All Alternates lookup 0 subtable" ntilde.sc
EndChar

StartChar: Ograve
Encoding: 210 210 148
Width: 563
GlyphClass: 2
Flags: HW
AnchorPoint: "Anchor-3" 282 357 basechar 0
AnchorPoint: "Anchor-2" 563 714 basechar 0
AnchorPoint: "Anchor-1" 282 934 basechar 0
AnchorPoint: "Anchor-0" 282 0 basechar 0
LayerCount: 2
Fore
SplineSet
286 774 m 1
 246 806 163 888 134 925 c 1
 134 934 l 1
 285 934 l 1
 307 891 353 820 378 787 c 1
 378 774 l 1
 286 774 l 1
282 -9 m 0
 106 -9 26 131 26 358 c 0
 26 593 109 726 282 726 c 0
 457 726 537 587 537 358 c 0
 537 130 457 -9 282 -9 c 0
282 113 m 0
 361 113 395 196 395 359 c 0
 395 521 362 604 282 604 c 0
 202 604 168 518 168 358 c 0
 168 198 201 113 282 113 c 0
EndSplineSet
Validated: 1
Substitution2: "'c2sc' Capitals to Small Capitals lookup 34 subtable" ograve.sc
Substitution2: "'aalt' Access All Alternates lookup 0 subtable" ograve.sc
EndChar

StartChar: Oacute
Encoding: 211 211 149
Width: 563
GlyphClass: 2
Flags: HW
AnchorPoint: "Anchor-3" 282 357 basechar 0
AnchorPoint: "Anchor-2" 563 714 basechar 0
AnchorPoint: "Anchor-1" 282 934 basechar 0
AnchorPoint: "Anchor-0" 282 0 basechar 0
LayerCount: 2
Fore
SplineSet
215 787 m 1
 250 835 285 889 308 934 c 1
 460 934 l 1
 460 925 l 1
 429 887 355 814 308 774 c 1
 215 774 l 1
 215 787 l 1
282 -9 m 0
 106 -9 26 131 26 358 c 0
 26 593 109 726 282 726 c 0
 457 726 537 587 537 358 c 0
 537 130 457 -9 282 -9 c 0
282 113 m 0
 361 113 395 196 395 359 c 0
 395 521 362 604 282 604 c 0
 202 604 168 518 168 358 c 0
 168 198 201 113 282 113 c 0
EndSplineSet
Validated: 1
Substitution2: "'c2sc' Capitals to Small Capitals lookup 34 subtable" oacute.sc
Substitution2: "'aalt' Access All Alternates lookup 0 subtable" oacute.sc
EndChar

StartChar: Ocircumflex
Encoding: 212 212 150
Width: 563
GlyphClass: 2
Flags: HW
AnchorPoint: "Anchor-3" 282 357 basechar 0
AnchorPoint: "Anchor-2" 563 714 basechar 0
AnchorPoint: "Anchor-1" 282 934 basechar 0
AnchorPoint: "Anchor-0" 282 0 basechar 0
LayerCount: 2
Fore
SplineSet
110 787 m 1
 144 826 193 894 215 934 c 1
 349 934 l 1
 373 890 416 832 453 787 c 1
 453 774 l 1
 370 774 l 1
 343 795 312 823 281 858 c 1
 250 823 219 793 194 774 c 1
 110 774 l 1
 110 787 l 1
282 -9 m 0
 106 -9 26 131 26 358 c 0
 26 593 109 726 282 726 c 0
 457 726 537 587 537 358 c 0
 537 130 457 -9 282 -9 c 0
282 113 m 0
 361 113 395 196 395 359 c 0
 395 521 362 604 282 604 c 0
 202 604 168 518 168 358 c 0
 168 198 201 113 282 113 c 0
EndSplineSet
Validated: 1
Substitution2: "'c2sc' Capitals to Small Capitals lookup 34 subtable" ocircumflex.sc
Substitution2: "'aalt' Access All Alternates lookup 0 subtable" ocircumflex.sc
EndChar

StartChar: Otilde
Encoding: 213 213 151
Width: 563
GlyphClass: 2
Flags: HW
AnchorPoint: "Anchor-3" 282 357 basechar 0
AnchorPoint: "Anchor-2" 563 714 basechar 0
AnchorPoint: "Anchor-1" 282 922 basechar 0
AnchorPoint: "Anchor-0" 282 0 basechar 0
LayerCount: 2
Fore
SplineSet
102 773 m 1
 107 849 135 921 204 921 c 0
 260 921 308 870 353 870 c 0
 376 870 384 888 391 922 c 1
 461 922 l 1
 457 826 415 774 359 774 c 0
 306 774 250 825 210 825 c 0
 188 825 178 809 173 773 c 1
 102 773 l 1
282 -9 m 0
 106 -9 26 131 26 358 c 0
 26 593 109 726 282 726 c 0
 457 726 537 587 537 358 c 0
 537 130 457 -9 282 -9 c 0
282 113 m 0
 361 113 395 196 395 359 c 0
 395 521 362 604 282 604 c 0
 202 604 168 518 168 358 c 0
 168 198 201 113 282 113 c 0
EndSplineSet
Validated: 1
Substitution2: "'c2sc' Capitals to Small Capitals lookup 34 subtable" otilde.sc
Substitution2: "'aalt' Access All Alternates lookup 0 subtable" otilde.sc
EndChar

StartChar: Odieresis
Encoding: 214 214 152
Width: 563
GlyphClass: 2
Flags: HW
AnchorPoint: "Anchor-3" 282 357 basechar 0
AnchorPoint: "Anchor-2" 563 714 basechar 0
AnchorPoint: "Anchor-1" 282 915 basechar 0
AnchorPoint: "Anchor-0" 282 0 basechar 0
LayerCount: 2
Fore
SplineSet
387 775 m 0
 348 775 321 800 321 846 c 0
 321 893 348 915 387 915 c 0
 426 915 455 891 455 846 c 0
 455 801 426 775 387 775 c 0
174 775 m 0
 136 775 108 799 108 846 c 0
 108 893 136 915 174 915 c 0
 213 915 241 891 241 846 c 0
 241 801 213 775 174 775 c 0
282 -9 m 0
 106 -9 26 131 26 358 c 0
 26 593 109 726 282 726 c 0
 457 726 537 587 537 358 c 0
 537 130 457 -9 282 -9 c 0
282 113 m 0
 361 113 395 196 395 359 c 0
 395 521 362 604 282 604 c 0
 202 604 168 518 168 358 c 0
 168 198 201 113 282 113 c 0
EndSplineSet
Validated: 1
Substitution2: "'c2sc' Capitals to Small Capitals lookup 34 subtable" odieresis.sc
Substitution2: "'aalt' Access All Alternates lookup 0 subtable" odieresis.sc
EndChar

StartChar: multiply
Encoding: 215 215 153
Width: 563
Flags: HW
LayerCount: 2
Fore
SplineSet
142 141 m 1
 70 216 l 1
 206 353 l 1
 69 490 l 1
 142 565 l 1
 281 429 l 1
 420 565 l 1
 494 492 l 1
 355 353 l 1
 492 215 l 1
 419 141 l 1
 281 279 l 1
 142 141 l 1
EndSplineSet
Validated: 1
EndChar

StartChar: Oslash
Encoding: 216 216 154
Width: 563
GlyphClass: 2
Flags: HW
AnchorPoint: "Anchor-3" 282 357 basechar 0
AnchorPoint: "Anchor-2" 563 714 basechar 0
AnchorPoint: "Anchor-1" 282 714 basechar 0
AnchorPoint: "Anchor-0" 282 0 basechar 0
LayerCount: 2
Fore
SplineSet
89 -46 m 1
 16 -2 l 1
 80 103 l 1
 44 166 26 252 26 358 c 0
 26 593 109 726 282 726 c 0
 342 726 391 710 429 679 c 1
 473 752 l 1
 545 709 l 1
 486 611 l 1
 520 548 537 463 537 358 c 0
 537 130 457 -9 282 -9 c 0
 223 -9 176 6 138 35 c 1
 89 -46 l 1
168 358 m 0
 168 321 170 287 174 258 c 1
 358 562 l 1
 340 590 315 604 282 604 c 0
 202 604 168 518 168 358 c 0
282 113 m 0
 361 113 395 196 395 359 c 0
 395 394 394 425 390 453 c 1
 208 151 l 1
 226 126 250 113 282 113 c 0
EndSplineSet
Validated: 1
Substitution2: "'c2sc' Capitals to Small Capitals lookup 34 subtable" oslash.sc
Substitution2: "'aalt' Access All Alternates lookup 0 subtable" oslash.sc
EndChar

StartChar: Ugrave
Encoding: 217 217 155
Width: 563
GlyphClass: 2
Flags: HW
AnchorPoint: "Anchor-2" 543 714 basechar 0
AnchorPoint: "Anchor-1" 282 934 basechar 0
AnchorPoint: "Anchor-0" 282 0 basechar 0
LayerCount: 2
Fore
SplineSet
286 774 m 1
 246 806 163 888 134 925 c 1
 134 934 l 1
 285 934 l 1
 307 891 353 820 378 787 c 1
 378 774 l 1
 286 774 l 1
279 -10 m 0
 124 -10 41 77 41 231 c 2
 41 714 l 1
 180 714 l 1
 180 255 l 2
 180 152 213 112 281 112 c 0
 353 112 383 153 383 256 c 2
 383 714 l 1
 522 714 l 1
 522 229 l 2
 522 82 441 -10 279 -10 c 0
EndSplineSet
Validated: 1048577
Substitution2: "'c2sc' Capitals to Small Capitals lookup 34 subtable" ugrave.sc
Substitution2: "'aalt' Access All Alternates lookup 0 subtable" ugrave.sc
EndChar

StartChar: Uacute
Encoding: 218 218 156
Width: 563
GlyphClass: 2
Flags: HW
AnchorPoint: "Anchor-2" 543 714 basechar 0
AnchorPoint: "Anchor-1" 282 934 basechar 0
AnchorPoint: "Anchor-0" 282 0 basechar 0
LayerCount: 2
Fore
SplineSet
215 787 m 1
 250 835 285 889 308 934 c 1
 460 934 l 1
 460 925 l 1
 429 887 355 814 308 774 c 1
 215 774 l 1
 215 787 l 1
279 -10 m 0
 124 -10 41 77 41 231 c 2
 41 714 l 1
 180 714 l 1
 180 255 l 2
 180 152 213 112 281 112 c 0
 353 112 383 153 383 256 c 2
 383 714 l 1
 522 714 l 1
 522 229 l 2
 522 82 441 -10 279 -10 c 0
EndSplineSet
Validated: 1048577
Substitution2: "'c2sc' Capitals to Small Capitals lookup 34 subtable" uacute.sc
Substitution2: "'aalt' Access All Alternates lookup 0 subtable" uacute.sc
EndChar

StartChar: Ucircumflex
Encoding: 219 219 157
Width: 563
GlyphClass: 2
Flags: HW
AnchorPoint: "Anchor-2" 543 714 basechar 0
AnchorPoint: "Anchor-1" 282 934 basechar 0
AnchorPoint: "Anchor-0" 282 0 basechar 0
LayerCount: 2
Fore
SplineSet
110 787 m 1
 144 826 193 894 215 934 c 1
 349 934 l 1
 373 890 416 832 453 787 c 1
 453 774 l 1
 370 774 l 1
 343 795 312 823 281 858 c 1
 250 823 219 793 194 774 c 1
 110 774 l 1
 110 787 l 1
279 -10 m 0
 124 -10 41 77 41 231 c 2
 41 714 l 1
 180 714 l 1
 180 255 l 2
 180 152 213 112 281 112 c 0
 353 112 383 153 383 256 c 2
 383 714 l 1
 522 714 l 1
 522 229 l 2
 522 82 441 -10 279 -10 c 0
EndSplineSet
Validated: 1048577
Substitution2: "'c2sc' Capitals to Small Capitals lookup 34 subtable" ucircumflex.sc
Substitution2: "'aalt' Access All Alternates lookup 0 subtable" ucircumflex.sc
EndChar

StartChar: Udieresis
Encoding: 220 220 158
Width: 563
GlyphClass: 2
Flags: HW
AnchorPoint: "Anchor-2" 543 714 basechar 0
AnchorPoint: "Anchor-1" 282 915 basechar 0
AnchorPoint: "Anchor-0" 282 0 basechar 0
LayerCount: 2
Fore
SplineSet
387 775 m 0
 348 775 321 800 321 846 c 0
 321 893 348 915 387 915 c 0
 426 915 455 891 455 846 c 0
 455 801 426 775 387 775 c 0
174 775 m 0
 136 775 108 799 108 846 c 0
 108 893 136 915 174 915 c 0
 213 915 241 891 241 846 c 0
 241 801 213 775 174 775 c 0
279 -10 m 0
 124 -10 41 77 41 231 c 2
 41 714 l 1
 180 714 l 1
 180 255 l 2
 180 152 213 112 281 112 c 0
 353 112 383 153 383 256 c 2
 383 714 l 1
 522 714 l 1
 522 229 l 2
 522 82 441 -10 279 -10 c 0
EndSplineSet
Validated: 1048577
Substitution2: "'c2sc' Capitals to Small Capitals lookup 34 subtable" udieresis.sc
Substitution2: "'aalt' Access All Alternates lookup 0 subtable" udieresis.sc
EndChar

StartChar: Yacute
Encoding: 221 221 159
Width: 563
GlyphClass: 2
Flags: HW
AnchorPoint: "Anchor-2" 543 714 basechar 0
AnchorPoint: "Anchor-1" 282 934 basechar 0
AnchorPoint: "Anchor-0" 282 0 basechar 0
LayerCount: 2
Fore
SplineSet
215 787 m 1
 250 835 285 889 308 934 c 1
 460 934 l 1
 460 925 l 1
 429 887 355 814 308 774 c 1
 215 774 l 1
 215 787 l 1
213 0 m 1
 213 277 l 1
 16 714 l 1
 167 714 l 1
 283 412 l 1
 396 714 l 1
 547 714 l 1
 351 277 l 1
 351 0 l 1
 213 0 l 1
EndSplineSet
Validated: 1048577
Substitution2: "'c2sc' Capitals to Small Capitals lookup 34 subtable" yacute.sc
Substitution2: "'aalt' Access All Alternates lookup 0 subtable" yacute.sc
EndChar

StartChar: Thorn
Encoding: 222 222 160
Width: 563
GlyphClass: 2
Flags: HW
AnchorPoint: "Anchor-1" 282 714 basechar 0
AnchorPoint: "Anchor-0" 282 0 basechar 0
LayerCount: 2
Fore
SplineSet
71 0 m 1
 71 714 l 1
 206 714 l 1
 206 594 l 1
 293 594 l 2
 450 594 526 515 526 372 c 0
 526 229 453 134 285 134 c 2
 206 134 l 1
 206 0 l 1
 71 0 l 1
270 256 m 2
 346 256 387 292 387 368 c 0
 387 440 353 473 285 473 c 2
 206 473 l 1
 206 256 l 1
 270 256 l 2
EndSplineSet
Validated: 1048577
Substitution2: "'c2sc' Capitals to Small Capitals lookup 34 subtable" thorn.sc
Substitution2: "'aalt' Access All Alternates lookup 0 subtable" thorn.sc
EndChar

StartChar: germandbls
Encoding: 223 223 161
Width: 563
GlyphClass: 2
Flags: HW
AnchorPoint: "Anchor-1" 282 765 basechar 0
AnchorPoint: "Anchor-0" 282 0 basechar 0
LayerCount: 2
Fore
SplineSet
352 -10 m 0
 308 -10 264 -2 228 19 c 1
 228 140 l 1
 259 117 301 100 339 100 c 0
 380 100 401 120 401 158 c 0
 401 193 384 207 328 249 c 0
 274 289 241 328 241 387 c 0
 241 492 350 504 350 587 c 0
 350 630 319 652 274 652 c 0
 213 652 184 614 184 544 c 2
 184 0 l 1
 50 0 l 1
 50 554 l 2
 50 689 135 765 272 765 c 0
 394 765 484 705 484 600 c 0
 484 484 374 457 374 404 c 0
 374 375 406 353 444 323 c 0
 503 274 537 239 537 160 c 0
 537 51 473 -10 352 -10 c 0
EndSplineSet
Validated: 1048577
Substitution2: "'smcp' Lowercase to Small Capitals lookup 35 subtable" germandbls.sc
Substitution2: "'aalt' Access All Alternates lookup 0 subtable" germandbls.sc
EndChar

StartChar: agrave
Encoding: 224 224 162
Width: 563
GlyphClass: 2
Flags: HW
AnchorPoint: "Anchor-2" 543 546 basechar 0
AnchorPoint: "Anchor-1" 282 766 basechar 0
AnchorPoint: "Anchor-0" 282 0 basechar 0
LayerCount: 2
Fore
SplineSet
297 606 m 1
 256 638 174 720 144 757 c 1
 144 766 l 1
 296 766 l 1
 318 723 363 652 389 619 c 1
 389 606 l 1
 297 606 l 1
213 -10 m 0
 107 -10 50 55 50 158 c 0
 50 277 123 332 263 336 c 2
 371 339 l 1
 371 362 l 2
 371 414 337 440 269 440 c 0
 228 440 182 431 126 407 c 1
 79 508 l 1
 142 541 204 556 277 556 c 0
 425 556 504 493 504 364 c 2
 504 0 l 1
 401 0 l 1
 376 70 l 1
 373 70 l 1
 326 11 274 -10 213 -10 c 0
262 105 m 0
 322 105 371 144 371 208 c 2
 371 253 l 1
 300 251 l 2
 227 249 188 223 188 170 c 0
 188 125 220 105 262 105 c 0
EndSplineSet
Validated: 1048577
Substitution2: "'smcp' Lowercase to Small Capitals lookup 35 subtable" agrave.sc
Substitution2: "'aalt' Access All Alternates lookup 0 subtable" agrave.sc
EndChar

StartChar: aacute
Encoding: 225 225 163
Width: 563
GlyphClass: 2
Flags: HW
AnchorPoint: "Anchor-2" 543 546 basechar 0
AnchorPoint: "Anchor-1" 282 766 basechar 0
AnchorPoint: "Anchor-0" 282 0 basechar 0
LayerCount: 2
Fore
SplineSet
226 619 m 1
 260 667 295 721 319 766 c 1
 471 766 l 1
 471 757 l 1
 440 719 366 646 318 606 c 1
 226 606 l 1
 226 619 l 1
213 -10 m 0
 107 -10 50 55 50 158 c 0
 50 277 123 332 263 336 c 2
 371 339 l 1
 371 362 l 2
 371 414 337 440 269 440 c 0
 228 440 182 431 126 407 c 1
 79 508 l 1
 142 541 204 556 277 556 c 0
 425 556 504 493 504 364 c 2
 504 0 l 1
 401 0 l 1
 376 70 l 1
 373 70 l 1
 326 11 274 -10 213 -10 c 0
262 105 m 0
 322 105 371 144 371 208 c 2
 371 253 l 1
 300 251 l 2
 227 249 188 223 188 170 c 0
 188 125 220 105 262 105 c 0
EndSplineSet
Validated: 1048577
Substitution2: "'smcp' Lowercase to Small Capitals lookup 35 subtable" aacute.sc
Substitution2: "'aalt' Access All Alternates lookup 0 subtable" aacute.sc
EndChar

StartChar: acircumflex
Encoding: 226 226 164
Width: 563
GlyphClass: 2
Flags: HW
AnchorPoint: "Anchor-2" 543 546 basechar 0
AnchorPoint: "Anchor-1" 282 766 basechar 0
AnchorPoint: "Anchor-0" 282 0 basechar 0
LayerCount: 2
Fore
SplineSet
121 619 m 1
 154 658 204 726 225 766 c 1
 360 766 l 1
 384 722 427 664 463 619 c 1
 463 606 l 1
 381 606 l 1
 353 627 322 655 292 690 c 1
 261 655 230 625 204 606 c 1
 121 606 l 1
 121 619 l 1
213 -10 m 0
 107 -10 50 55 50 158 c 0
 50 277 123 332 263 336 c 2
 371 339 l 1
 371 362 l 2
 371 414 337 440 269 440 c 0
 228 440 182 431 126 407 c 1
 79 508 l 1
 142 541 204 556 277 556 c 0
 425 556 504 493 504 364 c 2
 504 0 l 1
 401 0 l 1
 376 70 l 1
 373 70 l 1
 326 11 274 -10 213 -10 c 0
262 105 m 0
 322 105 371 144 371 208 c 2
 371 253 l 1
 300 251 l 2
 227 249 188 223 188 170 c 0
 188 125 220 105 262 105 c 0
EndSplineSet
Validated: 1048577
Substitution2: "'smcp' Lowercase to Small Capitals lookup 35 subtable" acircumflex.sc
Substitution2: "'aalt' Access All Alternates lookup 0 subtable" acircumflex.sc
EndChar

StartChar: atilde
Encoding: 227 227 165
Width: 563
GlyphClass: 2
Flags: HW
AnchorPoint: "Anchor-2" 543 546 basechar 0
AnchorPoint: "Anchor-1" 282 754 basechar 0
AnchorPoint: "Anchor-0" 282 0 basechar 0
LayerCount: 2
Fore
SplineSet
113 605 m 1
 117 681 145 753 214 753 c 0
 270 753 319 702 364 702 c 0
 387 702 395 720 401 754 c 1
 472 754 l 1
 468 658 425 606 370 606 c 0
 317 606 260 657 220 657 c 0
 199 657 189 641 183 605 c 1
 113 605 l 1
213 -10 m 0
 107 -10 50 55 50 158 c 0
 50 277 123 332 263 336 c 2
 371 339 l 1
 371 362 l 2
 371 414 337 440 269 440 c 0
 228 440 182 431 126 407 c 1
 79 508 l 1
 142 541 204 556 277 556 c 0
 425 556 504 493 504 364 c 2
 504 0 l 1
 401 0 l 1
 376 70 l 1
 373 70 l 1
 326 11 274 -10 213 -10 c 0
262 105 m 0
 322 105 371 144 371 208 c 2
 371 253 l 1
 300 251 l 2
 227 249 188 223 188 170 c 0
 188 125 220 105 262 105 c 0
EndSplineSet
Validated: 1048577
Substitution2: "'smcp' Lowercase to Small Capitals lookup 35 subtable" atilde.sc
Substitution2: "'aalt' Access All Alternates lookup 0 subtable" atilde.sc
EndChar

StartChar: adieresis
Encoding: 228 228 166
Width: 563
GlyphClass: 2
Flags: HW
AnchorPoint: "Anchor-2" 543 546 basechar 0
AnchorPoint: "Anchor-1" 289 747 basechar 0
AnchorPoint: "Anchor-0" 282 0 basechar 0
LayerCount: 2
Fore
SplineSet
398 607 m 0
 359 607 331 632 331 678 c 0
 331 725 359 747 398 747 c 0
 437 747 466 723 466 678 c 0
 466 633 437 607 398 607 c 0
184 607 m 0
 146 607 118 631 118 678 c 0
 118 725 146 747 184 747 c 0
 223 747 252 723 252 678 c 0
 252 633 223 607 184 607 c 0
213 -10 m 0
 107 -10 50 55 50 158 c 0
 50 277 123 332 263 336 c 2
 371 339 l 1
 371 362 l 2
 371 414 337 440 269 440 c 0
 228 440 182 431 126 407 c 1
 79 508 l 1
 142 541 204 556 277 556 c 0
 425 556 504 493 504 364 c 2
 504 0 l 1
 401 0 l 1
 376 70 l 1
 373 70 l 1
 326 11 274 -10 213 -10 c 0
262 105 m 0
 322 105 371 144 371 208 c 2
 371 253 l 1
 300 251 l 2
 227 249 188 223 188 170 c 0
 188 125 220 105 262 105 c 0
EndSplineSet
Validated: 1048577
Substitution2: "'smcp' Lowercase to Small Capitals lookup 35 subtable" adieresis.sc
Substitution2: "'aalt' Access All Alternates lookup 0 subtable" adieresis.sc
EndChar

StartChar: aring
Encoding: 229 229 167
Width: 563
GlyphClass: 2
Flags: HW
AnchorPoint: "Anchor-2" 543 546 basechar 0
AnchorPoint: "Anchor-1" 282 834 basechar 0
AnchorPoint: "Anchor-0" 282 0 basechar 0
LayerCount: 2
Fore
SplineSet
291 606 m 0
 220 606 174 651 174 720 c 0
 174 789 220 834 291 834 c 0
 359 834 410 788 410 721 c 0
 410 653 361 606 291 606 c 0
292 674 m 0
 318 674 338 692 338 720 c 0
 338 748 319 766 292 766 c 0
 265 766 245 748 245 720 c 0
 245 692 262 674 292 674 c 0
213 -10 m 0
 107 -10 50 55 50 158 c 0
 50 277 123 332 263 336 c 2
 371 339 l 1
 371 362 l 2
 371 414 337 440 269 440 c 0
 228 440 182 431 126 407 c 1
 79 508 l 1
 142 541 204 556 277 556 c 0
 425 556 504 493 504 364 c 2
 504 0 l 1
 401 0 l 1
 376 70 l 1
 373 70 l 1
 326 11 274 -10 213 -10 c 0
262 105 m 0
 322 105 371 144 371 208 c 2
 371 253 l 1
 300 251 l 2
 227 249 188 223 188 170 c 0
 188 125 220 105 262 105 c 0
EndSplineSet
Validated: 1048577
Substitution2: "'smcp' Lowercase to Small Capitals lookup 35 subtable" aring.sc
Substitution2: "'aalt' Access All Alternates lookup 0 subtable" aring.sc
EndChar

StartChar: ae
Encoding: 230 230 168
Width: 563
GlyphClass: 2
Flags: HW
AnchorPoint: "Anchor-1" 282 546 basechar 0
AnchorPoint: "Anchor-0" 282 0 basechar 0
LayerCount: 2
Fore
SplineSet
140 -10 m 0
 59 -10 10 48 10 159 c 0
 10 271 61 327 167 332 c 2
 228 334 l 1
 228 372 l 2
 228 418 203 440 158 440 c 0
 134 440 111 433 81 418 c 1
 37 516 l 1
 80 543 128 556 175 556 c 0
 227 556 263 540 295 506 c 1
 326 540 362 556 405 556 c 0
 512 556 553 450 553 306 c 2
 553 239 l 1
 343 239 l 1
 345 147 388 101 450 101 c 0
 482 101 505 113 532 136 c 1
 532 28 l 1
 505 3 469 -10 426 -10 c 0
 361 -10 310 20 275 81 c 1
 242 21 200 -10 140 -10 c 0
440 331 m 1
 438 401 425 440 394 440 c 0
 361 440 347 396 346 331 c 1
 440 331 l 1
175 103 m 0
 211 103 228 145 228 207 c 2
 228 251 l 1
 197 251 l 2
 158 251 133 221 133 168 c 0
 133 122 152 103 175 103 c 0
EndSplineSet
Validated: 1048577
Substitution2: "'smcp' Lowercase to Small Capitals lookup 35 subtable" ae.sc
Substitution2: "'aalt' Access All Alternates lookup 0 subtable" ae.sc
EndChar

StartChar: ccedilla
Encoding: 231 231 169
Width: 563
GlyphClass: 2
Flags: HW
AnchorPoint: "Anchor-2" 543 546 basechar 0
AnchorPoint: "Anchor-1" 323 546 basechar 0
AnchorPoint: "Anchor-0" 302 -240 basechar 0
LayerCount: 2
Fore
SplineSet
288 -240 m 0
 262 -240 237 -237 217 -231 c 1
 217 -158 l 1
 234 -164 253 -166 268 -166 c 0
 299 -166 320 -155 320 -127 c 0
 320 -98 296 -85 247 -80 c 1
 278 -8 l 1
 134 7 65 100 65 266 c 0
 65 458 155 556 327 556 c 0
 382 556 441 546 496 521 c 1
 454 409 l 1
 406 430 369 436 338 436 c 0
 251 436 206 380 206 272 c 0
 206 159 256 111 339 111 c 0
 377 111 424 121 480 154 c 1
 480 27 l 1
 434 4 393 -6 352 -9 c 1
 340 -38 l 1
 391 -50 422 -81 422 -136 c 0
 422 -198 381 -240 288 -240 c 0
EndSplineSet
Validated: 1048577
Substitution2: "'smcp' Lowercase to Small Capitals lookup 35 subtable" ccedilla.sc
Substitution2: "'aalt' Access All Alternates lookup 0 subtable" ccedilla.sc
EndChar

StartChar: egrave
Encoding: 232 232 170
Width: 563
GlyphClass: 2
Flags: HW
AnchorPoint: "Anchor-2" 543 546 basechar 0
AnchorPoint: "Anchor-1" 282 766 basechar 0
AnchorPoint: "Anchor-0" 282 0 basechar 0
LayerCount: 2
Fore
SplineSet
296 606 m 1
 255 638 173 720 143 757 c 1
 143 766 l 1
 295 766 l 1
 317 723 363 652 388 619 c 1
 388 606 l 1
 296 606 l 1
324 -10 m 0
 144 -10 45 92 45 275 c 0
 45 449 133 556 290 556 c 0
 434 556 519 467 519 306 c 2
 519 232 l 1
 184 232 l 1
 188 151 251 108 338 108 c 0
 395 108 448 124 499 145 c 1
 499 29 l 1
 452 4 392 -10 324 -10 c 0
388 330 m 1
 387 404 347 444 291 444 c 0
 235 444 192 406 186 330 c 1
 388 330 l 1
EndSplineSet
Validated: 1048577
Substitution2: "'smcp' Lowercase to Small Capitals lookup 35 subtable" egrave.sc
Substitution2: "'aalt' Access All Alternates lookup 0 subtable" egrave.sc
EndChar

StartChar: eacute
Encoding: 233 233 171
Width: 563
GlyphClass: 2
Flags: HW
AnchorPoint: "Anchor-2" 543 546 basechar 0
AnchorPoint: "Anchor-1" 282 766 basechar 0
AnchorPoint: "Anchor-0" 282 0 basechar 0
LayerCount: 2
Fore
SplineSet
225 619 m 1
 259 667 294 721 318 766 c 1
 470 766 l 1
 470 757 l 1
 439 719 365 646 317 606 c 1
 225 606 l 1
 225 619 l 1
324 -10 m 0
 144 -10 45 92 45 275 c 0
 45 449 133 556 290 556 c 0
 434 556 519 467 519 306 c 2
 519 232 l 1
 184 232 l 1
 188 151 251 108 338 108 c 0
 395 108 448 124 499 145 c 1
 499 29 l 1
 452 4 392 -10 324 -10 c 0
388 330 m 1
 387 404 347 444 291 444 c 0
 235 444 192 406 186 330 c 1
 388 330 l 1
EndSplineSet
Validated: 1048577
Substitution2: "'smcp' Lowercase to Small Capitals lookup 35 subtable" eacute.sc
Substitution2: "'aalt' Access All Alternates lookup 0 subtable" eacute.sc
EndChar

StartChar: ecircumflex
Encoding: 234 234 172
Width: 563
GlyphClass: 2
Flags: HW
AnchorPoint: "Anchor-2" 543 546 basechar 0
AnchorPoint: "Anchor-1" 282 766 basechar 0
AnchorPoint: "Anchor-0" 282 0 basechar 0
LayerCount: 2
Fore
SplineSet
120 619 m 1
 153 658 203 726 225 766 c 1
 359 766 l 1
 383 722 426 664 462 619 c 1
 462 606 l 1
 380 606 l 1
 353 627 321 655 291 690 c 1
 260 655 229 625 204 606 c 1
 120 606 l 1
 120 619 l 1
324 -10 m 0
 144 -10 45 92 45 275 c 0
 45 449 133 556 290 556 c 0
 434 556 519 467 519 306 c 2
 519 232 l 1
 184 232 l 1
 188 151 251 108 338 108 c 0
 395 108 448 124 499 145 c 1
 499 29 l 1
 452 4 392 -10 324 -10 c 0
388 330 m 1
 387 404 347 444 291 444 c 0
 235 444 192 406 186 330 c 1
 388 330 l 1
EndSplineSet
Validated: 1048577
Substitution2: "'smcp' Lowercase to Small Capitals lookup 35 subtable" ecircumflex.sc
Substitution2: "'aalt' Access All Alternates lookup 0 subtable" ecircumflex.sc
EndChar

StartChar: edieresis
Encoding: 235 235 173
Width: 563
GlyphClass: 2
Flags: HW
AnchorPoint: "Anchor-2" 543 546 basechar 0
AnchorPoint: "Anchor-1" 282 747 basechar 0
AnchorPoint: "Anchor-0" 282 0 basechar 0
LayerCount: 2
Fore
SplineSet
397 607 m 0
 358 607 330 632 330 678 c 0
 330 725 358 747 397 747 c 0
 436 747 465 723 465 678 c 0
 465 633 436 607 397 607 c 0
184 607 m 0
 145 607 117 631 117 678 c 0
 117 725 145 747 184 747 c 0
 222 747 251 723 251 678 c 0
 251 633 222 607 184 607 c 0
324 -10 m 0
 144 -10 45 92 45 275 c 0
 45 449 133 556 290 556 c 0
 434 556 519 467 519 306 c 2
 519 232 l 1
 184 232 l 1
 188 151 251 108 338 108 c 0
 395 108 448 124 499 145 c 1
 499 29 l 1
 452 4 392 -10 324 -10 c 0
388 330 m 1
 387 404 347 444 291 444 c 0
 235 444 192 406 186 330 c 1
 388 330 l 1
EndSplineSet
Validated: 1048577
Substitution2: "'smcp' Lowercase to Small Capitals lookup 35 subtable" edieresis.sc
Substitution2: "'aalt' Access All Alternates lookup 0 subtable" edieresis.sc
EndChar

StartChar: igrave
Encoding: 236 236 174
Width: 563
GlyphClass: 2
Flags: HW
AnchorPoint: "Anchor-3" 291 291 basechar 0
AnchorPoint: "Anchor-1" 282 766 basechar 0
AnchorPoint: "Anchor-0" 282 0 basechar 0
LayerCount: 2
Fore
SplineSet
286 606 m 1
 246 638 163 720 134 757 c 1
 134 766 l 1
 285 766 l 1
 307 723 353 652 378 619 c 1
 378 606 l 1
 286 606 l 1
58 0 m 1
 58 92 l 1
 225 115 l 1
 225 431 l 1
 82 446 l 1
 82 546 l 1
 364 546 l 1
 364 115 l 1
 512 92 l 1
 512 0 l 1
 58 0 l 1
EndSplineSet
Validated: 1048577
Substitution2: "'smcp' Lowercase to Small Capitals lookup 35 subtable" igrave.sc
Substitution2: "'aalt' Access All Alternates lookup 0 subtable" igrave.sc
EndChar

StartChar: iacute
Encoding: 237 237 175
Width: 563
GlyphClass: 2
Flags: HW
AnchorPoint: "Anchor-3" 291 291 basechar 0
AnchorPoint: "Anchor-1" 282 766 basechar 0
AnchorPoint: "Anchor-0" 282 0 basechar 0
LayerCount: 2
Fore
SplineSet
215 619 m 1
 250 667 285 721 308 766 c 1
 460 766 l 1
 460 757 l 1
 429 719 355 646 308 606 c 1
 215 606 l 1
 215 619 l 1
58 0 m 1
 58 92 l 1
 225 115 l 1
 225 431 l 1
 82 446 l 1
 82 546 l 1
 364 546 l 1
 364 115 l 1
 512 92 l 1
 512 0 l 1
 58 0 l 1
EndSplineSet
Validated: 1048577
Substitution2: "'smcp' Lowercase to Small Capitals lookup 35 subtable" iacute.sc
Substitution2: "'aalt' Access All Alternates lookup 0 subtable" iacute.sc
EndChar

StartChar: icircumflex
Encoding: 238 238 176
Width: 563
GlyphClass: 2
Flags: HW
AnchorPoint: "Anchor-3" 291 291 basechar 0
AnchorPoint: "Anchor-1" 282 766 basechar 0
AnchorPoint: "Anchor-0" 282 0 basechar 0
LayerCount: 2
Fore
SplineSet
110 619 m 1
 144 658 193 726 215 766 c 1
 349 766 l 1
 373 722 416 664 453 619 c 1
 453 606 l 1
 370 606 l 1
 343 627 312 655 281 690 c 1
 250 655 219 625 194 606 c 1
 110 606 l 1
 110 619 l 1
58 0 m 1
 58 92 l 1
 225 115 l 1
 225 431 l 1
 82 446 l 1
 82 546 l 1
 364 546 l 1
 364 115 l 1
 512 92 l 1
 512 0 l 1
 58 0 l 1
EndSplineSet
Validated: 1048577
Substitution2: "'smcp' Lowercase to Small Capitals lookup 35 subtable" icircumflex.sc
Substitution2: "'aalt' Access All Alternates lookup 0 subtable" icircumflex.sc
EndChar

StartChar: idieresis
Encoding: 239 239 177
Width: 563
GlyphClass: 2
Flags: HW
AnchorPoint: "Anchor-3" 291 291 basechar 0
AnchorPoint: "Anchor-1" 282 747 basechar 0
AnchorPoint: "Anchor-0" 282 0 basechar 0
LayerCount: 2
Fore
SplineSet
387 607 m 0
 348 607 321 632 321 678 c 0
 321 725 348 747 387 747 c 0
 426 747 455 723 455 678 c 0
 455 633 426 607 387 607 c 0
174 607 m 0
 136 607 108 631 108 678 c 0
 108 725 136 747 174 747 c 0
 213 747 241 723 241 678 c 0
 241 633 213 607 174 607 c 0
58 0 m 1
 58 92 l 1
 225 115 l 1
 225 431 l 1
 82 446 l 1
 82 546 l 1
 364 546 l 1
 364 115 l 1
 512 92 l 1
 512 0 l 1
 58 0 l 1
EndSplineSet
Validated: 1048577
Substitution2: "'smcp' Lowercase to Small Capitals lookup 35 subtable" idieresis.sc
Substitution2: "'aalt' Access All Alternates lookup 0 subtable" idieresis.sc
EndChar

StartChar: eth
Encoding: 240 240 178
Width: 563
GlyphClass: 2
Flags: HW
AnchorPoint: "Anchor-3" 282 273 basechar 0
AnchorPoint: "Anchor-2" 543 760 basechar 0
AnchorPoint: "Anchor-1" 282 765 basechar 0
AnchorPoint: "Anchor-0" 282 0 basechar 0
LayerCount: 2
Fore
SplineSet
277 -10 m 0
 131 -10 36 85 36 239 c 0
 36 395 127 485 253 485 c 0
 308 485 347 472 370 444 c 1
 373 446 l 1
 355 500 322 546 283 586 c 1
 184 521 l 1
 137 590 l 1
 217 642 l 1
 195 659 172 674 149 688 c 1
 199 765 l 1
 239 748 276 727 310 703 c 1
 404 764 l 1
 452 696 l 1
 376 647 l 1
 475 547 527 415 527 276 c 0
 527 93 431 -10 277 -10 c 0
279 95 m 0
 355 95 389 148 389 250 c 0
 389 323 354 379 278 379 c 0
 205 379 174 332 174 237 c 0
 174 151 204 95 279 95 c 0
EndSplineSet
Validated: 1
Substitution2: "'smcp' Lowercase to Small Capitals lookup 35 subtable" eth.sc
Substitution2: "'aalt' Access All Alternates lookup 0 subtable" eth.sc
EndChar

StartChar: ntilde
Encoding: 241 241 179
Width: 563
GlyphClass: 2
Flags: HW
AnchorPoint: "Anchor-2" 543 546 basechar 0
AnchorPoint: "Anchor-1" 282 754 basechar 0
AnchorPoint: "Anchor-0" 282 0 basechar 0
LayerCount: 2
Fore
SplineSet
109 605 m 1
 113 681 141 753 210 753 c 0
 266 753 315 702 360 702 c 0
 383 702 390 720 397 754 c 1
 467 754 l 1
 463 658 421 606 366 606 c 0
 312 606 256 657 216 657 c 0
 194 657 184 641 179 605 c 1
 109 605 l 1
51 0 m 1
 51 546 l 1
 159 546 l 1
 181 479 l 1
 188 479 l 1
 218 529 269 556 342 556 c 0
 457 556 517 490 517 362 c 2
 517 0 l 1
 378 0 l 1
 378 325 l 2
 378 403 350 439 293 439 c 0
 219 439 190 378 190 268 c 2
 190 0 l 1
 51 0 l 1
EndSplineSet
Validated: 1048577
Substitution2: "'smcp' Lowercase to Small Capitals lookup 35 subtable" ntilde.sc
Substitution2: "'aalt' Access All Alternates lookup 0 subtable" ntilde.sc
EndChar

StartChar: ograve
Encoding: 242 242 180
Width: 563
GlyphClass: 2
Flags: HW
AnchorPoint: "Anchor-3" 282 273 basechar 0
AnchorPoint: "Anchor-2" 543 546 basechar 0
AnchorPoint: "Anchor-1" 282 766 basechar 0
AnchorPoint: "Anchor-0" 282 0 basechar 0
LayerCount: 2
Fore
SplineSet
286 606 m 1
 246 638 163 720 134 757 c 1
 134 766 l 1
 285 766 l 1
 307 723 353 652 378 619 c 1
 378 606 l 1
 286 606 l 1
284 -10 m 0
 122 -10 36 108 36 273 c 0
 36 439 124 556 283 556 c 0
 433 556 527 453 527 271 c 0
 527 107 447 -10 284 -10 c 0
284 107 m 0
 355 107 386 165 386 272 c 0
 386 379 356 439 284 439 c 0
 210 439 178 376 178 273 c 0
 178 168 211 107 284 107 c 0
EndSplineSet
Validated: 1
Substitution2: "'smcp' Lowercase to Small Capitals lookup 35 subtable" ograve.sc
Substitution2: "'aalt' Access All Alternates lookup 0 subtable" ograve.sc
EndChar

StartChar: oacute
Encoding: 243 243 181
Width: 563
GlyphClass: 2
Flags: HW
AnchorPoint: "Anchor-3" 282 273 basechar 0
AnchorPoint: "Anchor-2" 543 546 basechar 0
AnchorPoint: "Anchor-1" 282 766 basechar 0
AnchorPoint: "Anchor-0" 282 0 basechar 0
LayerCount: 2
Fore
SplineSet
215 619 m 1
 250 667 285 721 308 766 c 1
 460 766 l 1
 460 757 l 1
 429 719 355 646 308 606 c 1
 215 606 l 1
 215 619 l 1
284 -10 m 0
 122 -10 36 108 36 273 c 0
 36 439 124 556 283 556 c 0
 433 556 527 453 527 271 c 0
 527 107 447 -10 284 -10 c 0
284 107 m 0
 355 107 386 165 386 272 c 0
 386 379 356 439 284 439 c 0
 210 439 178 376 178 273 c 0
 178 168 211 107 284 107 c 0
EndSplineSet
Validated: 1
Substitution2: "'smcp' Lowercase to Small Capitals lookup 35 subtable" oacute.sc
Substitution2: "'aalt' Access All Alternates lookup 0 subtable" oacute.sc
EndChar

StartChar: ocircumflex
Encoding: 244 244 182
Width: 563
GlyphClass: 2
Flags: HW
AnchorPoint: "Anchor-3" 282 273 basechar 0
AnchorPoint: "Anchor-2" 543 546 basechar 0
AnchorPoint: "Anchor-1" 282 766 basechar 0
AnchorPoint: "Anchor-0" 282 0 basechar 0
LayerCount: 2
Fore
SplineSet
110 619 m 1
 144 658 193 726 215 766 c 1
 349 766 l 1
 373 722 416 664 453 619 c 1
 453 606 l 1
 370 606 l 1
 343 627 312 655 281 690 c 1
 250 655 219 625 194 606 c 1
 110 606 l 1
 110 619 l 1
284 -10 m 0
 122 -10 36 108 36 273 c 0
 36 439 124 556 283 556 c 0
 433 556 527 453 527 271 c 0
 527 107 447 -10 284 -10 c 0
284 107 m 0
 355 107 386 165 386 272 c 0
 386 379 356 439 284 439 c 0
 210 439 178 376 178 273 c 0
 178 168 211 107 284 107 c 0
EndSplineSet
Validated: 1
Substitution2: "'smcp' Lowercase to Small Capitals lookup 35 subtable" ocircumflex.sc
Substitution2: "'aalt' Access All Alternates lookup 0 subtable" ocircumflex.sc
EndChar

StartChar: otilde
Encoding: 245 245 183
Width: 563
GlyphClass: 2
Flags: HW
AnchorPoint: "Anchor-3" 282 273 basechar 0
AnchorPoint: "Anchor-2" 543 546 basechar 0
AnchorPoint: "Anchor-1" 282 754 basechar 0
AnchorPoint: "Anchor-0" 282 0 basechar 0
LayerCount: 2
Fore
SplineSet
102 605 m 1
 107 681 135 753 204 753 c 0
 260 753 308 702 353 702 c 0
 376 702 384 720 391 754 c 1
 461 754 l 1
 457 658 415 606 359 606 c 0
 306 606 250 657 210 657 c 0
 188 657 178 641 173 605 c 1
 102 605 l 1
284 -10 m 0
 122 -10 36 108 36 273 c 0
 36 439 124 556 283 556 c 0
 433 556 527 453 527 271 c 0
 527 107 447 -10 284 -10 c 0
284 107 m 0
 355 107 386 165 386 272 c 0
 386 379 356 439 284 439 c 0
 210 439 178 376 178 273 c 0
 178 168 211 107 284 107 c 0
EndSplineSet
Validated: 1
Substitution2: "'smcp' Lowercase to Small Capitals lookup 35 subtable" otilde.sc
Substitution2: "'aalt' Access All Alternates lookup 0 subtable" otilde.sc
EndChar

StartChar: odieresis
Encoding: 246 246 184
Width: 563
GlyphClass: 2
Flags: HW
AnchorPoint: "Anchor-3" 282 273 basechar 0
AnchorPoint: "Anchor-2" 543 546 basechar 0
AnchorPoint: "Anchor-1" 282 747 basechar 0
AnchorPoint: "Anchor-0" 282 0 basechar 0
LayerCount: 2
Fore
SplineSet
387 607 m 0
 348 607 321 632 321 678 c 0
 321 725 348 747 387 747 c 0
 426 747 455 723 455 678 c 0
 455 633 426 607 387 607 c 0
174 607 m 0
 136 607 108 631 108 678 c 0
 108 725 136 747 174 747 c 0
 213 747 241 723 241 678 c 0
 241 633 213 607 174 607 c 0
284 -10 m 0
 122 -10 36 108 36 273 c 0
 36 439 124 556 283 556 c 0
 433 556 527 453 527 271 c 0
 527 107 447 -10 284 -10 c 0
284 107 m 0
 355 107 386 165 386 272 c 0
 386 379 356 439 284 439 c 0
 210 439 178 376 178 273 c 0
 178 168 211 107 284 107 c 0
EndSplineSet
Validated: 1
Substitution2: "'smcp' Lowercase to Small Capitals lookup 35 subtable" odieresis.sc
Substitution2: "'aalt' Access All Alternates lookup 0 subtable" odieresis.sc
EndChar

StartChar: divide
Encoding: 247 247 185
Width: 563
Flags: HW
LayerCount: 2
Fore
SplineSet
283 461 m 0
 242 461 215 486 215 536 c 0
 215 586 241 611 283 611 c 0
 323 611 348 586 348 536 c 0
 348 486 322 461 283 461 c 0
63 301 m 1
 63 405 l 1
 501 405 l 1
 501 301 l 1
 63 301 l 1
283 94 m 0
 242 94 215 120 215 170 c 0
 215 220 241 244 283 244 c 0
 323 244 348 220 348 170 c 0
 348 120 322 94 283 94 c 0
EndSplineSet
Validated: 1
EndChar

StartChar: oslash
Encoding: 248 248 186
Width: 563
GlyphClass: 2
Flags: HW
AnchorPoint: "Anchor-3" 282 273 basechar 0
AnchorPoint: "Anchor-2" 543 546 basechar 0
AnchorPoint: "Anchor-1" 282 546 basechar 0
AnchorPoint: "Anchor-0" 282 0 basechar 0
LayerCount: 2
Fore
SplineSet
139 -43 m 1
 69 -1 l 1
 107 61 l 1
 60 112 36 186 36 273 c 0
 36 439 124 556 283 556 c 0
 324 556 361 549 393 533 c 1
 425 585 l 1
 494 541 l 1
 459 484 l 1
 503 435 527 363 527 271 c 0
 527 107 447 -10 284 -10 c 0
 242 -10 205 -2 173 13 c 1
 139 -43 l 1
178 273 m 0
 178 242 181 215 187 193 c 1
 330 428 l 1
 317 436 302 439 284 439 c 0
 210 439 178 376 178 273 c 0
284 107 m 0
 355 107 386 165 386 272 c 0
 386 302 383 328 378 351 c 1
 237 118 l 1
 250 111 266 107 284 107 c 0
EndSplineSet
Validated: 1
Substitution2: "'smcp' Lowercase to Small Capitals lookup 35 subtable" oslash.sc
Substitution2: "'aalt' Access All Alternates lookup 0 subtable" oslash.sc
EndChar

StartChar: ugrave
Encoding: 249 249 187
Width: 563
GlyphClass: 2
Flags: HW
AnchorPoint: "Anchor-2" 543 546 basechar 0
AnchorPoint: "Anchor-1" 282 766 basechar 0
AnchorPoint: "Anchor-0" 282 0 basechar 0
LayerCount: 2
Fore
SplineSet
286 606 m 1
 246 638 163 720 134 757 c 1
 134 766 l 1
 285 766 l 1
 307 723 353 652 378 619 c 1
 378 606 l 1
 286 606 l 1
217 -10 m 0
 105 -10 46 60 46 190 c 2
 46 546 l 1
 185 546 l 1
 185 227 l 2
 185 152 204 109 269 109 c 0
 354 109 373 176 373 289 c 2
 373 546 l 1
 512 546 l 1
 512 0 l 1
 405 0 l 1
 382 70 l 1
 374 70 l 1
 344 19 289 -10 217 -10 c 0
EndSplineSet
Validated: 1048577
Substitution2: "'smcp' Lowercase to Small Capitals lookup 35 subtable" ugrave.sc
Substitution2: "'aalt' Access All Alternates lookup 0 subtable" ugrave.sc
EndChar

StartChar: uacute
Encoding: 250 250 188
Width: 563
GlyphClass: 2
Flags: HW
AnchorPoint: "Anchor-2" 543 546 basechar 0
AnchorPoint: "Anchor-1" 282 766 basechar 0
AnchorPoint: "Anchor-0" 282 0 basechar 0
LayerCount: 2
Fore
SplineSet
215 619 m 1
 250 667 285 721 308 766 c 1
 460 766 l 1
 460 757 l 1
 429 719 355 646 308 606 c 1
 215 606 l 1
 215 619 l 1
217 -10 m 0
 105 -10 46 60 46 190 c 2
 46 546 l 1
 185 546 l 1
 185 227 l 2
 185 152 204 109 269 109 c 0
 354 109 373 176 373 289 c 2
 373 546 l 1
 512 546 l 1
 512 0 l 1
 405 0 l 1
 382 70 l 1
 374 70 l 1
 344 19 289 -10 217 -10 c 0
EndSplineSet
Validated: 1048577
Substitution2: "'smcp' Lowercase to Small Capitals lookup 35 subtable" uacute.sc
Substitution2: "'aalt' Access All Alternates lookup 0 subtable" uacute.sc
EndChar

StartChar: ucircumflex
Encoding: 251 251 189
Width: 563
GlyphClass: 2
Flags: HW
AnchorPoint: "Anchor-2" 543 546 basechar 0
AnchorPoint: "Anchor-1" 282 766 basechar 0
AnchorPoint: "Anchor-0" 282 0 basechar 0
LayerCount: 2
Fore
SplineSet
110 619 m 1
 144 658 193 726 215 766 c 1
 349 766 l 1
 373 722 416 664 453 619 c 1
 453 606 l 1
 370 606 l 1
 343 627 312 655 281 690 c 1
 250 655 219 625 194 606 c 1
 110 606 l 1
 110 619 l 1
217 -10 m 0
 105 -10 46 60 46 190 c 2
 46 546 l 1
 185 546 l 1
 185 227 l 2
 185 152 204 109 269 109 c 0
 354 109 373 176 373 289 c 2
 373 546 l 1
 512 546 l 1
 512 0 l 1
 405 0 l 1
 382 70 l 1
 374 70 l 1
 344 19 289 -10 217 -10 c 0
EndSplineSet
Validated: 1048577
Substitution2: "'smcp' Lowercase to Small Capitals lookup 35 subtable" ucircumflex.sc
Substitution2: "'aalt' Access All Alternates lookup 0 subtable" ucircumflex.sc
EndChar

StartChar: udieresis
Encoding: 252 252 190
Width: 563
GlyphClass: 2
Flags: HW
AnchorPoint: "Anchor-2" 543 546 basechar 0
AnchorPoint: "Anchor-1" 282 747 basechar 0
AnchorPoint: "Anchor-0" 282 0 basechar 0
LayerCount: 2
Fore
SplineSet
387 607 m 0
 348 607 321 632 321 678 c 0
 321 725 348 747 387 747 c 0
 426 747 455 723 455 678 c 0
 455 633 426 607 387 607 c 0
174 607 m 0
 136 607 108 631 108 678 c 0
 108 725 136 747 174 747 c 0
 213 747 241 723 241 678 c 0
 241 633 213 607 174 607 c 0
217 -10 m 0
 105 -10 46 60 46 190 c 2
 46 546 l 1
 185 546 l 1
 185 227 l 2
 185 152 204 109 269 109 c 0
 354 109 373 176 373 289 c 2
 373 546 l 1
 512 546 l 1
 512 0 l 1
 405 0 l 1
 382 70 l 1
 374 70 l 1
 344 19 289 -10 217 -10 c 0
EndSplineSet
Validated: 1048577
Substitution2: "'smcp' Lowercase to Small Capitals lookup 35 subtable" udieresis.sc
Substitution2: "'aalt' Access All Alternates lookup 0 subtable" udieresis.sc
EndChar

StartChar: yacute
Encoding: 253 253 191
Width: 563
GlyphClass: 2
Flags: HW
AnchorPoint: "Anchor-2" 543 546 basechar 0
AnchorPoint: "Anchor-1" 282 766 basechar 0
AnchorPoint: "Anchor-0" 282 -245 basechar 0
LayerCount: 2
Fore
SplineSet
215 619 m 1
 250 667 285 721 308 766 c 1
 460 766 l 1
 460 757 l 1
 429 719 355 646 308 606 c 1
 215 606 l 1
 215 619 l 1
123 -245 m 0
 99 -245 75 -242 51 -237 c 1
 51 -120 l 1
 68 -124 87 -126 99 -126 c 0
 154 -126 190 -93 211 -31 c 2
 221 0 l 1
 16 546 l 1
 171 546 l 1
 267 233 l 2
 275 205 283 173 288 136 c 1
 291 136 l 1
 296 171 304 202 312 233 c 2
 395 546 l 1
 547 546 l 1
 353 -29 l 2
 306 -166 238 -245 123 -245 c 0
EndSplineSet
Validated: 1048577
Substitution2: "'smcp' Lowercase to Small Capitals lookup 35 subtable" yacute.sc
Substitution2: "'aalt' Access All Alternates lookup 0 subtable" yacute.sc
EndChar

StartChar: thorn
Encoding: 254 254 192
Width: 563
GlyphClass: 2
Flags: HW
AnchorPoint: "Anchor-1" 308 760 basechar 0
AnchorPoint: "Anchor-0" 308 -240 basechar 0
LayerCount: 2
Fore
SplineSet
51 -240 m 1
 51 760 l 1
 188 760 l 1
 188 567 l 2
 188 542 186 512 182 475 c 1
 188 475 l 1
 222 528 277 556 340 556 c 0
 472 556 527 432 527 277 c 0
 527 97 454 -10 335 -10 c 0
 278 -10 224 15 188 60 c 1
 181 60 l 1
 187 21 188 -2 188 -18 c 2
 188 -240 l 1
 51 -240 l 1
289 109 m 0
 354 109 382 162 382 277 c 0
 382 386 354 437 289 437 c 0
 224 437 188 387 188 291 c 2
 188 275 l 2
 188 163 223 109 289 109 c 0
EndSplineSet
Validated: 1048577
Substitution2: "'smcp' Lowercase to Small Capitals lookup 35 subtable" thorn.sc
Substitution2: "'aalt' Access All Alternates lookup 0 subtable" thorn.sc
EndChar

StartChar: ydieresis
Encoding: 255 255 193
Width: 563
GlyphClass: 2
Flags: HW
AnchorPoint: "Anchor-2" 543 546 basechar 0
AnchorPoint: "Anchor-1" 282 747 basechar 0
AnchorPoint: "Anchor-0" 282 -245 basechar 0
LayerCount: 2
Fore
SplineSet
387 607 m 0
 348 607 321 632 321 678 c 0
 321 725 348 747 387 747 c 0
 426 747 455 723 455 678 c 0
 455 633 426 607 387 607 c 0
174 607 m 0
 136 607 108 631 108 678 c 0
 108 725 136 747 174 747 c 0
 213 747 241 723 241 678 c 0
 241 633 213 607 174 607 c 0
123 -245 m 0
 99 -245 75 -242 51 -237 c 1
 51 -120 l 1
 68 -124 87 -126 99 -126 c 0
 154 -126 190 -93 211 -31 c 2
 221 0 l 1
 16 546 l 1
 171 546 l 1
 267 233 l 2
 275 205 283 173 288 136 c 1
 291 136 l 1
 296 171 304 202 312 233 c 2
 395 546 l 1
 547 546 l 1
 353 -29 l 2
 306 -166 238 -245 123 -245 c 0
EndSplineSet
Validated: 1048577
Substitution2: "'smcp' Lowercase to Small Capitals lookup 35 subtable" ydieresis.sc
Substitution2: "'aalt' Access All Alternates lookup 0 subtable" ydieresis.sc
EndChar

StartChar: Amacron
Encoding: 256 256 194
Width: 563
GlyphClass: 2
Flags: HW
AnchorPoint: "Anchor-2" 543 714 basechar 0
AnchorPoint: "Anchor-1" 282 883 basechar 0
AnchorPoint: "Anchor-0" 282 0 basechar 0
LayerCount: 2
Fore
SplineSet
136 787 m 1
 136 883 l 1
 427 883 l 1
 427 787 l 1
 136 787 l 1
10 0 m 1
 189 717 l 1
 373 717 l 1
 553 0 l 1
 414 0 l 1
 375 176 l 1
 187 176 l 1
 148 0 l 1
 10 0 l 1
254 473 m 2
 214 295 l 1
 349 295 l 1
 310 472 l 2
 300 515 290 563 282 606 c 1
 274 563 263 513 254 473 c 2
EndSplineSet
Validated: 1048577
Substitution2: "'c2sc' Capitals to Small Capitals lookup 34 subtable" amacron.sc
Substitution2: "'aalt' Access All Alternates lookup 0 subtable" amacron.sc
EndChar

StartChar: amacron
Encoding: 257 257 195
Width: 563
GlyphClass: 2
Flags: HW
AnchorPoint: "Anchor-2" 543 546 basechar 0
AnchorPoint: "Anchor-1" 282 715 basechar 0
AnchorPoint: "Anchor-0" 282 0 basechar 0
LayerCount: 2
Fore
SplineSet
146 619 m 1
 146 715 l 1
 437 715 l 1
 437 619 l 1
 146 619 l 1
213 -10 m 0
 107 -10 50 55 50 158 c 0
 50 277 123 332 263 336 c 2
 371 339 l 1
 371 362 l 2
 371 414 337 440 269 440 c 0
 228 440 182 431 126 407 c 1
 79 508 l 1
 142 541 204 556 277 556 c 0
 425 556 504 493 504 364 c 2
 504 0 l 1
 401 0 l 1
 376 70 l 1
 373 70 l 1
 326 11 274 -10 213 -10 c 0
262 105 m 0
 322 105 371 144 371 208 c 2
 371 253 l 1
 300 251 l 2
 227 249 188 223 188 170 c 0
 188 125 220 105 262 105 c 0
EndSplineSet
Validated: 1048577
Substitution2: "'smcp' Lowercase to Small Capitals lookup 35 subtable" amacron.sc
Substitution2: "'aalt' Access All Alternates lookup 0 subtable" amacron.sc
EndChar

StartChar: Abreve
Encoding: 258 258 196
Width: 563
GlyphClass: 2
Flags: HW
AnchorPoint: "Anchor-2" 543 714 basechar 0
AnchorPoint: "Anchor-1" 282 935 basechar 0
AnchorPoint: "Anchor-0" 282 0 basechar 0
LayerCount: 2
Fore
SplineSet
280 776 m 0
 188 776 125 833 122 935 c 1
 203 935 l 1
 207 885 238 866 281 866 c 0
 323 866 355 884 360 935 c 1
 441 935 l 1
 439 838 374 776 280 776 c 0
10 0 m 1
 189 717 l 1
 373 717 l 1
 553 0 l 1
 414 0 l 1
 375 176 l 1
 187 176 l 1
 148 0 l 1
 10 0 l 1
254 473 m 2
 214 295 l 1
 349 295 l 1
 310 472 l 2
 300 515 290 563 282 606 c 1
 274 563 263 513 254 473 c 2
EndSplineSet
Validated: 1048577
Substitution2: "'c2sc' Capitals to Small Capitals lookup 34 subtable" abreve.sc
Substitution2: "'aalt' Access All Alternates lookup 0 subtable" abreve.sc
EndChar

StartChar: abreve
Encoding: 259 259 197
Width: 563
GlyphClass: 2
Flags: HW
AnchorPoint: "Anchor-2" 543 546 basechar 0
AnchorPoint: "Anchor-1" 282 767 basechar 0
AnchorPoint: "Anchor-0" 282 0 basechar 0
LayerCount: 2
Fore
SplineSet
291 608 m 0
 198 608 135 665 133 767 c 1
 214 767 l 1
 217 717 248 698 292 698 c 0
 333 698 366 716 370 767 c 1
 451 767 l 1
 450 670 385 608 291 608 c 0
213 -10 m 0
 107 -10 50 55 50 158 c 0
 50 277 123 332 263 336 c 2
 371 339 l 1
 371 362 l 2
 371 414 337 440 269 440 c 0
 228 440 182 431 126 407 c 1
 79 508 l 1
 142 541 204 556 277 556 c 0
 425 556 504 493 504 364 c 2
 504 0 l 1
 401 0 l 1
 376 70 l 1
 373 70 l 1
 326 11 274 -10 213 -10 c 0
262 105 m 0
 322 105 371 144 371 208 c 2
 371 253 l 1
 300 251 l 2
 227 249 188 223 188 170 c 0
 188 125 220 105 262 105 c 0
EndSplineSet
Validated: 1048577
Substitution2: "'smcp' Lowercase to Small Capitals lookup 35 subtable" abreve.sc
Substitution2: "'aalt' Access All Alternates lookup 0 subtable" abreve.sc
EndChar

StartChar: Aogonek
Encoding: 260 260 198
Width: 563
GlyphClass: 2
Flags: HW
AnchorPoint: "Anchor-2" 543 714 basechar 0
AnchorPoint: "Anchor-1" 282 714 basechar 0
AnchorPoint: "Anchor-0" 282 -236 basechar 0
LayerCount: 2
Fore
SplineSet
10 0 m 1
 189 717 l 1
 373 717 l 1
 553 0 l 1
 509 -44 493 -75 493 -105 c 0
 493 -134 508 -150 534 -150 c 0
 551 -150 565 -145 575 -141 c 1
 575 -224 l 1
 560 -231 538 -236 509 -236 c 0
 433 -236 393 -195 393 -131 c 0
 393 -86 419 -38 466 0 c 1
 414 0 l 1
 375 176 l 1
 187 176 l 1
 148 0 l 1
 10 0 l 1
254 473 m 2
 214 295 l 1
 349 295 l 1
 310 472 l 2
 300 515 290 563 282 606 c 1
 274 563 263 513 254 473 c 2
EndSplineSet
Validated: 1048577
Substitution2: "'c2sc' Capitals to Small Capitals lookup 34 subtable" aogonek.sc
Substitution2: "'locl' Localized Forms in Latin lookup 10 subtable" Aogonek.loclNAV
Ligature2: "'ccmp' Glyph Composition/Decomposition lookup 6 subtable" A uni0328
AlternateSubs2: "'aalt' Access All Alternates lookup 1 subtable" Aogonek.loclNAV aogonek.sc
EndChar

StartChar: aogonek
Encoding: 261 261 199
Width: 563
GlyphClass: 2
Flags: HW
AnchorPoint: "Anchor-2" 543 546 basechar 0
AnchorPoint: "Anchor-1" 282 546 basechar 0
AnchorPoint: "Anchor-0" 282 -236 basechar 0
LayerCount: 2
Fore
SplineSet
213 -10 m 0
 107 -10 50 55 50 158 c 0
 50 277 123 332 263 336 c 2
 371 339 l 1
 371 362 l 2
 371 414 337 440 269 440 c 0
 228 440 182 431 126 407 c 1
 79 508 l 1
 142 541 204 556 277 556 c 0
 425 556 504 493 504 364 c 2
 504 0 l 1
 489 0 l 1
 445 -44 429 -75 429 -105 c 0
 429 -134 444 -150 470 -150 c 0
 487 -150 501 -145 511 -141 c 1
 511 -224 l 1
 496 -231 473 -236 445 -236 c 0
 369 -236 329 -195 329 -131 c 0
 329 -86 355 -38 402 0 c 1
 401 0 l 1
 376 70 l 1
 373 70 l 1
 326 11 274 -10 213 -10 c 0
262 105 m 0
 322 105 371 144 371 208 c 2
 371 253 l 1
 300 251 l 2
 227 249 188 223 188 170 c 0
 188 125 220 105 262 105 c 0
EndSplineSet
Validated: 1048577
Substitution2: "'smcp' Lowercase to Small Capitals lookup 35 subtable" aogonek.sc
Substitution2: "'locl' Localized Forms in Latin lookup 10 subtable" aogonek.loclNAV
Ligature2: "'ccmp' Glyph Composition/Decomposition lookup 6 subtable" a uni0328
AlternateSubs2: "'aalt' Access All Alternates lookup 1 subtable" aogonek.loclNAV aogonek.sc
EndChar

StartChar: Cacute
Encoding: 262 262 200
Width: 563
GlyphClass: 2
Flags: HW
AnchorPoint: "Anchor-2" 543 714 basechar 0
AnchorPoint: "Anchor-1" 348 934 basechar 0
AnchorPoint: "Anchor-0" 340 0 basechar 0
LayerCount: 2
Fore
SplineSet
271 787 m 1
 305 835 340 889 364 934 c 1
 516 934 l 1
 516 925 l 1
 485 887 411 814 363 774 c 1
 271 774 l 1
 271 787 l 1
337 -12 m 0
 142 -12 45 126 45 347 c 0
 45 575 157 725 361 725 c 0
 426 725 478 710 531 682 c 1
 486 567 l 1
 441 590 402 600 362 600 c 0
 236 600 186 498 186 351 c 0
 186 190 243 113 359 113 c 0
 406 113 447 124 503 151 c 1
 503 24 l 1
 452 0 395 -12 337 -12 c 0
EndSplineSet
Validated: 1048577
Substitution2: "'c2sc' Capitals to Small Capitals lookup 34 subtable" cacute.sc
Substitution2: "'aalt' Access All Alternates lookup 0 subtable" cacute.sc
EndChar

StartChar: cacute
Encoding: 263 263 201
Width: 563
GlyphClass: 2
Flags: HW
AnchorPoint: "Anchor-2" 543 546 basechar 0
AnchorPoint: "Anchor-1" 316 766 basechar 0
AnchorPoint: "Anchor-0" 310 0 basechar 0
LayerCount: 2
Fore
SplineSet
243 619 m 1
 278 667 313 721 336 766 c 1
 488 766 l 1
 488 757 l 1
 457 719 383 646 336 606 c 1
 243 606 l 1
 243 619 l 1
321 -10 m 0
 148 -10 65 83 65 266 c 0
 65 458 155 556 327 556 c 0
 382 556 441 546 496 521 c 1
 454 409 l 1
 406 430 369 436 338 436 c 0
 251 436 206 380 206 272 c 0
 206 159 256 111 339 111 c 0
 377 111 424 121 480 154 c 1
 480 27 l 1
 423 -2 372 -10 321 -10 c 0
EndSplineSet
Validated: 1048577
Substitution2: "'smcp' Lowercase to Small Capitals lookup 35 subtable" cacute.sc
Substitution2: "'aalt' Access All Alternates lookup 0 subtable" cacute.sc
EndChar

StartChar: Ccircumflex
Encoding: 264 264 202
Width: 563
GlyphClass: 2
Flags: HW
AnchorPoint: "Anchor-2" 543 714 basechar 0
AnchorPoint: "Anchor-1" 335 934 basechar 0
AnchorPoint: "Anchor-0" 340 0 basechar 0
LayerCount: 2
Fore
SplineSet
166 787 m 1
 199 826 249 894 270 934 c 1
 405 934 l 1
 428 890 472 832 508 787 c 1
 508 774 l 1
 426 774 l 1
 398 795 367 823 337 858 c 1
 306 823 274 793 249 774 c 1
 166 774 l 1
 166 787 l 1
337 -12 m 0
 142 -12 45 126 45 347 c 0
 45 575 157 725 361 725 c 0
 426 725 478 710 531 682 c 1
 486 567 l 1
 441 590 402 600 362 600 c 0
 236 600 186 498 186 351 c 0
 186 190 243 113 359 113 c 0
 406 113 447 124 503 151 c 1
 503 24 l 1
 452 0 395 -12 337 -12 c 0
EndSplineSet
Validated: 1048577
Substitution2: "'c2sc' Capitals to Small Capitals lookup 34 subtable" ccircumflex.sc
Substitution2: "'aalt' Access All Alternates lookup 0 subtable" ccircumflex.sc
EndChar

StartChar: ccircumflex
Encoding: 265 265 203
Width: 563
GlyphClass: 2
Flags: HW
AnchorPoint: "Anchor-2" 543 546 basechar 0
AnchorPoint: "Anchor-1" 310 764 basechar 0
AnchorPoint: "Anchor-0" 337 0 basechar 0
LayerCount: 2
Fore
SplineSet
138 619 m 1
 172 658 221 726 243 766 c 1
 377 766 l 1
 401 722 444 664 481 619 c 1
 481 606 l 1
 398 606 l 1
 371 627 340 655 309 690 c 1
 278 655 247 625 222 606 c 1
 138 606 l 1
 138 619 l 1
321 -10 m 0
 148 -10 65 83 65 266 c 0
 65 458 155 556 327 556 c 0
 382 556 441 546 496 521 c 1
 454 409 l 1
 406 430 369 436 338 436 c 0
 251 436 206 380 206 272 c 0
 206 159 256 111 339 111 c 0
 377 111 424 121 480 154 c 1
 480 27 l 1
 423 -2 372 -10 321 -10 c 0
EndSplineSet
Validated: 1048577
Substitution2: "'smcp' Lowercase to Small Capitals lookup 35 subtable" ccircumflex.sc
Substitution2: "'aalt' Access All Alternates lookup 0 subtable" ccircumflex.sc
EndChar

StartChar: Cdot
Encoding: 266 266 204
Width: 563
GlyphClass: 2
Flags: HW
AnchorPoint: "Anchor-2" 543 714 basechar 0
AnchorPoint: "Anchor-1" 336 914 basechar 0
AnchorPoint: "Anchor-0" 340 0 basechar 0
LayerCount: 2
Fore
SplineSet
336 775 m 0
 282 775 252 803 252 857 c 0
 252 910 280 938 337 938 c 0
 394 938 421 910 421 857 c 0
 421 805 394 775 336 775 c 0
337 -12 m 0
 142 -12 45 126 45 347 c 0
 45 575 157 725 361 725 c 0
 426 725 478 710 531 682 c 1
 486 567 l 1
 441 590 402 600 362 600 c 0
 236 600 186 498 186 351 c 0
 186 190 243 113 359 113 c 0
 406 113 447 124 503 151 c 1
 503 24 l 1
 452 0 395 -12 337 -12 c 0
EndSplineSet
Validated: 1048577
Substitution2: "'c2sc' Capitals to Small Capitals lookup 34 subtable" cdotaccent.sc
Substitution2: "'aalt' Access All Alternates lookup 0 subtable" cdotaccent.sc
EndChar

StartChar: cdot
Encoding: 267 267 205
Width: 563
GlyphClass: 2
Flags: HW
AnchorPoint: "Anchor-2" 543 546 basechar 0
AnchorPoint: "Anchor-1" 310 746 basechar 0
AnchorPoint: "Anchor-0" 326 0 basechar 0
LayerCount: 2
Fore
SplineSet
308 611 m 0
 255 611 224 638 224 692 c 0
 224 746 253 774 310 774 c 0
 366 774 394 746 394 693 c 0
 394 640 367 611 308 611 c 0
321 -10 m 0
 148 -10 65 83 65 266 c 0
 65 458 155 556 327 556 c 0
 382 556 441 546 496 521 c 1
 454 409 l 1
 406 430 369 436 338 436 c 0
 251 436 206 380 206 272 c 0
 206 159 256 111 339 111 c 0
 377 111 424 121 480 154 c 1
 480 27 l 1
 423 -2 372 -10 321 -10 c 0
EndSplineSet
Validated: 1048577
EndChar

StartChar: Ccaron
Encoding: 268 268 206
Width: 563
GlyphClass: 2
Flags: HW
AnchorPoint: "Anchor-2" 543 714 basechar 0
AnchorPoint: "Anchor-1" 333 934 basechar 0
AnchorPoint: "Anchor-0" 345 0 basechar 0
LayerCount: 2
Fore
SplineSet
270 774 m 1
 248 815 198 883 166 921 c 1
 166 934 l 1
 249 934 l 1
 275 913 307 885 336 851 c 1
 368 887 396 911 425 934 c 1
 508 934 l 1
 508 921 l 1
 477 884 427 818 404 774 c 1
 270 774 l 1
337 -12 m 0
 142 -12 45 126 45 347 c 0
 45 575 157 725 361 725 c 0
 426 725 478 710 531 682 c 1
 486 567 l 1
 441 590 402 600 362 600 c 0
 236 600 186 498 186 351 c 0
 186 190 243 113 359 113 c 0
 406 113 447 124 503 151 c 1
 503 24 l 1
 452 0 395 -12 337 -12 c 0
EndSplineSet
Validated: 1048577
Substitution2: "'c2sc' Capitals to Small Capitals lookup 34 subtable" ccaron.sc
Substitution2: "'aalt' Access All Alternates lookup 0 subtable" ccaron.sc
EndChar

StartChar: ccaron
Encoding: 269 269 207
Width: 563
GlyphClass: 2
Flags: HW
AnchorPoint: "Anchor-2" 543 546 basechar 0
AnchorPoint: "Anchor-1" 311 766 basechar 0
AnchorPoint: "Anchor-0" 307 0 basechar 0
LayerCount: 2
Fore
SplineSet
243 606 m 1
 220 647 170 715 138 753 c 1
 138 766 l 1
 222 766 l 1
 248 745 279 717 309 683 c 1
 340 719 369 743 397 766 c 1
 481 766 l 1
 481 753 l 1
 450 716 400 650 376 606 c 1
 243 606 l 1
321 -10 m 0
 148 -10 65 83 65 266 c 0
 65 458 155 556 327 556 c 0
 382 556 441 546 496 521 c 1
 454 409 l 1
 406 430 369 436 338 436 c 0
 251 436 206 380 206 272 c 0
 206 159 256 111 339 111 c 0
 377 111 424 121 480 154 c 1
 480 27 l 1
 423 -2 372 -10 321 -10 c 0
EndSplineSet
Validated: 1048577
Substitution2: "'smcp' Lowercase to Small Capitals lookup 35 subtable" ccaron.sc
Substitution2: "'aalt' Access All Alternates lookup 0 subtable" ccaron.sc
EndChar

StartChar: Dcaron
Encoding: 270 270 208
Width: 563
GlyphClass: 2
Flags: HW
AnchorPoint: "Anchor-3" 286 357 basechar 0
AnchorPoint: "Anchor-2" 563 714 basechar 0
AnchorPoint: "Anchor-1" 270 934 basechar 0
AnchorPoint: "Anchor-0" 282 0 basechar 0
LayerCount: 2
Fore
SplineSet
204 774 m 1
 182 815 132 883 100 921 c 1
 100 934 l 1
 183 934 l 1
 209 913 241 885 270 851 c 1
 302 887 330 911 359 934 c 1
 442 934 l 1
 442 921 l 1
 411 884 361 818 338 774 c 1
 204 774 l 1
41 0 m 1
 41 714 l 1
 249 714 l 2
 428 714 537 594 537 366 c 0
 537 130 425 0 238 0 c 2
 41 0 l 1
230 122 m 2
 343 122 395 200 395 363 c 0
 395 523 343 592 240 592 c 2
 179 592 l 1
 179 122 l 1
 230 122 l 2
EndSplineSet
Validated: 1
Substitution2: "'c2sc' Capitals to Small Capitals lookup 34 subtable" dcaron.sc
Substitution2: "'aalt' Access All Alternates lookup 0 subtable" dcaron.sc
EndChar

StartChar: dcaron
Encoding: 271 271 209
Width: 563
GlyphClass: 2
Flags: HW
AnchorPoint: "Anchor-3" 236 273 basechar 0
AnchorPoint: "Anchor-2" 498 760 basechar 0
AnchorPoint: "Anchor-1" 262 760 basechar 0
AnchorPoint: "Anchor-0" 236 0 basechar 0
LayerCount: 2
Fore
SplineSet
196 -10 m 0
 77 -10 26 114 26 273 c 0
 26 439 81 556 205 556 c 0
 263 556 302 529 335 476 c 1
 340 476 l 1
 332 514 329 551 329 589 c 2
 329 760 l 1
 466 760 l 1
 466 0 l 1
 362 0 l 1
 333 71 l 1
 326 71 l 1
 293 18 252 -10 196 -10 c 0
489 611 m 1
 498 646 512 720 515 760 c 1
 644 760 l 1
 644 751 l 1
 627 706 601 648 570 600 c 1
 489 600 l 1
 489 611 l 1
253 109 m 0
 310 109 339 159 339 257 c 2
 339 273 l 2
 339 379 319 437 253 437 c 0
 184 437 167 371 167 280 c 0
 167 158 196 109 253 109 c 0
EndSplineSet
Validated: 1
Substitution2: "'smcp' Lowercase to Small Capitals lookup 35 subtable" dcaron.sc
Substitution2: "'aalt' Access All Alternates lookup 0 subtable" dcaron.sc
EndChar

StartChar: Dcroat
Encoding: 272 272 210
Width: 563
GlyphClass: 2
Flags: HW
AnchorPoint: "Anchor-3" 290 357 basechar 0
AnchorPoint: "Anchor-2" 567 714 basechar 0
AnchorPoint: "Anchor-1" 282 714 basechar 0
AnchorPoint: "Anchor-0" 282 0 basechar 0
LayerCount: 2
Fore
SplineSet
45 0 m 1
 45 303 l 1
 0 303 l 1
 0 414 l 1
 45 414 l 1
 45 714 l 1
 252 714 l 2
 431 714 541 594 541 366 c 0
 541 130 429 0 242 0 c 2
 45 0 l 1
234 122 m 2
 347 122 399 200 399 363 c 0
 399 523 347 592 244 592 c 2
 183 592 l 1
 183 414 l 1
 280 414 l 1
 280 303 l 1
 183 303 l 1
 183 122 l 1
 234 122 l 2
EndSplineSet
Validated: 1
Substitution2: "'c2sc' Capitals to Small Capitals lookup 34 subtable" dcroat.sc
Substitution2: "'aalt' Access All Alternates lookup 0 subtable" dcroat.sc
EndChar

StartChar: dcroat
Encoding: 273 273 211
Width: 563
GlyphClass: 2
Flags: HW
AnchorPoint: "Anchor-3" 282 273 basechar 0
AnchorPoint: "Anchor-2" 543 760 basechar 0
AnchorPoint: "Anchor-1" 282 760 basechar 0
AnchorPoint: "Anchor-0" 282 0 basechar 0
LayerCount: 2
Fore
SplineSet
223 -10 m 0
 91 -10 36 110 36 267 c 0
 36 429 96 546 232 546 c 0
 298 546 348 518 382 466 c 1
 386 466 l 1
 379 504 375 541 375 585 c 2
 375 587 l 1
 246 587 l 1
 246 679 l 1
 375 679 l 1
 375 760 l 1
 512 760 l 1
 512 679 l 1
 563 679 l 1
 563 587 l 1
 512 587 l 1
 512 0 l 1
 409 0 l 1
 379 71 l 1
 373 71 l 1
 338 18 286 -10 223 -10 c 0
283 109 m 0
 354 109 387 157 387 247 c 2
 387 266 l 2
 387 360 366 427 286 427 c 0
 212 427 179 371 179 264 c 0
 179 155 213 109 283 109 c 0
EndSplineSet
Validated: 1
Substitution2: "'smcp' Lowercase to Small Capitals lookup 35 subtable" dcroat.sc
Substitution2: "'aalt' Access All Alternates lookup 0 subtable" dcroat.sc
EndChar

StartChar: Emacron
Encoding: 274 274 212
Width: 563
GlyphClass: 2
Flags: HW
AnchorPoint: "Anchor-2" 543 714 basechar 0
AnchorPoint: "Anchor-1" 289 883 basechar 0
AnchorPoint: "Anchor-0" 282 0 basechar 0
LayerCount: 2
Fore
SplineSet
142 787 m 1
 142 883 l 1
 432 883 l 1
 432 787 l 1
 142 787 l 1
71 0 m 1
 71 714 l 1
 501 714 l 1
 501 591 l 1
 206 591 l 1
 206 429 l 1
 485 429 l 1
 485 306 l 1
 206 306 l 1
 206 123 l 1
 501 123 l 1
 501 0 l 1
 71 0 l 1
EndSplineSet
Validated: 1048577
Substitution2: "'c2sc' Capitals to Small Capitals lookup 34 subtable" emacron.sc
Substitution2: "'aalt' Access All Alternates lookup 0 subtable" emacron.sc
EndChar

StartChar: emacron
Encoding: 275 275 213
Width: 563
GlyphClass: 2
Flags: HW
AnchorPoint: "Anchor-2" 543 546 basechar 0
AnchorPoint: "Anchor-1" 292 715 basechar 0
AnchorPoint: "Anchor-0" 282 0 basechar 0
LayerCount: 2
Fore
SplineSet
146 619 m 1
 146 715 l 1
 436 715 l 1
 436 619 l 1
 146 619 l 1
324 -10 m 0
 144 -10 45 92 45 275 c 0
 45 449 133 556 290 556 c 0
 434 556 519 467 519 306 c 2
 519 232 l 1
 184 232 l 1
 188 151 251 108 338 108 c 0
 395 108 448 124 499 145 c 1
 499 29 l 1
 452 4 392 -10 324 -10 c 0
388 330 m 1
 387 404 347 444 291 444 c 0
 235 444 192 406 186 330 c 1
 388 330 l 1
EndSplineSet
Validated: 1048577
Substitution2: "'smcp' Lowercase to Small Capitals lookup 35 subtable" emacron.sc
Substitution2: "'aalt' Access All Alternates lookup 0 subtable" emacron.sc
EndChar

StartChar: Ebreve
Encoding: 276 276 214
Width: 563
GlyphClass: 2
Flags: HW
AnchorPoint: "Anchor-2" 543 714 basechar 0
AnchorPoint: "Anchor-1" 287 934 basechar 0
AnchorPoint: "Anchor-0" 282 0 basechar 0
LayerCount: 2
Fore
SplineSet
286 776 m 0
 193 776 130 833 128 935 c 1
 209 935 l 1
 213 885 243 866 287 866 c 0
 328 866 361 884 365 935 c 1
 447 935 l 1
 445 838 380 776 286 776 c 0
71 0 m 1
 71 714 l 1
 501 714 l 1
 501 591 l 1
 206 591 l 1
 206 429 l 1
 485 429 l 1
 485 306 l 1
 206 306 l 1
 206 123 l 1
 501 123 l 1
 501 0 l 1
 71 0 l 1
EndSplineSet
Validated: 1048577
Substitution2: "'c2sc' Capitals to Small Capitals lookup 34 subtable" ebreve.sc
Substitution2: "'aalt' Access All Alternates lookup 0 subtable" ebreve.sc
EndChar

StartChar: ebreve
Encoding: 277 277 215
Width: 563
GlyphClass: 2
Flags: HW
AnchorPoint: "Anchor-2" 543 546 basechar 0
AnchorPoint: "Anchor-1" 289 767 basechar 0
AnchorPoint: "Anchor-0" 282 0 basechar 0
LayerCount: 2
Fore
SplineSet
290 608 m 0
 197 608 134 665 132 767 c 1
 213 767 l 1
 217 717 247 698 291 698 c 0
 332 698 365 716 369 767 c 1
 451 767 l 1
 449 670 384 608 290 608 c 0
324 -10 m 0
 144 -10 45 92 45 275 c 0
 45 449 133 556 290 556 c 0
 434 556 519 467 519 306 c 2
 519 232 l 1
 184 232 l 1
 188 151 251 108 338 108 c 0
 395 108 448 124 499 145 c 1
 499 29 l 1
 452 4 392 -10 324 -10 c 0
388 330 m 1
 387 404 347 444 291 444 c 0
 235 444 192 406 186 330 c 1
 388 330 l 1
EndSplineSet
Validated: 1048577
Substitution2: "'smcp' Lowercase to Small Capitals lookup 35 subtable" ebreve.sc
Substitution2: "'aalt' Access All Alternates lookup 0 subtable" ebreve.sc
EndChar

StartChar: Edotaccent
Encoding: 278 278 216
Width: 563
GlyphClass: 2
Flags: HW
AnchorPoint: "Anchor-2" 543 714 basechar 0
AnchorPoint: "Anchor-1" 287 914 basechar 0
AnchorPoint: "Anchor-0" 282 0 basechar 0
LayerCount: 2
Fore
SplineSet
286 775 m 0
 232 775 202 803 202 857 c 0
 202 910 230 938 287 938 c 0
 344 938 372 910 372 857 c 0
 372 805 344 775 286 775 c 0
71 0 m 1
 71 714 l 1
 501 714 l 1
 501 591 l 1
 206 591 l 1
 206 429 l 1
 485 429 l 1
 485 306 l 1
 206 306 l 1
 206 123 l 1
 501 123 l 1
 501 0 l 1
 71 0 l 1
EndSplineSet
Validated: 1048577
Substitution2: "'c2sc' Capitals to Small Capitals lookup 34 subtable" edotaccent.sc
Substitution2: "'aalt' Access All Alternates lookup 0 subtable" edotaccent.sc
EndChar

StartChar: edotaccent
Encoding: 279 279 217
Width: 563
GlyphClass: 2
Flags: HW
AnchorPoint: "Anchor-2" 543 546 basechar 0
AnchorPoint: "Anchor-1" 292 746 basechar 0
AnchorPoint: "Anchor-0" 282 0 basechar 0
LayerCount: 2
Fore
SplineSet
290 611 m 0
 236 611 206 638 206 692 c 0
 206 746 234 774 291 774 c 0
 348 774 376 746 376 693 c 0
 376 640 348 611 290 611 c 0
324 -10 m 0
 144 -10 45 92 45 275 c 0
 45 449 133 556 290 556 c 0
 434 556 519 467 519 306 c 2
 519 232 l 1
 184 232 l 1
 188 151 251 108 338 108 c 0
 395 108 448 124 499 145 c 1
 499 29 l 1
 452 4 392 -10 324 -10 c 0
388 330 m 1
 387 404 347 444 291 444 c 0
 235 444 192 406 186 330 c 1
 388 330 l 1
EndSplineSet
Validated: 1048577
Substitution2: "'smcp' Lowercase to Small Capitals lookup 35 subtable" edotaccent.sc
Substitution2: "'aalt' Access All Alternates lookup 0 subtable" edotaccent.sc
EndChar

StartChar: Eogonek
Encoding: 280 280 218
Width: 563
GlyphClass: 2
Flags: HW
AnchorPoint: "Anchor-2" 543 714 basechar 0
AnchorPoint: "Anchor-1" 292 714 basechar 0
AnchorPoint: "Anchor-0" 303 -236 basechar 0
LayerCount: 2
Fore
SplineSet
71 0 m 1
 71 714 l 1
 501 714 l 1
 501 591 l 1
 206 591 l 1
 206 429 l 1
 485 429 l 1
 485 306 l 1
 206 306 l 1
 206 123 l 1
 501 123 l 1
 501 0 l 1
 454 0 l 1
 410 -44 394 -75 394 -105 c 0
 394 -134 409 -150 435 -150 c 0
 452 -150 467 -145 477 -141 c 1
 477 -224 l 1
 461 -231 439 -236 410 -236 c 0
 334 -236 294 -195 294 -131 c 0
 294 -86 320 -38 367 0 c 1
 71 0 l 1
EndSplineSet
Validated: 1048577
Substitution2: "'c2sc' Capitals to Small Capitals lookup 34 subtable" eogonek.sc
Substitution2: "'locl' Localized Forms in Latin lookup 10 subtable" Eogonek.loclNAV
Ligature2: "'ccmp' Glyph Composition/Decomposition lookup 6 subtable" E uni0328
AlternateSubs2: "'aalt' Access All Alternates lookup 1 subtable" Eogonek.loclNAV eogonek.sc
EndChar

StartChar: eogonek
Encoding: 281 281 219
Width: 563
GlyphClass: 2
Flags: HW
AnchorPoint: "Anchor-2" 543 546 basechar 0
AnchorPoint: "Anchor-1" 282 546 basechar 0
AnchorPoint: "Anchor-0" 298 -236 basechar 0
LayerCount: 2
Fore
SplineSet
324 -10 m 0
 144 -10 45 92 45 275 c 0
 45 449 133 556 290 556 c 0
 434 556 519 467 519 306 c 2
 519 232 l 1
 184 232 l 1
 188 151 251 108 338 108 c 0
 395 108 448 124 499 145 c 1
 499 29 l 2
 498 28 497 28 497 27 c 0
 435 -14 407 -55 407 -101 c 0
 407 -134 419 -150 449 -150 c 0
 465 -150 479 -145 489 -141 c 1
 489 -224 l 1
 474 -231 451 -236 424 -236 c 0
 347 -236 307 -191 307 -126 c 0
 307 -77 329 -40 359 -9 c 1
 347 -10 336 -10 324 -10 c 0
388 330 m 1
 387 404 347 444 291 444 c 0
 235 444 192 406 186 330 c 1
 388 330 l 1
EndSplineSet
Validated: 1048577
Substitution2: "'smcp' Lowercase to Small Capitals lookup 35 subtable" eogonek.sc
Substitution2: "'locl' Localized Forms in Latin lookup 10 subtable" eogonek.loclNAV
Ligature2: "'ccmp' Glyph Composition/Decomposition lookup 6 subtable" e uni0328
AlternateSubs2: "'aalt' Access All Alternates lookup 1 subtable" eogonek.loclNAV eogonek.sc
EndChar

StartChar: Ecaron
Encoding: 282 282 220
Width: 563
GlyphClass: 2
Flags: HW
AnchorPoint: "Anchor-2" 543 714 basechar 0
AnchorPoint: "Anchor-1" 287 934 basechar 0
AnchorPoint: "Anchor-0" 282 0 basechar 0
LayerCount: 2
Fore
SplineSet
221 774 m 1
 198 815 148 883 116 921 c 1
 116 934 l 1
 200 934 l 1
 225 913 257 885 286 851 c 1
 318 887 347 911 375 934 c 1
 458 934 l 1
 458 921 l 1
 427 884 378 818 354 774 c 1
 221 774 l 1
71 0 m 1
 71 714 l 1
 501 714 l 1
 501 591 l 1
 206 591 l 1
 206 429 l 1
 485 429 l 1
 485 306 l 1
 206 306 l 1
 206 123 l 1
 501 123 l 1
 501 0 l 1
 71 0 l 1
EndSplineSet
Validated: 1048577
Substitution2: "'c2sc' Capitals to Small Capitals lookup 34 subtable" ecaron.sc
Substitution2: "'aalt' Access All Alternates lookup 0 subtable" ecaron.sc
EndChar

StartChar: ecaron
Encoding: 283 283 221
Width: 563
GlyphClass: 2
Flags: HW
AnchorPoint: "Anchor-2" 543 546 basechar 0
AnchorPoint: "Anchor-1" 289 766 basechar 0
AnchorPoint: "Anchor-0" 282 0 basechar 0
LayerCount: 2
Fore
SplineSet
225 606 m 1
 202 647 152 715 120 753 c 1
 120 766 l 1
 204 766 l 1
 229 745 261 717 290 683 c 1
 322 719 351 743 379 766 c 1
 462 766 l 1
 462 753 l 1
 431 716 382 650 358 606 c 1
 225 606 l 1
324 -10 m 0
 144 -10 45 92 45 275 c 0
 45 449 133 556 290 556 c 0
 434 556 519 467 519 306 c 2
 519 232 l 1
 184 232 l 1
 188 151 251 108 338 108 c 0
 395 108 448 124 499 145 c 1
 499 29 l 1
 452 4 392 -10 324 -10 c 0
388 330 m 1
 387 404 347 444 291 444 c 0
 235 444 192 406 186 330 c 1
 388 330 l 1
EndSplineSet
Validated: 1048577
Substitution2: "'smcp' Lowercase to Small Capitals lookup 35 subtable" ecaron.sc
Substitution2: "'aalt' Access All Alternates lookup 0 subtable" ecaron.sc
EndChar

StartChar: Gcircumflex
Encoding: 284 284 222
Width: 563
GlyphClass: 2
Flags: HW
AnchorPoint: "Anchor-2" 543 714 basechar 0
AnchorPoint: "Anchor-1" 308 934 basechar 0
AnchorPoint: "Anchor-0" 282 0 basechar 0
LayerCount: 2
Fore
SplineSet
139 787 m 1
 172 826 222 894 243 934 c 1
 378 934 l 1
 401 890 445 832 481 787 c 1
 481 774 l 1
 399 774 l 1
 371 795 340 823 310 858 c 1
 279 823 247 793 222 774 c 1
 139 774 l 1
 139 787 l 1
326 -10 m 0
 118 -10 26 130 26 348 c 0
 26 586 135 724 332 724 c 0
 399 724 463 708 518 680 c 1
 474 565 l 1
 433 591 388 601 347 601 c 0
 224 601 166 511 166 353 c 0
 166 210 215 112 322 112 c 0
 349 112 374 117 397 122 c 1
 397 283 l 1
 303 283 l 1
 303 402 l 1
 522 402 l 1
 522 30 l 1
 455 1 398 -10 326 -10 c 0
EndSplineSet
Validated: 1048577
Substitution2: "'c2sc' Capitals to Small Capitals lookup 34 subtable" gcircumflex.sc
Substitution2: "'aalt' Access All Alternates lookup 0 subtable" gcircumflex.sc
EndChar

StartChar: gcircumflex
Encoding: 285 285 223
Width: 563
GlyphClass: 2
Flags: HW
AnchorPoint: "Anchor-2" 543 546 basechar 0
AnchorPoint: "Anchor-1" 282 766 basechar 0
AnchorPoint: "Anchor-0" 282 -245 basechar 0
LayerCount: 2
Fore
SplineSet
110 619 m 1
 144 658 193 726 215 766 c 1
 349 766 l 1
 373 722 416 664 453 619 c 1
 453 606 l 1
 370 606 l 1
 343 627 312 655 281 690 c 1
 250 655 219 625 194 606 c 1
 110 606 l 1
 110 619 l 1
244 -245 m 0
 189 -245 131 -237 70 -213 c 1
 70 -81 l 1
 135 -109 194 -123 249 -123 c 0
 333 -122 370 -86 370 -8 c 2
 370 4 l 2
 370 26 372 50 373 68 c 1
 369 68 l 1
 335 13 289 -10 230 -10 c 0
 108 -10 36 95 36 273 c 0
 36 452 110 557 229 557 c 0
 290 557 337 529 372 476 c 1
 376 476 l 1
 399 546 l 1
 512 546 l 1
 512 -1 l 2
 512 -158 429 -245 244 -245 c 0
282 109 m 0
 346 109 379 158 379 252 c 2
 379 271 l 2
 379 388 348 437 280 437 c 0
 212 437 179 380 179 273 c 0
 179 167 212 109 282 109 c 0
EndSplineSet
Validated: 1048577
Substitution2: "'smcp' Lowercase to Small Capitals lookup 35 subtable" gcircumflex.sc
Substitution2: "'aalt' Access All Alternates lookup 0 subtable" gcircumflex.sc
EndChar

StartChar: Gbreve
Encoding: 286 286 224
Width: 563
GlyphClass: 2
Flags: HW
AnchorPoint: "Anchor-2" 543 714 basechar 0
AnchorPoint: "Anchor-1" 308 937 basechar 0
AnchorPoint: "Anchor-0" 282 0 basechar 0
LayerCount: 2
Fore
SplineSet
309 776 m 0
 216 776 153 833 151 935 c 1
 232 935 l 1
 235 885 266 866 310 866 c 0
 351 866 384 884 388 935 c 1
 469 935 l 1
 467 838 403 776 309 776 c 0
326 -10 m 0
 118 -10 26 130 26 348 c 0
 26 586 135 724 332 724 c 0
 399 724 463 708 518 680 c 1
 474 565 l 1
 433 591 388 601 347 601 c 0
 224 601 166 511 166 353 c 0
 166 210 215 112 322 112 c 0
 349 112 374 117 397 122 c 1
 397 283 l 1
 303 283 l 1
 303 402 l 1
 522 402 l 1
 522 30 l 1
 455 1 398 -10 326 -10 c 0
EndSplineSet
Validated: 1048577
Substitution2: "'c2sc' Capitals to Small Capitals lookup 34 subtable" gbreve.sc
Substitution2: "'aalt' Access All Alternates lookup 0 subtable" gbreve.sc
EndChar

StartChar: gbreve
Encoding: 287 287 225
Width: 563
GlyphClass: 2
Flags: HW
AnchorPoint: "Anchor-2" 543 546 basechar 0
AnchorPoint: "Anchor-1" 282 767 basechar 0
AnchorPoint: "Anchor-0" 282 -245 basechar 0
LayerCount: 2
Fore
SplineSet
280 608 m 0
 188 608 125 665 122 767 c 1
 203 767 l 1
 207 717 238 698 281 698 c 0
 323 698 355 716 360 767 c 1
 441 767 l 1
 439 670 374 608 280 608 c 0
244 -245 m 0
 189 -245 131 -237 70 -213 c 1
 70 -81 l 1
 135 -109 194 -123 249 -123 c 0
 333 -122 370 -86 370 -8 c 2
 370 4 l 2
 370 26 372 50 373 68 c 1
 369 68 l 1
 335 13 289 -10 230 -10 c 0
 108 -10 36 95 36 273 c 0
 36 452 110 557 229 557 c 0
 290 557 337 529 372 476 c 1
 376 476 l 1
 399 546 l 1
 512 546 l 1
 512 -1 l 2
 512 -158 429 -245 244 -245 c 0
282 109 m 0
 346 109 379 158 379 252 c 2
 379 271 l 2
 379 388 348 437 280 437 c 0
 212 437 179 380 179 273 c 0
 179 167 212 109 282 109 c 0
EndSplineSet
Validated: 1048577
Substitution2: "'smcp' Lowercase to Small Capitals lookup 35 subtable" gbreve.sc
Substitution2: "'aalt' Access All Alternates lookup 0 subtable" gbreve.sc
EndChar

StartChar: Gdot
Encoding: 288 288 226
Width: 563
GlyphClass: 2
Flags: HW
AnchorPoint: "Anchor-2" 543 714 basechar 0
AnchorPoint: "Anchor-1" 310 914 basechar 0
AnchorPoint: "Anchor-0" 282 0 basechar 0
LayerCount: 2
Fore
SplineSet
309 775 m 0
 255 775 225 803 225 857 c 0
 225 910 253 938 310 938 c 0
 367 938 394 910 394 857 c 0
 394 805 367 775 309 775 c 0
326 -10 m 0
 118 -10 26 130 26 348 c 0
 26 586 135 724 332 724 c 0
 399 724 463 708 518 680 c 1
 474 565 l 1
 433 591 388 601 347 601 c 0
 224 601 166 511 166 353 c 0
 166 210 215 112 322 112 c 0
 349 112 374 117 397 122 c 1
 397 283 l 1
 303 283 l 1
 303 402 l 1
 522 402 l 1
 522 30 l 1
 455 1 398 -10 326 -10 c 0
EndSplineSet
Validated: 1048577
Substitution2: "'c2sc' Capitals to Small Capitals lookup 34 subtable" gdotaccent.sc
Substitution2: "'aalt' Access All Alternates lookup 0 subtable" gdotaccent.sc
EndChar

StartChar: gdot
Encoding: 289 289 227
Width: 563
GlyphClass: 2
Flags: HW
AnchorPoint: "Anchor-2" 543 546 basechar 0
AnchorPoint: "Anchor-1" 282 746 basechar 0
AnchorPoint: "Anchor-0" 282 -245 basechar 0
LayerCount: 2
Fore
SplineSet
280 611 m 0
 227 611 196 639 196 693 c 0
 196 746 225 774 282 774 c 0
 338 774 366 746 366 693 c 0
 366 641 339 611 280 611 c 0
244 -245 m 0
 189 -245 131 -237 70 -213 c 1
 70 -81 l 1
 135 -109 194 -123 249 -123 c 0
 333 -122 370 -86 370 -8 c 2
 370 4 l 2
 370 26 372 50 373 68 c 1
 369 68 l 1
 335 13 289 -10 230 -10 c 0
 108 -10 36 95 36 273 c 0
 36 452 110 557 229 557 c 0
 290 557 337 529 372 476 c 1
 376 476 l 1
 399 546 l 1
 512 546 l 1
 512 -1 l 2
 512 -158 429 -245 244 -245 c 0
282 109 m 0
 346 109 379 158 379 252 c 2
 379 271 l 2
 379 388 348 437 280 437 c 0
 212 437 179 380 179 273 c 0
 179 167 212 109 282 109 c 0
EndSplineSet
Validated: 1048577
EndChar

StartChar: uni0122
Encoding: 290 290 228
Width: 563
GlyphClass: 2
Flags: HW
AnchorPoint: "Anchor-2" 543 714 basechar 0
AnchorPoint: "Anchor-1" 317 714 basechar 0
AnchorPoint: "Anchor-0" 282 -221 basechar 0
LayerCount: 2
Fore
SplineSet
326 -10 m 0
 118 -10 26 130 26 348 c 0
 26 586 135 724 332 724 c 0
 399 724 463 708 518 680 c 1
 474 565 l 1
 433 591 388 601 347 601 c 0
 224 601 166 511 166 353 c 0
 166 210 215 112 322 112 c 0
 349 112 374 117 397 122 c 1
 397 283 l 1
 303 283 l 1
 303 402 l 1
 522 402 l 1
 522 30 l 1
 455 1 398 -10 326 -10 c 0
222 -208 m 1
 232 -171 246 -103 250 -61 c 1
 378 -61 l 1
 378 -70 l 1
 361 -116 334 -172 303 -221 c 1
 222 -221 l 1
 222 -208 l 1
EndSplineSet
Validated: 1048577
Substitution2: "'c2sc' Capitals to Small Capitals lookup 34 subtable" uni0123.sc
Substitution2: "'aalt' Access All Alternates lookup 0 subtable" uni0123.sc
EndChar

StartChar: uni0123
Encoding: 291 291 229
Width: 563
GlyphClass: 2
Flags: HW
AnchorPoint: "Anchor-2" 543 546 basechar 0
AnchorPoint: "Anchor-1" 284 766 basechar 0
AnchorPoint: "Anchor-0" 282 -245 basechar 0
LayerCount: 2
Fore
SplineSet
206 615 m 1
 222 660 249 717 282 766 c 1
 363 766 l 1
 363 755 l 1
 352 713 337 647 333 606 c 1
 206 606 l 1
 206 615 l 1
244 -245 m 0
 189 -245 131 -237 70 -213 c 1
 70 -81 l 1
 135 -109 194 -123 249 -123 c 0
 333 -122 370 -86 370 -8 c 2
 370 4 l 2
 370 26 372 50 373 68 c 1
 369 68 l 1
 335 13 289 -10 230 -10 c 0
 108 -10 36 95 36 273 c 0
 36 452 110 557 229 557 c 0
 290 557 337 529 372 476 c 1
 376 476 l 1
 399 546 l 1
 512 546 l 1
 512 -1 l 2
 512 -158 429 -245 244 -245 c 0
282 109 m 0
 346 109 379 158 379 252 c 2
 379 271 l 2
 379 388 348 437 280 437 c 0
 212 437 179 380 179 273 c 0
 179 167 212 109 282 109 c 0
EndSplineSet
Validated: 1048577
Substitution2: "'smcp' Lowercase to Small Capitals lookup 35 subtable" uni0123.sc
Substitution2: "'aalt' Access All Alternates lookup 0 subtable" uni0123.sc
EndChar

StartChar: Hcircumflex
Encoding: 292 292 230
Width: 563
GlyphClass: 2
Flags: HW
AnchorPoint: "Anchor-3" 282 372 basechar 0
AnchorPoint: "Anchor-2" 563 714 basechar 0
AnchorPoint: "Anchor-1" 282 934 basechar 0
AnchorPoint: "Anchor-0" 282 0 basechar 0
LayerCount: 2
Fore
SplineSet
110 787 m 1
 144 826 193 894 215 934 c 1
 349 934 l 1
 373 890 416 832 453 787 c 1
 453 774 l 1
 370 774 l 1
 343 795 312 823 281 858 c 1
 250 823 219 793 194 774 c 1
 110 774 l 1
 110 787 l 1
41 0 m 1
 41 714 l 1
 180 714 l 1
 180 434 l 1
 383 434 l 1
 383 714 l 1
 522 714 l 1
 522 0 l 1
 383 0 l 1
 383 309 l 1
 180 309 l 1
 180 0 l 1
 41 0 l 1
EndSplineSet
Validated: 1
Substitution2: "'c2sc' Capitals to Small Capitals lookup 34 subtable" hcircumflex.sc
Substitution2: "'aalt' Access All Alternates lookup 0 subtable" hcircumflex.sc
EndChar

StartChar: hcircumflex
Encoding: 293 293 231
Width: 563
GlyphClass: 2
Flags: HW
AnchorPoint: "Anchor-3" 282 273 basechar 0
AnchorPoint: "Anchor-2" 543 760 basechar 0
AnchorPoint: "Anchor-1" 123 980 basechar 0
AnchorPoint: "Anchor-0" 282 0 basechar 0
LayerCount: 2
Fore
SplineSet
-48 833 m 1
 -15 872 34 940 56 980 c 1
 190 980 l 1
 214 936 257 878 294 833 c 1
 294 820 l 1
 211 820 l 1
 184 841 153 869 122 904 c 1
 92 869 60 839 35 820 c 1
 -48 820 l 1
 -48 833 l 1
51 0 m 1
 51 760 l 1
 190 760 l 1
 190 601 l 2
 190 559 188 518 185 476 c 1
 194 476 l 1
 224 528 270 556 342 556 c 0
 456 556 517 486 517 356 c 2
 517 0 l 1
 378 0 l 1
 378 320 l 2
 378 404 351 437 294 437 c 0
 219 437 190 380 190 258 c 2
 190 0 l 1
 51 0 l 1
EndSplineSet
Validated: 1
Substitution2: "'smcp' Lowercase to Small Capitals lookup 35 subtable" hcircumflex.sc
Substitution2: "'aalt' Access All Alternates lookup 0 subtable" hcircumflex.sc
EndChar

StartChar: Hbar
Encoding: 294 294 232
Width: 563
GlyphClass: 2
Flags: HW
AnchorPoint: "Anchor-3" 282 357 basechar 0
AnchorPoint: "Anchor-1" 282 714 basechar 0
AnchorPoint: "Anchor-0" 282 0 basechar 0
LayerCount: 2
Fore
SplineSet
51 0 m 1
 51 523 l 1
 0 523 l 1
 0 616 l 1
 51 616 l 1
 51 714 l 1
 190 714 l 1
 190 616 l 1
 374 616 l 1
 374 714 l 1
 513 714 l 1
 513 616 l 1
 563 616 l 1
 563 523 l 1
 513 523 l 1
 513 0 l 1
 374 0 l 1
 374 309 l 1
 190 309 l 1
 190 0 l 1
 51 0 l 1
190 434 m 1
 374 434 l 1
 374 523 l 1
 190 523 l 1
 190 434 l 1
EndSplineSet
Validated: 1048577
Substitution2: "'c2sc' Capitals to Small Capitals lookup 34 subtable" hbar.sc
Substitution2: "'aalt' Access All Alternates lookup 0 subtable" hbar.sc
EndChar

StartChar: hbar
Encoding: 295 295 233
Width: 563
GlyphClass: 2
Flags: HW
AnchorPoint: "Anchor-3" 282 273 basechar 0
AnchorPoint: "Anchor-1" 123 760 basechar 0
AnchorPoint: "Anchor-0" 282 0 basechar 0
LayerCount: 2
Fore
SplineSet
51 0 m 1
 51 587 l 1
 0 587 l 1
 0 679 l 1
 51 679 l 1
 51 760 l 1
 190 760 l 1
 190 679 l 1
 323 679 l 1
 323 587 l 1
 190 587 l 1
 190 546 188 506 185 466 c 1
 194 466 l 1
 224 518 270 546 342 546 c 0
 456 546 517 476 517 346 c 2
 517 0 l 1
 378 0 l 1
 378 310 l 2
 378 394 351 427 294 427 c 0
 219 427 190 370 190 248 c 2
 190 0 l 1
 51 0 l 1
EndSplineSet
Validated: 1048577
Substitution2: "'smcp' Lowercase to Small Capitals lookup 35 subtable" hbar.sc
Substitution2: "'aalt' Access All Alternates lookup 0 subtable" hbar.sc
EndChar

StartChar: Itilde
Encoding: 296 296 234
Width: 563
GlyphClass: 2
Flags: HW
AnchorPoint: "Anchor-2" 543 714 basechar 0
AnchorPoint: "Anchor-1" 282 922 basechar 0
AnchorPoint: "Anchor-0" 282 0 basechar 0
LayerCount: 2
Fore
SplineSet
102 773 m 1
 107 849 135 921 204 921 c 0
 260 921 308 870 353 870 c 0
 376 870 384 888 391 922 c 1
 461 922 l 1
 457 826 415 774 359 774 c 0
 306 774 250 825 210 825 c 0
 188 825 178 809 173 773 c 1
 102 773 l 1
79 0 m 1
 79 100 l 1
 214 115 l 1
 214 600 l 1
 79 614 l 1
 79 714 l 1
 484 714 l 1
 484 614 l 1
 347 600 l 1
 347 115 l 1
 484 100 l 1
 484 0 l 1
 79 0 l 1
EndSplineSet
Validated: 1048577
Substitution2: "'c2sc' Capitals to Small Capitals lookup 34 subtable" itilde.sc
Substitution2: "'aalt' Access All Alternates lookup 0 subtable" itilde.sc
EndChar

StartChar: itilde
Encoding: 297 297 235
Width: 563
GlyphClass: 2
Flags: HW
AnchorPoint: "Anchor-3" 291 291 basechar 0
AnchorPoint: "Anchor-1" 282 754 basechar 0
AnchorPoint: "Anchor-0" 282 0 basechar 0
LayerCount: 2
Fore
SplineSet
102 605 m 1
 107 681 135 753 204 753 c 0
 260 753 308 702 353 702 c 0
 376 702 384 720 391 754 c 1
 461 754 l 1
 457 658 415 606 359 606 c 0
 306 606 250 657 210 657 c 0
 188 657 178 641 173 605 c 1
 102 605 l 1
58 0 m 1
 58 92 l 1
 225 115 l 1
 225 431 l 1
 82 446 l 1
 82 546 l 1
 364 546 l 1
 364 115 l 1
 512 92 l 1
 512 0 l 1
 58 0 l 1
EndSplineSet
Validated: 1048577
Substitution2: "'smcp' Lowercase to Small Capitals lookup 35 subtable" itilde.sc
Substitution2: "'aalt' Access All Alternates lookup 0 subtable" itilde.sc
EndChar

StartChar: Imacron
Encoding: 298 298 236
Width: 563
GlyphClass: 2
Flags: HW
AnchorPoint: "Anchor-2" 543 714 basechar 0
AnchorPoint: "Anchor-1" 282 883 basechar 0
AnchorPoint: "Anchor-0" 282 0 basechar 0
LayerCount: 2
Fore
SplineSet
136 787 m 1
 136 883 l 1
 427 883 l 1
 427 787 l 1
 136 787 l 1
79 0 m 1
 79 100 l 1
 214 115 l 1
 214 600 l 1
 79 614 l 1
 79 714 l 1
 484 714 l 1
 484 614 l 1
 347 600 l 1
 347 115 l 1
 484 100 l 1
 484 0 l 1
 79 0 l 1
EndSplineSet
Validated: 1048577
Substitution2: "'c2sc' Capitals to Small Capitals lookup 34 subtable" imacron.sc
Substitution2: "'aalt' Access All Alternates lookup 0 subtable" imacron.sc
EndChar

StartChar: imacron
Encoding: 299 299 237
Width: 563
GlyphClass: 2
Flags: HW
AnchorPoint: "Anchor-3" 291 291 basechar 0
AnchorPoint: "Anchor-1" 282 715 basechar 0
AnchorPoint: "Anchor-0" 282 0 basechar 0
LayerCount: 2
Fore
SplineSet
136 619 m 1
 136 715 l 1
 427 715 l 1
 427 619 l 1
 136 619 l 1
58 0 m 1
 58 92 l 1
 225 115 l 1
 225 431 l 1
 82 446 l 1
 82 546 l 1
 364 546 l 1
 364 115 l 1
 512 92 l 1
 512 0 l 1
 58 0 l 1
EndSplineSet
Validated: 1048577
Substitution2: "'smcp' Lowercase to Small Capitals lookup 35 subtable" imacron.sc
Substitution2: "'aalt' Access All Alternates lookup 0 subtable" imacron.sc
EndChar

StartChar: Ibreve
Encoding: 300 300 238
Width: 563
GlyphClass: 2
Flags: HW
AnchorPoint: "Anchor-2" 543 714 basechar 0
AnchorPoint: "Anchor-1" 282 935 basechar 0
AnchorPoint: "Anchor-0" 282 0 basechar 0
LayerCount: 2
Fore
SplineSet
280 776 m 0
 188 776 125 833 122 935 c 1
 203 935 l 1
 207 885 238 866 281 866 c 0
 323 866 355 884 360 935 c 1
 441 935 l 1
 439 838 374 776 280 776 c 0
79 0 m 1
 79 100 l 1
 214 115 l 1
 214 600 l 1
 79 614 l 1
 79 714 l 1
 484 714 l 1
 484 614 l 1
 347 600 l 1
 347 115 l 1
 484 100 l 1
 484 0 l 1
 79 0 l 1
EndSplineSet
Validated: 1048577
Substitution2: "'c2sc' Capitals to Small Capitals lookup 34 subtable" ibreve.sc
Substitution2: "'aalt' Access All Alternates lookup 0 subtable" ibreve.sc
EndChar

StartChar: ibreve
Encoding: 301 301 239
Width: 563
GlyphClass: 2
Flags: HW
AnchorPoint: "Anchor-3" 291 291 basechar 0
AnchorPoint: "Anchor-1" 282 767 basechar 0
AnchorPoint: "Anchor-0" 282 0 basechar 0
LayerCount: 2
Fore
SplineSet
280 608 m 0
 188 608 125 665 122 767 c 1
 203 767 l 1
 207 717 238 698 281 698 c 0
 323 698 355 716 360 767 c 1
 441 767 l 1
 439 670 374 608 280 608 c 0
58 0 m 1
 58 92 l 1
 225 115 l 1
 225 431 l 1
 82 446 l 1
 82 546 l 1
 364 546 l 1
 364 115 l 1
 512 92 l 1
 512 0 l 1
 58 0 l 1
EndSplineSet
Validated: 1048577
Substitution2: "'smcp' Lowercase to Small Capitals lookup 35 subtable" ibreve.sc
Substitution2: "'aalt' Access All Alternates lookup 0 subtable" ibreve.sc
EndChar

StartChar: Iogonek
Encoding: 302 302 240
Width: 563
GlyphClass: 2
Flags: HW
AnchorPoint: "Anchor-2" 543 714 basechar 0
AnchorPoint: "Anchor-1" 282 714 basechar 0
AnchorPoint: "Anchor-0" 282 -236 basechar 0
LayerCount: 2
Fore
SplineSet
79 0 m 1
 79 100 l 1
 214 115 l 1
 214 600 l 1
 79 614 l 1
 79 714 l 1
 484 714 l 1
 484 614 l 1
 347 600 l 1
 347 115 l 1
 484 100 l 1
 484 0 l 1
 411 0 l 1
 367 -44 351 -75 351 -105 c 0
 351 -134 366 -150 393 -150 c 0
 410 -150 424 -145 434 -141 c 1
 434 -224 l 1
 418 -231 396 -236 367 -236 c 0
 292 -236 251 -195 251 -131 c 0
 251 -86 278 -38 324 0 c 1
 79 0 l 1
EndSplineSet
Validated: 1048577
Substitution2: "'c2sc' Capitals to Small Capitals lookup 34 subtable" iogonek.sc
Substitution2: "'locl' Localized Forms in Latin lookup 10 subtable" Iogonek.loclNAV
Ligature2: "'ccmp' Glyph Composition/Decomposition lookup 6 subtable" I uni0328
AlternateSubs2: "'aalt' Access All Alternates lookup 1 subtable" Iogonek.loclNAV iogonek.sc
EndChar

StartChar: iogonek
Encoding: 303 303 241
Width: 563
GlyphClass: 2
Flags: HW
AnchorPoint: "Anchor-3" 291 291 basechar 0
AnchorPoint: "Anchor-2" 479 774 basechar 0
AnchorPoint: "Anchor-1" 298 774 basechar 0
AnchorPoint: "Anchor-0" 298 -236 basechar 0
LayerCount: 2
Fore
SplineSet
293 611 m 0
 240 611 209 639 209 693 c 0
 209 746 238 774 295 774 c 0
 351 774 379 746 379 693 c 0
 379 641 352 611 293 611 c 0
58 0 m 1
 58 92 l 1
 225 115 l 1
 225 431 l 1
 82 446 l 1
 82 546 l 1
 364 546 l 1
 364 115 l 1
 512 92 l 1
 512 0 l 1
 454 0 l 1
 410 -44 394 -75 394 -105 c 0
 394 -134 409 -150 435 -150 c 0
 452 -150 467 -145 477 -141 c 1
 477 -224 l 1
 461 -231 439 -236 410 -236 c 0
 334 -236 294 -195 294 -131 c 0
 294 -86 320 -38 367 0 c 1
 58 0 l 1
EndSplineSet
Validated: 1
Substitution2: "'smcp' Lowercase to Small Capitals lookup 35 subtable" iogonek.sc
Substitution2: "'locl' Localized Forms in Latin lookup 10 subtable" iogonek.loclNAV
Ligature2: "'ccmp' Glyph Composition/Decomposition lookup 6 subtable" i uni0328
Substitution2: "Single Substitution lookup 5 subtable" iogonekdotless
Substitution2: "Single Substitution lookup 4 subtable" iogonekdotless
AlternateSubs2: "'aalt' Access All Alternates lookup 1 subtable" iogonekdotless iogonek.loclNAV iogonek.sc
EndChar

StartChar: Idotaccent
Encoding: 304 304 242
Width: 563
GlyphClass: 2
Flags: HW
AnchorPoint: "Anchor-2" 543 714 basechar 0
AnchorPoint: "Anchor-1" 282 914 basechar 0
AnchorPoint: "Anchor-0" 282 0 basechar 0
LayerCount: 2
Fore
SplineSet
280 775 m 0
 227 775 196 803 196 857 c 0
 196 910 225 938 282 938 c 0
 338 938 366 910 366 857 c 0
 366 805 339 775 280 775 c 0
79 0 m 1
 79 100 l 1
 214 115 l 1
 214 600 l 1
 79 614 l 1
 79 714 l 1
 484 714 l 1
 484 614 l 1
 347 600 l 1
 347 115 l 1
 484 100 l 1
 484 0 l 1
 79 0 l 1
EndSplineSet
Validated: 1048577
Substitution2: "'c2sc' Capitals to Small Capitals lookup 34 subtable" i.loclTRK.sc
Substitution2: "'aalt' Access All Alternates lookup 0 subtable" i.loclTRK.sc
EndChar

StartChar: IJ
Encoding: 306 306 243
Width: 563
GlyphClass: 2
Flags: HW
AnchorPoint: "Anchor-1" 282 714 basechar 0
AnchorPoint: "Anchor-0" 282 0 basechar 0
LayerCount: 2
Fore
SplineSet
235 -10 m 0
 187 -10 131 -4 78 11 c 1
 78 134 l 1
 139 119 183 113 221 113 c 0
 317 113 349 154 349 249 c 2
 349 714 l 1
 486 714 l 1
 486 240 l 2
 486 78 410 -10 235 -10 c 0
78 212 m 1
 78 714 l 1
 211 714 l 1
 211 212 l 1
 78 212 l 1
EndSplineSet
Validated: 1048577
Substitution2: "'c2sc' Capitals to Small Capitals lookup 34 subtable" ij.sc
Substitution2: "'aalt' Access All Alternates lookup 0 subtable" ij.sc
EndChar

StartChar: ij
Encoding: 307 307 244
Width: 563
GlyphClass: 2
Flags: HW
AnchorPoint: "Anchor-1" 284 774 basechar 0
AnchorPoint: "Anchor-0" 291 -245 basechar 0
LayerCount: 2
Fore
SplineSet
155 611 m 0
 102 611 71 639 71 693 c 0
 71 746 100 774 157 774 c 0
 213 774 241 746 241 693 c 0
 241 641 214 611 155 611 c 0
406 611 m 0
 353 611 322 639 322 693 c 0
 322 746 351 774 408 774 c 0
 464 774 492 746 492 693 c 0
 492 641 465 611 406 611 c 0
258 -245 m 0
 213 -245 160 -238 112 -223 c 1
 112 -104 l 1
 156 -117 204 -123 235 -123 c 0
 308 -123 340 -91 340 -4 c 2
 340 546 l 1
 479 546 l 1
 479 -28 l 2
 479 -177 410 -245 258 -245 c 0
85 0 m 1
 85 546 l 1
 224 546 l 1
 224 0 l 1
 85 0 l 1
EndSplineSet
Validated: 1048577
Substitution2: "'smcp' Lowercase to Small Capitals lookup 35 subtable" ij.sc
Substitution2: "'aalt' Access All Alternates lookup 0 subtable" ij.sc
EndChar

StartChar: Jcircumflex
Encoding: 308 308 245
Width: 563
GlyphClass: 2
Flags: HW
AnchorPoint: "Anchor-2" 543 714 basechar 0
AnchorPoint: "Anchor-1" 391 934 basechar 0
AnchorPoint: "Anchor-0" 302 0 basechar 0
LayerCount: 2
Fore
SplineSet
220 787 m 1
 253 826 303 894 324 934 c 1
 458 934 l 1
 482 890 526 832 562 787 c 1
 562 774 l 1
 479 774 l 1
 452 795 421 823 391 858 c 1
 360 823 328 793 303 774 c 1
 220 774 l 1
 220 787 l 1
216 -10 m 0
 171 -10 118 -4 70 11 c 1
 70 133 l 1
 125 117 172 112 205 112 c 0
 292 112 324 153 324 248 c 2
 324 714 l 1
 461 714 l 1
 461 240 l 2
 461 78 388 -10 216 -10 c 0
EndSplineSet
Validated: 1048577
Substitution2: "'c2sc' Capitals to Small Capitals lookup 34 subtable" jcircumflex.sc
Substitution2: "'aalt' Access All Alternates lookup 0 subtable" jcircumflex.sc
EndChar

StartChar: jcircumflex
Encoding: 309 309 246
Width: 563
GlyphClass: 2
Flags: HW
AnchorPoint: "Anchor-1" 321 766 basechar 0
AnchorPoint: "Anchor-0" 282 -245 basechar 0
LayerCount: 2
Fore
SplineSet
153 619 m 1
 186 658 236 726 257 766 c 1
 392 766 l 1
 416 722 459 664 495 619 c 1
 495 606 l 1
 413 606 l 1
 385 627 354 655 324 690 c 1
 293 655 262 625 236 606 c 1
 153 606 l 1
 153 619 l 1
184 -245 m 0
 139 -245 87 -238 38 -223 c 1
 38 -104 l 1
 82 -117 130 -123 161 -123 c 0
 234 -123 266 -91 266 -4 c 2
 266 431 l 1
 113 446 l 1
 113 546 l 1
 405 546 l 1
 405 -28 l 2
 405 -177 336 -245 184 -245 c 0
EndSplineSet
Validated: 1048577
Substitution2: "'smcp' Lowercase to Small Capitals lookup 35 subtable" jcircumflex.sc
Substitution2: "'aalt' Access All Alternates lookup 0 subtable" jcircumflex.sc
EndChar

StartChar: uni0136
Encoding: 310 310 247
Width: 563
GlyphClass: 2
Flags: HW
AnchorPoint: "Anchor-2" 543 714 basechar 0
AnchorPoint: "Anchor-1" 282 714 basechar 0
AnchorPoint: "Anchor-0" 282 -221 basechar 0
LayerCount: 2
Fore
SplineSet
41 0 m 1
 41 714 l 1
 178 714 l 1
 178 374 l 1
 196 412 213 441 236 477 c 2
 385 714 l 1
 539 714 l 1
 332 394 l 1
 536 0 l 1
 380 0 l 1
 233 291 l 1
 178 238 l 1
 178 0 l 1
 41 0 l 1
195 -208 m 1
 206 -171 220 -103 224 -61 c 1
 352 -61 l 1
 352 -70 l 1
 335 -116 308 -172 277 -221 c 1
 195 -221 l 1
 195 -208 l 1
EndSplineSet
Validated: 1048577
Substitution2: "'c2sc' Capitals to Small Capitals lookup 34 subtable" uni0137.sc
Substitution2: "'aalt' Access All Alternates lookup 0 subtable" uni0137.sc
EndChar

StartChar: uni0137
Encoding: 311 311 248
Width: 563
GlyphClass: 2
Flags: HW
AnchorPoint: "Anchor-2" 447 860 basechar 0
AnchorPoint: "Anchor-1" 282 760 basechar 0
AnchorPoint: "Anchor-0" 282 -221 basechar 0
LayerCount: 2
Fore
SplineSet
55 0 m 1
 55 760 l 1
 194 760 l 1
 194 415 l 2
 194 373 191 339 186 297 c 1
 189 297 l 1
 207 324 228 352 251 382 c 2
 378 546 l 1
 539 546 l 1
 359 322 l 1
 550 0 l 1
 397 0 l 1
 266 228 l 1
 194 165 l 1
 194 0 l 1
 55 0 l 1
207 -208 m 1
 217 -171 231 -103 235 -61 c 1
 363 -61 l 1
 363 -70 l 1
 346 -116 319 -172 288 -221 c 1
 207 -221 l 1
 207 -208 l 1
EndSplineSet
Validated: 1048577
Substitution2: "'smcp' Lowercase to Small Capitals lookup 35 subtable" uni0137.sc
Substitution2: "'aalt' Access All Alternates lookup 0 subtable" uni0137.sc
EndChar

StartChar: kgreenlandic
Encoding: 312 312 249
Width: 563
GlyphClass: 2
Flags: HW
AnchorPoint: "Anchor-1" 282 546 basechar 0
AnchorPoint: "Anchor-0" 282 0 basechar 0
LayerCount: 2
Fore
SplineSet
55 0 m 1
 55 546 l 1
 194 546 l 1
 194 415 l 2
 194 373 191 339 186 297 c 1
 189 297 l 1
 207 324 228 352 251 382 c 2
 378 546 l 1
 539 546 l 1
 359 322 l 1
 550 0 l 1
 397 0 l 1
 266 228 l 1
 194 165 l 1
 194 0 l 1
 55 0 l 1
EndSplineSet
Validated: 1048577
EndChar

StartChar: Lacute
Encoding: 313 313 250
Width: 563
GlyphClass: 2
Flags: HW
AnchorPoint: "Anchor-3" 282 357 basechar 0
AnchorPoint: "Anchor-2" 423 714 basechar 0
AnchorPoint: "Anchor-1" 174 934 basechar 0
AnchorPoint: "Anchor-0" 282 0 basechar 0
LayerCount: 2
Fore
SplineSet
82 787 m 1
 117 835 152 889 176 934 c 1
 327 934 l 1
 327 925 l 1
 297 887 222 814 175 774 c 1
 82 774 l 1
 82 787 l 1
81 0 m 1
 81 714 l 1
 220 714 l 1
 220 124 l 1
 501 124 l 1
 501 0 l 1
 81 0 l 1
EndSplineSet
Validated: 1
Substitution2: "'c2sc' Capitals to Small Capitals lookup 34 subtable" lacute.sc
Substitution2: "'aalt' Access All Alternates lookup 0 subtable" lacute.sc
EndChar

StartChar: lacute
Encoding: 314 314 251
Width: 563
GlyphClass: 2
Flags: HW
AnchorPoint: "Anchor-3" 294 374 basechar 0
AnchorPoint: "Anchor-2" 472 760 basechar 0
AnchorPoint: "Anchor-1" 282 980 basechar 0
AnchorPoint: "Anchor-0" 282 0 basechar 0
LayerCount: 2
Fore
SplineSet
215 833 m 1
 250 881 285 935 308 980 c 1
 460 980 l 1
 460 971 l 1
 429 933 355 860 308 820 c 1
 215 820 l 1
 215 833 l 1
58 0 m 1
 58 92 l 1
 222 115 l 1
 222 645 l 1
 90 668 l 1
 90 760 l 1
 361 760 l 1
 361 115 l 1
 512 92 l 1
 512 0 l 1
 58 0 l 1
EndSplineSet
Validated: 1
Substitution2: "'smcp' Lowercase to Small Capitals lookup 35 subtable" lacute.sc
Substitution2: "'aalt' Access All Alternates lookup 0 subtable" lacute.sc
EndChar

StartChar: uni013B
Encoding: 315 315 252
Width: 563
GlyphClass: 2
Flags: HW
AnchorPoint: "Anchor-3" 282 357 basechar 0
AnchorPoint: "Anchor-2" 423 714 basechar 0
AnchorPoint: "Anchor-1" 148 714 basechar 0
AnchorPoint: "Anchor-0" 282 -221 basechar 0
LayerCount: 2
Fore
SplineSet
81 0 m 1
 81 714 l 1
 220 714 l 1
 220 124 l 1
 501 124 l 1
 501 0 l 1
 81 0 l 1
215 -208 m 1
 225 -171 239 -103 243 -61 c 1
 371 -61 l 1
 371 -70 l 1
 354 -116 327 -172 296 -221 c 1
 215 -221 l 1
 215 -208 l 1
EndSplineSet
Validated: 1
Substitution2: "'c2sc' Capitals to Small Capitals lookup 34 subtable" uni013C.sc
Substitution2: "'locl' Localized Forms in Latin lookup 13 subtable" uni013B.loclMAH
AlternateSubs2: "'aalt' Access All Alternates lookup 1 subtable" uni013B.loclMAH uni013C.sc
EndChar

StartChar: uni013C
Encoding: 316 316 253
Width: 563
GlyphClass: 2
Flags: HW
AnchorPoint: "Anchor-3" 294 374 basechar 0
AnchorPoint: "Anchor-2" 472 760 basechar 0
AnchorPoint: "Anchor-1" 282 760 basechar 0
AnchorPoint: "Anchor-0" 282 -221 basechar 0
LayerCount: 2
Fore
SplineSet
58 0 m 1
 58 92 l 1
 222 115 l 1
 222 645 l 1
 90 668 l 1
 90 760 l 1
 361 760 l 1
 361 115 l 1
 512 92 l 1
 512 0 l 1
 58 0 l 1
201 -208 m 1
 211 -171 225 -103 229 -61 c 1
 357 -61 l 1
 357 -70 l 1
 340 -116 313 -172 282 -221 c 1
 201 -221 l 1
 201 -208 l 1
EndSplineSet
Validated: 1
Substitution2: "'smcp' Lowercase to Small Capitals lookup 35 subtable" uni013C.sc
Substitution2: "'locl' Localized Forms in Latin lookup 13 subtable" uni013C.loclMAH
AlternateSubs2: "'aalt' Access All Alternates lookup 1 subtable" uni013C.loclMAH uni013C.sc
EndChar

StartChar: Lcaron
Encoding: 317 317 254
Width: 563
GlyphClass: 2
Flags: HW
AnchorPoint: "Anchor-3" 282 357 basechar 0
AnchorPoint: "Anchor-2" 423 714 basechar 0
AnchorPoint: "Anchor-1" 147 714 basechar 0
AnchorPoint: "Anchor-0" 282 0 basechar 0
LayerCount: 2
Fore
SplineSet
348 565 m 1
 357 600 371 674 374 714 c 1
 503 714 l 1
 503 705 l 1
 486 660 460 602 429 554 c 1
 348 554 l 1
 348 565 l 1
81 0 m 1
 81 714 l 1
 220 714 l 1
 220 124 l 1
 501 124 l 1
 501 0 l 1
 81 0 l 1
EndSplineSet
Validated: 1
Substitution2: "'c2sc' Capitals to Small Capitals lookup 34 subtable" lcaron.sc
Substitution2: "'aalt' Access All Alternates lookup 0 subtable" lcaron.sc
EndChar

StartChar: lcaron
Encoding: 318 318 255
Width: 563
GlyphClass: 2
Flags: HW
AnchorPoint: "Anchor-3" 294 374 basechar 0
AnchorPoint: "Anchor-2" 472 760 basechar 0
AnchorPoint: "Anchor-1" 282 760 basechar 0
AnchorPoint: "Anchor-0" 282 0 basechar 0
LayerCount: 2
Fore
SplineSet
399 611 m 1
 409 646 422 720 426 760 c 1
 554 760 l 1
 554 751 l 1
 538 706 511 648 481 600 c 1
 399 600 l 1
 399 611 l 1
58 0 m 1
 58 92 l 1
 222 115 l 1
 222 645 l 1
 90 668 l 1
 90 760 l 1
 361 760 l 1
 361 115 l 1
 512 92 l 1
 512 0 l 1
 58 0 l 1
EndSplineSet
Validated: 1
Substitution2: "'smcp' Lowercase to Small Capitals lookup 35 subtable" lcaron.sc
Substitution2: "'aalt' Access All Alternates lookup 0 subtable" lcaron.sc
EndChar

StartChar: Ldot
Encoding: 319 319 256
Width: 563
GlyphClass: 2
Flags: HW
AnchorPoint: "Anchor-3" 282 357 basechar 0
AnchorPoint: "Anchor-2" 423 714 basechar 0
AnchorPoint: "Anchor-1" 146 714 basechar 0
AnchorPoint: "Anchor-0" 282 0 basechar 0
LayerCount: 2
Fore
SplineSet
81 0 m 1
 81 714 l 1
 220 714 l 1
 220 124 l 1
 501 124 l 1
 501 0 l 1
 81 0 l 1
425 303 m 0
 372 303 341 334 341 388 c 0
 341 443 370 473 425 473 c 0
 478 473 509 443 509 388 c 0
 509 335 477 303 425 303 c 0
EndSplineSet
Validated: 1
Substitution2: "'c2sc' Capitals to Small Capitals lookup 34 subtable" ldot.sc
Ligature2: "Ligature Substitution lookup 16 subtable" L periodcentered
Substitution2: "'aalt' Access All Alternates lookup 0 subtable" ldot.sc
EndChar

StartChar: ldot
Encoding: 320 320 257
Width: 563
GlyphClass: 2
Flags: HW
AnchorPoint: "Anchor-3" 294 374 basechar 0
AnchorPoint: "Anchor-2" 472 760 basechar 0
AnchorPoint: "Anchor-1" 282 760 basechar 0
AnchorPoint: "Anchor-0" 282 0 basechar 0
LayerCount: 2
Fore
SplineSet
58 0 m 1
 58 92 l 1
 222 115 l 1
 222 645 l 1
 90 668 l 1
 90 760 l 1
 361 760 l 1
 361 115 l 1
 512 92 l 1
 512 0 l 1
 58 0 l 1
565 298 m 0
 512 298 480 329 480 383 c 0
 480 438 510 467 565 467 c 0
 618 467 649 438 649 383 c 0
 649 330 617 298 565 298 c 0
EndSplineSet
Validated: 1
Substitution2: "'smcp' Lowercase to Small Capitals lookup 35 subtable" ldot.sc
Ligature2: "Ligature Substitution lookup 15 subtable" l periodcentered
Substitution2: "'aalt' Access All Alternates lookup 0 subtable" ldot.sc
EndChar

StartChar: Lslash
Encoding: 321 321 258
Width: 563
GlyphClass: 2
Flags: HW
AnchorPoint: "Anchor-3" 318 357 basechar 0
AnchorPoint: "Anchor-2" 459 714 basechar 0
AnchorPoint: "Anchor-1" 190 714 basechar 0
AnchorPoint: "Anchor-0" 335 0 basechar 0
LayerCount: 2
Fore
SplineSet
117 0 m 1
 117 242 l 1
 78 216 l 1
 23 304 l 1
 117 366 l 1
 117 714 l 1
 256 714 l 1
 256 456 l 1
 334 507 l 1
 390 420 l 1
 256 332 l 1
 256 124 l 1
 537 124 l 1
 537 0 l 1
 117 0 l 1
EndSplineSet
Validated: 1
Substitution2: "'c2sc' Capitals to Small Capitals lookup 34 subtable" lslash.sc
Substitution2: "'aalt' Access All Alternates lookup 0 subtable" lslash.sc
EndChar

StartChar: lslash
Encoding: 322 322 259
Width: 563
GlyphClass: 2
Flags: HW
AnchorPoint: "Anchor-3" 294 374 basechar 0
AnchorPoint: "Anchor-2" 472 760 basechar 0
AnchorPoint: "Anchor-1" 282 760 basechar 0
AnchorPoint: "Anchor-0" 282 0 basechar 0
LayerCount: 2
Fore
SplineSet
58 0 m 1
 58 92 l 1
 222 115 l 1
 222 257 l 1
 159 215 l 1
 104 301 l 1
 222 380 l 1
 222 645 l 1
 90 668 l 1
 90 760 l 1
 361 760 l 1
 361 472 l 1
 415 508 l 1
 472 422 l 1
 361 349 l 1
 361 115 l 1
 512 92 l 1
 512 0 l 1
 58 0 l 1
EndSplineSet
Validated: 1
Substitution2: "'smcp' Lowercase to Small Capitals lookup 35 subtable" lslash.sc
Substitution2: "'aalt' Access All Alternates lookup 0 subtable" lslash.sc
EndChar

StartChar: Nacute
Encoding: 323 323 260
Width: 563
GlyphClass: 2
Flags: HW
AnchorPoint: "Anchor-2" 563 714 basechar 0
AnchorPoint: "Anchor-1" 282 934 basechar 0
AnchorPoint: "Anchor-0" 282 0 basechar 0
LayerCount: 2
Fore
SplineSet
220 787 m 1
 255 835 290 889 313 934 c 1
 465 934 l 1
 465 925 l 1
 434 887 360 814 313 774 c 1
 220 774 l 1
 220 787 l 1
41 0 m 1
 41 714 l 1
 238 714 l 1
 401 137 l 1
 406 137 l 1
 400 221 394 332 394 382 c 2
 394 714 l 1
 522 714 l 1
 522 0 l 1
 327 0 l 1
 163 581 l 1
 158 581 l 1
 164 494 169 399 169 355 c 2
 169 0 l 1
 41 0 l 1
EndSplineSet
Validated: 1048577
Substitution2: "'c2sc' Capitals to Small Capitals lookup 34 subtable" nacute.sc
Substitution2: "'aalt' Access All Alternates lookup 0 subtable" nacute.sc
EndChar

StartChar: nacute
Encoding: 324 324 261
Width: 563
GlyphClass: 2
Flags: HW
AnchorPoint: "Anchor-2" 543 546 basechar 0
AnchorPoint: "Anchor-1" 282 766 basechar 0
AnchorPoint: "Anchor-0" 282 0 basechar 0
LayerCount: 2
Fore
SplineSet
221 619 m 1
 256 667 291 721 315 766 c 1
 466 766 l 1
 466 757 l 1
 436 719 361 646 314 606 c 1
 221 606 l 1
 221 619 l 1
51 0 m 1
 51 546 l 1
 159 546 l 1
 181 479 l 1
 188 479 l 1
 218 529 269 556 342 556 c 0
 457 556 517 490 517 362 c 2
 517 0 l 1
 378 0 l 1
 378 325 l 2
 378 403 350 439 293 439 c 0
 219 439 190 378 190 268 c 2
 190 0 l 1
 51 0 l 1
EndSplineSet
Validated: 1048577
Substitution2: "'smcp' Lowercase to Small Capitals lookup 35 subtable" nacute.sc
Substitution2: "'aalt' Access All Alternates lookup 0 subtable" nacute.sc
EndChar

StartChar: uni0145
Encoding: 325 325 262
Width: 563
GlyphClass: 2
Flags: HW
AnchorPoint: "Anchor-2" 563 714 basechar 0
AnchorPoint: "Anchor-1" 314 714 basechar 0
AnchorPoint: "Anchor-0" 261 -221 basechar 0
LayerCount: 2
Fore
SplineSet
41 0 m 1
 41 714 l 1
 238 714 l 1
 401 137 l 1
 406 137 l 1
 400 221 394 332 394 382 c 2
 394 714 l 1
 522 714 l 1
 522 0 l 1
 327 0 l 1
 163 581 l 1
 158 581 l 1
 164 494 169 399 169 355 c 2
 169 0 l 1
 41 0 l 1
188 -208 m 1
 199 -171 213 -103 217 -61 c 1
 345 -61 l 1
 345 -70 l 1
 328 -116 301 -172 269 -221 c 1
 188 -221 l 1
 188 -208 l 1
EndSplineSet
Validated: 1048577
Substitution2: "'c2sc' Capitals to Small Capitals lookup 34 subtable" uni0146.sc
Substitution2: "'locl' Localized Forms in Latin lookup 13 subtable" uni0145.loclMAH
AlternateSubs2: "'aalt' Access All Alternates lookup 1 subtable" uni0145.loclMAH uni0146.sc
EndChar

StartChar: uni0146
Encoding: 326 326 263
Width: 563
GlyphClass: 2
Flags: HW
AnchorPoint: "Anchor-2" 543 546 basechar 0
AnchorPoint: "Anchor-1" 282 546 basechar 0
AnchorPoint: "Anchor-0" 282 -221 basechar 0
LayerCount: 2
Fore
SplineSet
51 0 m 1
 51 546 l 1
 159 546 l 1
 181 479 l 1
 188 479 l 1
 218 529 269 556 342 556 c 0
 457 556 517 490 517 362 c 2
 517 0 l 1
 378 0 l 1
 378 325 l 2
 378 403 350 439 293 439 c 0
 219 439 190 378 190 268 c 2
 190 0 l 1
 51 0 l 1
193 -208 m 1
 203 -171 217 -103 221 -61 c 1
 349 -61 l 1
 349 -70 l 1
 332 -116 305 -172 274 -221 c 1
 193 -221 l 1
 193 -208 l 1
EndSplineSet
Validated: 1048577
Substitution2: "'smcp' Lowercase to Small Capitals lookup 35 subtable" uni0146.sc
Substitution2: "'locl' Localized Forms in Latin lookup 13 subtable" uni0146.loclMAH
AlternateSubs2: "'aalt' Access All Alternates lookup 1 subtable" uni0146.loclMAH uni0146.sc
EndChar

StartChar: Ncaron
Encoding: 327 327 264
Width: 563
GlyphClass: 2
Flags: HW
AnchorPoint: "Anchor-2" 563 714 basechar 0
AnchorPoint: "Anchor-1" 282 934 basechar 0
AnchorPoint: "Anchor-0" 282 0 basechar 0
LayerCount: 2
Fore
SplineSet
220 774 m 1
 197 815 147 883 115 921 c 1
 115 934 l 1
 199 934 l 1
 225 913 256 885 286 851 c 1
 317 887 346 911 374 934 c 1
 458 934 l 1
 458 921 l 1
 427 884 377 818 353 774 c 1
 220 774 l 1
41 0 m 1
 41 714 l 1
 238 714 l 1
 401 137 l 1
 406 137 l 1
 400 221 394 332 394 382 c 2
 394 714 l 1
 522 714 l 1
 522 0 l 1
 327 0 l 1
 163 581 l 1
 158 581 l 1
 164 494 169 399 169 355 c 2
 169 0 l 1
 41 0 l 1
EndSplineSet
Validated: 1048577
Substitution2: "'c2sc' Capitals to Small Capitals lookup 34 subtable" ncaron.sc
Substitution2: "'aalt' Access All Alternates lookup 0 subtable" ncaron.sc
EndChar

StartChar: ncaron
Encoding: 328 328 265
Width: 563
GlyphClass: 2
Flags: HW
AnchorPoint: "Anchor-2" 543 546 basechar 0
AnchorPoint: "Anchor-1" 282 766 basechar 0
AnchorPoint: "Anchor-0" 282 0 basechar 0
LayerCount: 2
Fore
SplineSet
221 606 m 1
 199 647 148 715 117 753 c 1
 117 766 l 1
 200 766 l 1
 226 745 257 717 287 683 c 1
 319 719 347 743 376 766 c 1
 459 766 l 1
 459 753 l 1
 428 716 378 650 355 606 c 1
 221 606 l 1
51 0 m 1
 51 546 l 1
 159 546 l 1
 181 479 l 1
 188 479 l 1
 218 529 269 556 342 556 c 0
 457 556 517 490 517 362 c 2
 517 0 l 1
 378 0 l 1
 378 325 l 2
 378 403 350 439 293 439 c 0
 219 439 190 378 190 268 c 2
 190 0 l 1
 51 0 l 1
EndSplineSet
Validated: 1048577
Substitution2: "'smcp' Lowercase to Small Capitals lookup 35 subtable" ncaron.sc
Substitution2: "'aalt' Access All Alternates lookup 0 subtable" ncaron.sc
EndChar

StartChar: napostrophe
Encoding: 329 329 266
Width: 563
GlyphClass: 2
Flags: HW
AnchorPoint: "Anchor-1" 295 546 basechar 0
AnchorPoint: "Anchor-0" 292 0 basechar 0
LayerCount: 2
Fore
SplineSet
-113 461 m 1
 -92 550 -75 647 -67 714 c 1
 64 714 l 1
 71 703 l 1
 55 627 28 547 -9 461 c 1
 -113 461 l 1
61 0 m 1
 61 546 l 1
 169 546 l 1
 191 475 l 1
 199 475 l 1
 230 531 281 556 347 556 c 0
 458 556 517 486 517 356 c 2
 517 0 l 1
 378 0 l 1
 378 320 l 2
 378 399 351 437 299 437 c 0
 228 437 200 369 200 258 c 2
 200 0 l 1
 61 0 l 1
EndSplineSet
Validated: 1048577
EndChar

StartChar: Eng
Encoding: 330 330 267
Width: 563
GlyphClass: 2
Flags: HW
AnchorPoint: "Anchor-2" 563 714 basechar 0
AnchorPoint: "Anchor-1" 287 714 basechar 0
AnchorPoint: "Anchor-0" 287 -208 basechar 0
LayerCount: 2
Fore
SplineSet
41 0 m 1
 41 714 l 1
 238 714 l 1
 401 137 l 1
 406 137 l 1
 400 221 394 332 394 382 c 2
 394 714 l 1
 522 714 l 1
 522 -2 l 2
 522 -136 447 -208 318 -208 c 0
 284 -208 255 -204 233 -197 c 1
 233 -93 l 1
 254 -98 277 -103 304 -103 c 0
 369 -103 404 -70 404 0 c 1
 327 0 l 1
 163 581 l 1
 158 581 l 1
 164 494 169 399 169 355 c 2
 169 0 l 1
 41 0 l 1
EndSplineSet
Validated: 1048577
Substitution2: "'c2sc' Capitals to Small Capitals lookup 34 subtable" eng.sc
AlternateSubs2: "'aalt' Access All Alternates lookup 1 subtable" Eng.alt1 Eng.alt2 Eng.alt3 eng.sc
EndChar

StartChar: eng
Encoding: 331 331 268
Width: 563
GlyphClass: 2
Flags: HW
AnchorPoint: "Anchor-2" 543 546 basechar 0
AnchorPoint: "Anchor-1" 288 546 basechar 0
AnchorPoint: "Anchor-0" 285 -240 basechar 0
LayerCount: 2
Fore
SplineSet
51 0 m 1
 51 546 l 1
 159 546 l 1
 181 479 l 1
 188 479 l 1
 218 529 269 556 342 556 c 0
 457 556 517 490 517 362 c 2
 517 -62 l 2
 517 -162 467 -240 348 -240 c 0
 320 -240 287 -236 265 -228 c 1
 265 -119 l 1
 284 -125 302 -128 317 -128 c 0
 354 -128 378 -109 378 -47 c 2
 378 325 l 2
 378 403 350 439 293 439 c 0
 219 439 190 378 190 268 c 2
 190 0 l 1
 51 0 l 1
EndSplineSet
Validated: 1048577
Substitution2: "'smcp' Lowercase to Small Capitals lookup 35 subtable" eng.sc
Substitution2: "'aalt' Access All Alternates lookup 0 subtable" eng.sc
EndChar

StartChar: Omacron
Encoding: 332 332 269
Width: 563
GlyphClass: 2
Flags: HW
AnchorPoint: "Anchor-3" 282 357 basechar 0
AnchorPoint: "Anchor-2" 563 714 basechar 0
AnchorPoint: "Anchor-1" 282 883 basechar 0
AnchorPoint: "Anchor-0" 282 0 basechar 0
LayerCount: 2
Fore
SplineSet
136 787 m 1
 136 883 l 1
 427 883 l 1
 427 787 l 1
 136 787 l 1
282 -9 m 0
 106 -9 26 131 26 358 c 0
 26 593 109 726 282 726 c 0
 457 726 537 587 537 358 c 0
 537 130 457 -9 282 -9 c 0
282 113 m 0
 361 113 395 196 395 359 c 0
 395 521 362 604 282 604 c 0
 202 604 168 518 168 358 c 0
 168 198 201 113 282 113 c 0
EndSplineSet
Validated: 1
Substitution2: "'c2sc' Capitals to Small Capitals lookup 34 subtable" omacron.sc
Substitution2: "'aalt' Access All Alternates lookup 0 subtable" omacron.sc
EndChar

StartChar: omacron
Encoding: 333 333 270
Width: 563
GlyphClass: 2
Flags: HW
AnchorPoint: "Anchor-3" 282 273 basechar 0
AnchorPoint: "Anchor-2" 543 546 basechar 0
AnchorPoint: "Anchor-1" 282 715 basechar 0
AnchorPoint: "Anchor-0" 282 0 basechar 0
LayerCount: 2
Fore
SplineSet
136 619 m 1
 136 715 l 1
 427 715 l 1
 427 619 l 1
 136 619 l 1
284 -10 m 0
 122 -10 36 108 36 273 c 0
 36 439 124 556 283 556 c 0
 433 556 527 453 527 271 c 0
 527 107 447 -10 284 -10 c 0
284 107 m 0
 355 107 386 165 386 272 c 0
 386 379 356 439 284 439 c 0
 210 439 178 376 178 273 c 0
 178 168 211 107 284 107 c 0
EndSplineSet
Validated: 1
Substitution2: "'smcp' Lowercase to Small Capitals lookup 35 subtable" omacron.sc
Substitution2: "'aalt' Access All Alternates lookup 0 subtable" omacron.sc
EndChar

StartChar: Obreve
Encoding: 334 334 271
Width: 563
GlyphClass: 2
Flags: HW
AnchorPoint: "Anchor-3" 282 357 basechar 0
AnchorPoint: "Anchor-2" 563 714 basechar 0
AnchorPoint: "Anchor-1" 282 935 basechar 0
AnchorPoint: "Anchor-0" 282 0 basechar 0
LayerCount: 2
Fore
SplineSet
280 776 m 0
 188 776 125 833 122 935 c 1
 203 935 l 1
 207 885 238 866 281 866 c 0
 323 866 355 884 360 935 c 1
 441 935 l 1
 439 838 374 776 280 776 c 0
282 -9 m 0
 106 -9 26 131 26 358 c 0
 26 593 109 726 282 726 c 0
 457 726 537 587 537 358 c 0
 537 130 457 -9 282 -9 c 0
282 113 m 0
 361 113 395 196 395 359 c 0
 395 521 362 604 282 604 c 0
 202 604 168 518 168 358 c 0
 168 198 201 113 282 113 c 0
EndSplineSet
Validated: 1
Substitution2: "'c2sc' Capitals to Small Capitals lookup 34 subtable" obreve.sc
Substitution2: "'aalt' Access All Alternates lookup 0 subtable" obreve.sc
EndChar

StartChar: obreve
Encoding: 335 335 272
Width: 563
GlyphClass: 2
Flags: HW
AnchorPoint: "Anchor-3" 282 273 basechar 0
AnchorPoint: "Anchor-2" 543 546 basechar 0
AnchorPoint: "Anchor-1" 282 767 basechar 0
AnchorPoint: "Anchor-0" 282 0 basechar 0
LayerCount: 2
Fore
SplineSet
280 608 m 0
 188 608 125 665 122 767 c 1
 203 767 l 1
 207 717 238 698 281 698 c 0
 323 698 355 716 360 767 c 1
 441 767 l 1
 439 670 374 608 280 608 c 0
284 -10 m 0
 122 -10 36 108 36 273 c 0
 36 439 124 556 283 556 c 0
 433 556 527 453 527 271 c 0
 527 107 447 -10 284 -10 c 0
284 107 m 0
 355 107 386 165 386 272 c 0
 386 379 356 439 284 439 c 0
 210 439 178 376 178 273 c 0
 178 168 211 107 284 107 c 0
EndSplineSet
Validated: 1
Substitution2: "'smcp' Lowercase to Small Capitals lookup 35 subtable" obreve.sc
Substitution2: "'aalt' Access All Alternates lookup 0 subtable" obreve.sc
EndChar

StartChar: Ohungarumlaut
Encoding: 336 336 273
Width: 563
GlyphClass: 2
Flags: HW
AnchorPoint: "Anchor-3" 282 357 basechar 0
AnchorPoint: "Anchor-2" 563 714 basechar 0
AnchorPoint: "Anchor-1" 282 934 basechar 0
AnchorPoint: "Anchor-0" 282 0 basechar 0
LayerCount: 2
Fore
SplineSet
287 787 m 1
 319 840 354 901 369 934 c 1
 496 934 l 1
 496 925 l 1
 476 886 401 811 357 774 c 1
 287 774 l 1
 287 787 l 1
115 787 m 1
 147 841 180 901 196 934 c 1
 323 934 l 1
 323 925 l 1
 303 884 233 815 181 774 c 1
 115 774 l 1
 115 787 l 1
282 -9 m 0
 106 -9 26 131 26 358 c 0
 26 593 109 726 282 726 c 0
 457 726 537 587 537 358 c 0
 537 130 457 -9 282 -9 c 0
282 113 m 0
 361 113 395 196 395 359 c 0
 395 521 362 604 282 604 c 0
 202 604 168 518 168 358 c 0
 168 198 201 113 282 113 c 0
EndSplineSet
Validated: 1
Substitution2: "'c2sc' Capitals to Small Capitals lookup 34 subtable" ohungarumlaut.sc
Substitution2: "'aalt' Access All Alternates lookup 0 subtable" ohungarumlaut.sc
EndChar

StartChar: ohungarumlaut
Encoding: 337 337 274
Width: 563
GlyphClass: 2
Flags: HW
AnchorPoint: "Anchor-3" 282 273 basechar 0
AnchorPoint: "Anchor-2" 543 546 basechar 0
AnchorPoint: "Anchor-1" 282 766 basechar 0
AnchorPoint: "Anchor-0" 282 0 basechar 0
LayerCount: 2
Fore
SplineSet
287 619 m 1
 319 672 354 733 369 766 c 1
 496 766 l 1
 496 757 l 1
 476 718 401 643 357 606 c 1
 287 606 l 1
 287 619 l 1
115 619 m 1
 147 673 180 733 196 766 c 1
 323 766 l 1
 323 757 l 1
 303 716 233 647 181 606 c 1
 115 606 l 1
 115 619 l 1
284 -10 m 0
 122 -10 36 108 36 273 c 0
 36 439 124 556 283 556 c 0
 433 556 527 453 527 271 c 0
 527 107 447 -10 284 -10 c 0
284 107 m 0
 355 107 386 165 386 272 c 0
 386 379 356 439 284 439 c 0
 210 439 178 376 178 273 c 0
 178 168 211 107 284 107 c 0
EndSplineSet
Validated: 1
Substitution2: "'smcp' Lowercase to Small Capitals lookup 35 subtable" ohungarumlaut.sc
Substitution2: "'aalt' Access All Alternates lookup 0 subtable" ohungarumlaut.sc
EndChar

StartChar: OE
Encoding: 338 338 275
Width: 563
GlyphClass: 2
Flags: HW
AnchorPoint: "Anchor-1" 282 714 basechar 0
AnchorPoint: "Anchor-0" 282 0 basechar 0
LayerCount: 2
Fore
SplineSet
233 -10 m 0
 81 -10 26 133 26 359 c 0
 26 584 83 724 236 724 c 0
 250 724 276 724 306 714 c 1
 543 714 l 1
 543 592 l 1
 416 592 l 1
 416 433 l 1
 527 433 l 1
 527 310 l 1
 416 310 l 1
 416 122 l 1
 543 122 l 1
 543 0 l 1
 305 0 l 1
 281 -7 256 -10 233 -10 c 0
249 114 m 0
 263 114 278 120 287 125 c 1
 287 590 l 1
 279 598 263 600 251 600 c 0
 190 600 161 512 161 358 c 0
 161 200 178 114 249 114 c 0
EndSplineSet
Validated: 1048577
Substitution2: "'c2sc' Capitals to Small Capitals lookup 34 subtable" oe.sc
Substitution2: "'aalt' Access All Alternates lookup 0 subtable" oe.sc
EndChar

StartChar: oe
Encoding: 339 339 276
Width: 563
GlyphClass: 2
Flags: HW
AnchorPoint: "Anchor-1" 282 546 basechar 0
AnchorPoint: "Anchor-0" 282 0 basechar 0
LayerCount: 2
Fore
SplineSet
180 -10 m 0
 68 -10 17 101 17 276 c 0
 17 443 64 555 177 555 c 0
 230 555 269 530 297 478 c 1
 324 529 357 555 408 555 c 0
 506 555 553 456 553 309 c 2
 553 239 l 1
 353 239 l 1
 354 127 394 94 443 94 c 0
 471 94 506 105 540 134 c 1
 540 27 l 1
 505 3 463 -10 422 -10 c 0
 368 -10 329 12 299 68 c 1
 270 14 233 -10 180 -10 c 0
446 329 m 1
 446 413 433 452 403 452 c 0
 374 452 353 418 352 329 c 1
 446 329 l 1
184 96 m 0
 221 96 237 151 237 270 c 0
 237 391 221 449 183 449 c 0
 146 449 132 395 132 273 c 0
 132 150 146 96 184 96 c 0
EndSplineSet
Validated: 1048577
Substitution2: "'smcp' Lowercase to Small Capitals lookup 35 subtable" oe.sc
Substitution2: "'aalt' Access All Alternates lookup 0 subtable" oe.sc
EndChar

